<?xml version="1.0" standalone="no"?>
<!DOCTYPE svg PUBLIC "-//W3C//DTD SVG 20010904//EN"
 "http://www.w3.org/TR/2001/REC-SVG-20010904/DTD/svg10.dtd">
<svg version="1.0" xmlns="http://www.w3.org/2000/svg"
 width="700.000000pt" height="700.000000pt" viewBox="0 0 700.000000 700.000000"
 preserveAspectRatio="xMidYMid meet">
<metadata>
Created by potrace 1.11, written by Peter Selinger 2001-2013
</metadata>
<g transform="translate(0.000000,700.000000) scale(0.100000,-0.100000)"
fill="#000000" stroke="none">
<path d="M0 3500 l0 -3500 3500 0 3500 0 0 3500 0 3500 -3500 0 -3500 0 0
-3500z m2065 3140 c93 -11 118 -17 640 -150 171 -43 341 -83 378 -90 87 -14
181 -48 253 -91 67 -41 188 -165 177 -182 -35 -58 -295 -397 -305 -397 -6 0
-134 32 -284 70 -150 39 -281 70 -292 70 -32 0 -175 -102 -252 -180 -125 -126
-249 -327 -313 -505 -56 -157 -91 -397 -85 -584 l3 -105 619 -162 c341 -89
629 -167 640 -174 12 -7 74 -50 138 -96 64 -46 120 -84 123 -84 4 0 5 40 4 90
-2 49 -1 92 2 94 9 9 966 266 991 266 13 0 113 -24 223 -53 l200 -54 3 -256
c2 -195 5 -257 15 -257 6 0 229 56 495 126 l482 127 183 -48 c100 -26 197 -52
215 -57 l32 -9 0 -1507 0 -1508 -277 -72 c-153 -40 -387 -100 -520 -135 l-242
-63 -63 18 c-35 11 -112 34 -173 52 -60 19 -138 42 -172 52 l-63 18 0 239 0
240 -27 -7 c-16 -3 -230 -59 -478 -124 l-449 -117 -188 55 -188 54 -2 1366 -3
1365 -44 -65 c-77 -113 -220 -288 -284 -346 -247 -224 -616 -345 -887 -290
-46 10 -111 28 -144 42 -34 14 -218 65 -410 115 -387 100 -471 128 -599 197
-177 95 -278 196 -356 356 -127 258 -179 538 -168 896 17 513 170 980 436
1320 238 306 552 509 832 539 46 4 86 9 89 10 3 0 45 -4 95 -9z"/>
<path d="M1810 6566 c-128 -29 -278 -101 -395 -188 -150 -111 -333 -316 -440
-493 -296 -490 -390 -1258 -219 -1781 14 -43 50 -130 80 -192 80 -165 171
-253 363 -347 119 -59 197 -84 490 -159 l255 -65 -56 57 c-398 409 -458 1351
-132 2084 195 441 592 814 962 903 40 10 71 19 70 20 -2 2 -149 40 -328 85
-317 81 -328 83 -460 86 -85 2 -156 -2 -190 -10z"/>
<path d="M2780 5913 c-18 -4 24 -18 140 -49 90 -23 166 -41 169 -39 10 11 -34
58 -67 72 -38 16 -195 26 -242 16z"/>
<path d="M1994 4330 c16 -229 104 -428 249 -561 100 -91 279 -131 422 -94 81
22 237 97 303 146 57 44 160 168 204 247 l27 49 -237 61 c-130 34 -304 79
-387 101 -414 109 -578 151 -583 151 -3 0 -2 -45 2 -100z"/>
<path d="M4395 4345 c-44 -13 -233 -64 -420 -115 -187 -51 -341 -93 -343 -95
-1 -1 56 -19 127 -39 l130 -37 441 118 c242 64 437 120 432 123 -11 10 -247
70 -268 69 -11 -1 -55 -11 -99 -24z"/>
<path d="M4378 4127 l-488 -131 0 -569 c0 -537 1 -569 18 -565 9 3 230 63 490
134 l472 129 0 567 c0 313 -1 568 -2 567 -2 0 -222 -60 -490 -132z"/>
<path d="M5483 3886 c-232 -61 -424 -114 -427 -117 -7 -7 245 -75 264 -71 63
11 880 218 880 223 0 6 -271 80 -287 78 -4 0 -198 -51 -430 -113z"/>
<path d="M5795 3751 l-470 -116 -3 -1453 c-2 -1381 -1 -1453 15 -1448 40 11
944 246 948 246 3 0 5 650 5 1445 0 1150 -3 1445 -12 1444 -7 0 -224 -53 -483
-118z m323 -252 c3 -25 2 -25 -228 -79 -195 -45 -233 -51 -241 -39 -25 39 -15
44 209 96 119 28 226 50 237 50 13 -1 21 -10 23 -28z"/>
<path d="M4448 2947 c-225 -62 -408 -114 -408 -117 0 -4 695 -189 816 -218 12
-3 14 37 14 222 0 124 -3 226 -7 225 -5 0 -191 -51 -415 -112z"/>
<path d="M3890 1746 l0 -646 28 6 c15 4 227 60 472 124 l445 116 3 396 2 396
-32 11 c-31 9 -831 222 -890 237 l-28 6 0 -646z"/>
</g>
</svg>
