<?xml version="1.0" encoding="UTF-8" standalone="no"?>
<svg
   xmlns:dc="http://purl.org/dc/elements/1.1/"
   xmlns:cc="http://creativecommons.org/ns#"
   xmlns:rdf="http://www.w3.org/1999/02/22-rdf-syntax-ns#"
   xmlns:svg="http://www.w3.org/2000/svg"
   xmlns="http://www.w3.org/2000/svg"
   id="svg2270"
   version="1.1"
   viewBox="0 0 471 350"
   height="350mm"
   width="471mm">
  <defs
     id="defs2264">
    <clipPath
       id="clipPath40"
       clipPathUnits="userSpaceOnUse">
      <path
         id="path38"
         d="M 0,6428.331 H 1319.76 V 0 H 0 Z" />
    </clipPath>
    <clipPath
       id="clipPath134"
       clipPathUnits="userSpaceOnUse">
      <path
         id="path132"
         d="M 75.1347,5760.87 H 283.191 V 5604.69 H 75.1347 Z" />
    </clipPath>
    <clipPath
       id="clipPath138"
       clipPathUnits="userSpaceOnUse">
      <path
         id="path136"
         d="m 75.443,5604.694 -0.308,96.063 207.747,60.11 0.309,-96.063 z" />
    </clipPath>
  </defs>
  <metadata
     id="metadata2267">
    <rdf:RDF>
      <cc:Work
         rdf:about="">
        <dc:format>image/svg+xml</dc:format>
        <dc:type
           rdf:resource="http://purl.org/dc/dcmitype/StillImage" />
        <dc:title></dc:title>
      </cc:Work>
    </rdf:RDF>
  </metadata>
  <g
     transform="matrix(0.89411453,0,0,0.89411453,24.351423,74.861428)"
     id="layer1">
    <path
       d="m 434.98858,165.42105 -26.04717,-6.19409 7.81444,-12.21717 26.04717,6.19445 z m -15.82243,2.12981 -2.94982,-2.79777 21.11637,5.24206 c 0.49909,0.62825 1.15774,1.34558 2.00352,2.08223 z m 57.03087,-92.591535 c 0.6583,0.179601 2.08187,0.604991 3.8396,2.068275 l 0.12558,0.52342 -12.72521,-2.585255 c 4.58198,-1.542709 7.78868,-0.270833 8.76003,-0.0064 m 12.71268,42.239895 c -4.52938,-6.26278 -6.79407,-7.49817 -12.55848,-8.93927 -5.76477,-1.4411 -13.72303,-2.6704 -15.18882,-3.35983 -3.68898,-1.73483 -4.02421,-2.61996 -4.55085,-3.19454 -0.52592,-0.57422 -2.2375,-3.430665 -2.28902,-7.187978 -0.0515,-3.757313 0.56206,-11.606455 8.1833,-16.984471 0.55634,-0.392475 1.09908,-0.737009 1.63144,-1.046838 l 18.89568,3.838169 9.32531,-16.625627 c 0,0 -3.7888,-4.900034 -11.99786,-6.377271 l 0.13202,-0.50875 -28.15122,-7.285652 -7.2e-4,0.0029 c -2.16094,-0.595331 -4.46284,-0.915179 -6.84845,-0.945589 -7.18584,-0.09588 -14.42748,2.800275 -21.47915,8.596883 -0.15921,0.131302 -0.28443,0.233982 -0.37316,0.30339 -2.72371,2.118005 -5.44206,5.019887 -7.65344,8.170778 l 1.75666,1.233595 c 2.0926,-2.981307 4.65496,-5.719688 7.21481,-7.709969 0.0995,-0.07764 0.24006,-0.192481 0.41859,-0.339525 6.64989,-5.466743 13.40569,-8.211564 20.0885,-8.108525 2.27757,0.02898 4.4682,0.339524 6.51107,0.923407 l 10e-4,-0.0039 20.89741,5.408069 c -9.73925,1.095496 -16.92508,7.601565 -18.10501,8.519605 -1.30121,1.012135 -11.05978,8.60225 -13.95093,23.203607 -2.89151,14.601712 0.43362,23.854392 4.12045,28.408102 3.68612,4.55443 7.51713,5.92755 12.57745,7.08423 5.05995,1.15667 15.03533,1.8071 18.07138,6.57798 3.03604,4.77087 3.25249,9.39721 0.57851,17.27641 -2.67505,7.87883 -10.98751,11.42113 -14.31263,11.70985 -3.32513,0.28944 -7.80693,-0.65043 -9.54176,-1.87902 -1.73483,-1.22894 -4.55443,-3.18058 -6.07209,-6.14436 l -6.58764,-1.56668 c 2.89759,-2.20637 5.82344,-5.3798 7.0599,-9.02156 2.76127,-8.13571 2.57487,-13.06759 -0.68907,-18.19695 -2.67291,-4.20024 -9.61546,-5.40771 -15.19347,-6.37727 -1.3073,-0.22719 -2.54232,-0.44221 -3.5448,-0.67118 -5.32936,-1.21821 -8.64554,-2.59098 -11.98211,-6.71286 -1.57169,-1.94127 -3.63496,-5.47426 -4.54012,-11.279808 l -2.12086,0.330222 c 0.97886,6.277806 3.255,10.153896 4.99233,12.300166 3.71081,4.58413 7.49245,6.15653 13.17242,7.45488 1.05722,0.24185 2.31908,0.46117 3.65535,0.69336 4.88966,0.85042 11.58606,2.01461 13.74986,5.41451 2.89831,4.55479 3.02066,8.83444 0.46761,16.35479 -1.2912,3.80418 -4.87821,7.15042 -7.81229,9.04947 l -21.09777,-5.01738 -10.26445,16.04711 4.31257,1.02573 8.30137,7.87418 27.30116,6.12719 c 2.05646,0.78245 4.52831,1.39137 7.47992,1.67866 l 0.019,0.004 -0.002,-0.003 c 0.71233,0.0687 1.44468,0.12415 2.21461,0.15277 15.39668,0.57887 25.44432,-11.63794 27.17951,-13.44504 1.73448,-1.8071 8.39689,-11.83292 9.75821,-24.16887 0.39069,-3.54087 1.37027,-16.40024 -3.15912,-22.66302"
       style="fill:#ffffff;fill-opacity:1;fill-rule:nonzero;stroke:none;stroke-width:0.35777116"
       id="path44" />
    <path
       d="m 288.63331,202.9203 -0.0505,-0.0129 -0.0494,-0.0104 c -0.17101,-0.0358 -17.18554,-3.69792 -23.25298,-14.12087 -0.0923,-0.15885 -0.18389,-0.31877 -0.27477,-0.47977 L 275.64471,186.91 c 0.92126,-0.11985 1.74234,-0.67547 2.19599,-1.48582 0.45437,-0.81071 0.4991,-1.80102 0.12022,-2.64894 l -18.77584,-42.03132 c 3.2729,-18.83057 11.21506,-30.08569 13.58458,-33.1017 0.22611,-0.28765 0.51411,-0.70195 0.91267,-1.27545 2.31013,-3.32441 8.44662,-12.155996 17.58195,-16.947983 0.13166,-0.06869 2.41782,-1.255776 3.62923,-1.88438 l 3.21171,0.860439 1.50443,0.403208 0.84971,-1.305149 0.7642,-1.173131 c 0.40106,-0.04222 0.80319,-0.07513 1.20282,-0.09839 l 0.18712,-0.01073 c 0.50946,-0.0297 1.08726,-0.06368 1.7842,-0.06368 2.54984,0 5.73758,0.490862 9.74497,1.50085 4.04496,1.01929 13.59853,3.471812 21.21047,5.429178 -17.8374,1.739125 -30.4635,18.514658 -32.31139,20.866288 -1.8715,2.38168 -10.71883,14.29188 -14.12195,34.70845 -3.40276,20.41764 -0.16994,37.43145 6.46565,48.83111 2.28365,3.92296 4.8893,6.91894 7.6792,9.16861 z m 58.59505,-87.27363 -16.24818,-4.11651 c 1.16168,-0.29874 2.2375,-0.45187 3.19776,-0.47941 5.12185,-0.14633 9.11136,0.0891 13.05042,4.59592 m 1.28189,61.61428 c -1.83608,3.35768 -6.08139,10.24836 -11.26979,12.90588 -6.97582,3.57306 -9.52816,3.9133 -12.08014,4.0836 -2.55199,0.16958 -9.35823,-0.3406 -13.61141,-5.78516 -4.25354,-5.44456 -6.80588,-11.7399 -7.31606,-17.5247 -0.10984,-1.24684 -0.29874,-3.08149 -0.44614,-5.34189 z m 9.4609,4.08968 -8.42587,-6.03846 -45.88057,-11.96422 c -0.36207,-8.35825 0.15921,-20.90529 6.0127,-31.88028 5.57551,-10.45443 12.18104,-16.06822 17.70717,-18.63451 l 21.63084,5.48141 0.1127,-0.15098 c 0.007,0.0114 0.0147,0.0218 0.0222,0.0329 l 7.18906,-9.73281 0.008,-0.0107 3.86214,-5.22883 c 0,0 -3.86536,-7.493514 -14.86826,-9.707402 -0.0866,-0.07155 -0.18568,-0.132733 -0.30983,-0.164932 -6.29749,-1.622135 -24.33702,-6.26672 -30.36404,-7.785816 -5.18518,-1.306223 -8.23732,-1.565607 -10.26982,-1.565607 -0.84935,0 -1.52017,0.04508 -2.09439,0.07835 -0.69515,0.03971 -1.37957,0.105542 -2.05397,0.195343 -0.34346,0.04579 -0.61679,0.311619 -0.68012,0.652575 l -0.90874,1.394949 -4.01634,-1.076175 c 0,0 -4.19701,2.178468 -4.37661,2.272204 -11.06551,5.804838 -17.77085,16.997351 -19.1862,18.798371 -1.86398,2.37238 -10.64798,14.19708 -14.08044,34.46446 -0.0268,0.15849 -0.006,0.32306 0.0594,0.46975 l 18.94041,42.40089 c 0.22074,0.49373 -0.097,1.06044 -0.63326,1.13056 l -12.56277,1.6368 c -0.55562,0.0726 -0.86867,0.67512 -0.61394,1.17385 0.39677,0.77744 0.80892,1.53198 1.23431,2.26326 6.63558,11.40002 24.67083,15.14302 24.67083,15.14302 l 21.70741,5.612 c 3.38702,1.36204 6.87099,1.94842 10.25264,2.01497 8.67703,0.1703 22.28843,-4.42348 30.79587,-14.46219 8.50709,-10.03834 10.20829,-14.63212 10.20829,-14.63212 z"
       style="fill:#ffffff;fill-opacity:1;fill-rule:nonzero;stroke:none;stroke-width:0.35777116"
       id="path48" />
    <path
       d="m 171.84199,9.7207203 -28.96766,-8.1110302 8.42372,-2.24072083 28.81811,7.57652003 z M 170.14329,119.2334 151.00683,113.81925 138.68626,93.950787 V 42.008853 3.29837 l 32.36649,9.003312 z M 216.7734,92.662095 187.04226,100.46866 187.13814,84.677 Z M 187.15138,82.457388 187.6104,6.6964806 151.29483,-2.8513586 137.64264,0.78001876 136.53964,1.0733911 V 2.0654906 42.008853 94.562218 l 13.08154,21.095972 22.64513,6.40661 48.68586,-12.88191 V 95.991156 91.565169 Z"
       style="fill:#ffffff;fill-opacity:1;fill-rule:nonzero;stroke:none;stroke-width:0.35777116"
       id="path52" />
    <path
       id="path54"
       style="fill:#ffffff;fill-opacity:1;fill-rule:nonzero;stroke:none;stroke-width:0.35777116"
       d="m 327.85086,170.4824 h 2.14663 v -60.30841 h -2.14663 z" />
    <path
       d="M 380.31006,175.81495 V 142.5916 l 29.9501,40.95478 z m -37.9495,-98.938397 34.16643,9.669124 -10.68341,3.282908 -34.45515,-9.956772 z m 38.01211,-8.35503 32.04091,9.418326 -32.02875,56.343231 -0.0748,-0.0218 V 88.626116 l 0.009,-0.0032 0.009,-2.058615 0.53308,-2.026774 -2.07544,-0.546317 -6.17548,-1.626785 z m 16.97481,-6.546497 33.39222,9.838707 -0.0336,0.04615 -11.03366,2.977371 -4.53153,1.303361 -30.77154,-9.226203 z m 18.1898,125.150504 19.94753,-5.32185 -39.11655,-49.30731 36.24222,-59.60503 1.65791,-2.275783 -37.00821,-10.904507 -18.31752,6.971887 -8.86414,15.807046 -27.70795,-7.841629 -14.52515,3.965178 0.005,1.341284 v 9.825112 h 2.14663 v -8.044843 l 33.75857,9.72923 0.0408,1.754509 1.27939,54.682466 0.22182,50.51192 -26.21139,-6.73326 -0.53379,2.07866 26.93587,6.92001 c 0.13095,0.0336 0.26332,0.0501 0.39427,0.0501 0.14525,0 0.28836,-0.025 0.42718,-0.0651 v 0.0107 l 13.99994,-4.11723 V 178.0317 l 35.22686,9.09383 z"
       style="fill:#ffffff;fill-opacity:1;fill-rule:nonzero;stroke:none;stroke-width:0.35777116"
       id="path58" />
    <path
       d="m 106.43519,115.75025 0.34418,-1.2962 34.59683,-9.15787 6.54757,21.16431 z m -24.361712,27.80132 -5.77228,-1.54771 6.440954,-9.34105 1.227871,-1.78063 -1.790287,-1.21463 -9.705974,-6.58335 -0.305895,-0.20751 -0.357771,-0.0934 -21.47915,-5.6002 17.350113,-51.994523 0.0068,-0.02111 0.0068,-0.02075 0.03399,-0.109836 2.1316,0.545959 0.914463,0.234698 0.790675,-0.515906 c 1.129125,-0.735935 1.463999,-2.166305 0.761695,-3.256076 l -0.02326,-0.03685 -0.02504,-0.03542 -2.390269,-3.400258 13.329481,-39.946582 32.871666,8.648045 z M 94.209791,14.892053 127.57839,23.10147 118.82051,25.586906 86.065488,17.057642 Z m 39.131939,75.538374 -21.61832,5.869593 2.76557,-10.445845 z m 3.02567,-1.474733 -21.32924,-5.176949 9.58433,-36.20358 z m -3.87466,-63.488999 -1.02108,-3.617782 -37.282619,-9.172895 -12.343464,3.283266 -14.336248,42.96152 3.013149,4.287172 c 0.09624,0.148833 -0.129513,0.295519 -0.129513,0.295519 l -4.108287,-1.052205 -0.640052,2.0579 -18.076389,54.17156 23.700194,6.18014 9.706689,6.58335 -8.167558,11.84545 10.737429,2.87862 15.941567,-4.23959 6.397662,-24.1034 42.78478,11.0444 16.11151,-4.40917 z"
       style="fill:#ffffff;fill-opacity:1;fill-rule:nonzero;stroke:none;stroke-width:0.35777116"
       id="path62" />
    <path
       d="m 382.93535,63.184792 -30.86492,-8.332848 -0.0479,-0.01288 -0.0483,-0.01073 -4.99627,-1.10444 1.99994,-64.54335 34.04228,73.74594 z m -49.34738,-97.59282 -28.93367,-7.86059 13.35345,-3.470023 28.01599,8.072749 -11.29591,2.959483 z m -3.80167,110.401386 -23.01578,-6.21377 4.86211,-95.177864 0.0894,-1.752006 -1.69941,-0.436838 -9.14535,-2.349126 0.26332,-11.062284 31.97365,8.686326 z m 26.48114,-130.231926 35.33492,9.557499 -2.70726,81.654114 -33.10027,-71.083407 z m 13.89119,-3.593096 32.25664,8.809757 -8.82943,2.653589 -33.45053,-9.047675 z m 35.83149,7.560778 -35.79822,-9.776813 -14.37382,3.463941 -0.58674,-0.158493 -0.0869,0.320563 -0.97886,0.236487 -0.43434,18.506429 -35.69411,-10.285205 -18.9955,4.935811 -0.35133,14.746254 10.7986,2.774158 -4.95048,96.908045 27.31047,7.373306 14.4629,-3.537999 0.59891,-19.328229 4.60022,1.016785 32.83015,8.863065 18.19589,-4.258192 3.26037,-111.414236 z"
       style="fill:#ffffff;fill-opacity:1;fill-rule:nonzero;stroke:none;stroke-width:0.35777116"
       id="path66" />
    <path
       d="m 150.63986,235.25738 v -28.60273 l 36.45223,-9.70633 v 47.53598 l -0.35705,0.22539 z m -2.1706,-88.77555 0.024,-0.0365 m -36.322,-9.78647 33.74641,9.38827 -9.69989,2.71047 -35.8222,-8.96682 z m 74.92086,0.25795 v 42.68353 l -0.65544,0.17173 -35.79679,-9.74926 v -42.32076 l 0.98673,-0.26224 z m -22.67232,-12.87976 32.62766,8.82442 -8.22086,2.29689 -33.03266,-8.82728 z m -13.77991,65.12043 v -16.9097 l 31.63448,8.61549 z m 50.45217,-57.42585 v 0 l -36.6676,-9.91706 -12.79641,3.40348 -2.68185,-0.71662 -0.41179,1.53913 -0.0411,0.0114 v 0.1449 l -0.10125,0.37852 0.10125,0.0268 v 17.93363 l -36.30948,-10.10202 -17.010943,4.52473 v 36.57924 h 2.146627 v -34.30847 l 0.554903,0.14311 36.595343,9.16037 v 107.83259 l -0.0168,0.005 -37.133426,-9.69488 v -10.45121 h -2.146627 v 12.10948 l 39.296873,10.25909 v 0.0322 l 13.99958,-4.11758 0.024,-19.59298 38.59886,10.10775 h 3.6e-4 l 13.99958,-4.11759 z"
       style="fill:#ffffff;fill-opacity:1;fill-rule:nonzero;stroke:none;stroke-width:0.35777116"
       id="path70" />
    <path
       d="m 243.3501,189.7984 24.81608,-6.7379 -11.917,-41.9866 z"
       style="fill:none;stroke:#ffffff;stroke-width:0.35777116;stroke-linecap:butt;stroke-linejoin:miter;stroke-miterlimit:10;stroke-dasharray:none;stroke-opacity:1"
       id="path74" />
    <path
       d="m 238.06178,209.24874 0.34418,-1.2962 29.55869,-7.8241 5.15513,-0.95668 6.43058,20.78722 z m -45.68416,22.08414 3.34051,-31.54361 0.14204,-1.33806 -1.14201,-0.71054 -6.9769,-4.34227 27.1323,-81.35752 32.89205,8.56433 -34.06518,116.44485 z m 33.52137,-122.69762 30.47745,7.47527 -6.91893,1.95987 -30.65241,-7.54826 z m 21.41475,66.19017 8.93498,-33.75178 11.18536,39.40707 z m 20.80797,8.07811 -24.77171,6.89497 3.41421,-12.89729 z M 262.997,115.52378 h -3.6e-4 l -37.11911,-9.1042 -11.90842,3.16771 -0.49694,-0.12987 -0.60392,1.81175 -7.2e-4,10e-4 v 3.6e-4 l -27.69864,83.05479 8.41478,5.23741 -3.53407,33.36788 25.12198,6.73576 15.94157,-4.23959 6.39802,-24.1034 42.78442,11.0444 16.11151,-4.40917 z"
       style="fill:#ffffff;fill-opacity:1;fill-rule:nonzero;stroke:none;stroke-width:0.35777116"
       id="path78" />
    <path
       d="m 262.14357,76.276641 -6.55043,-2.842134 26.80207,-91.12861 0.61214,-2.081871 -2.08795,-0.589607 -17.34546,-4.900391 v -4.705049 l 33.36717,8.22659 0.57208,107.772125 z m 15.22781,-109.924119 28.61168,7.252737 -7.54682,2.398498 -0.72485,0.230763 -29.83633,-7.356133 z m 36.43005,7.020186 -36.44293,-9.238009 -13.81748,3.675025 -0.7159,-0.176381 -0.0966,0.392833 -1.30122,0.345607 v 7.986526 l 18.90892,5.341523 -27.33765,92.948592 8.42873,3.657495 38.24717,10.54459 v -0.0018 0.0018 L 313.67442,84.73292 V -26.440535 l -1.38564,0.294088 z"
       style="fill:#ffffff;fill-opacity:1;fill-rule:nonzero;stroke:none;stroke-width:0.35777116"
       id="path82" />
    <path
       d="m 221.66931,96.535075 -0.0139,-4.266779 -0.006,-1.641096 -1.58457,-0.425032 -16.62705,-4.461407 -20.24019,-67.741467 0.84255,-10.3592638 0.14347,-1.7584453 -1.69799,-0.4808445 -3.52619,-0.9988971 -3.08864,-10.7978917 31.08495,7.4691887 0.11306,0.3806686 29.50145,99.3101211 z m -32.73892,-107.248706 28.20596,7.0319925 -8.59975,2.4607501 -0.88584,0.25330198 -29.08572,-6.98905978 z m 46.75604,-12.374947 31.69781,7.872755 -9.84622,47.817905 -11.03474,43.883497 -18.70499,-71.3120233 z m 11.38964,-3.312245 27.43497,7.391194 -5.40771,1.399601 -1.20176,0.311261 -28.46463,-7.070274 z m 36.0501,6.638086 -0.8125,-0.199279 -1.34307,0.469396 -33.89131,-9.13032 -11.96065,3.181301 -0.12772,-0.03148 -0.0172,0.07012 -0.93951,0.249725 -7.31606,26.2103156 -1.28047,-4.8814298 v -3.578e-4 l -36.52486,-9.105634 -14.73552,3.9193831 -0.27047,-0.064756 -0.0351,0.1463284 -0.89014,0.2364867 0.45294,1.5827797 -0.0293,0.1216422 0.0683,0.0161 3.75087,13.1141022 4.67643,1.3244689 -0.87583,10.7613988 20.69921,69.275948 17.78445,4.771951 0.0197,5.88319 20.21192,5.736147 16.70219,-4.533679 26.47471,-118.329236 z"
       style="fill:#ffffff;fill-opacity:1;fill-rule:nonzero;stroke:none;stroke-width:0.35777116"
       id="path86" />
    <path
       d="m 8.6354362,149.74935 -0.050446,-0.0129 -0.050804,-0.0104 c -0.1710147,-0.0358 -17.1680074,-3.66965 -23.2511912,-14.12087 -3.27933,-5.63274 -5.605201,-12.64077 -6.72896,-20.26702 -1.24397,-8.44662 -1.067231,-17.57479 0.525566,-27.131216 C -17.71942,69.000357 -9.6312872,57.529498 -7.2281383,54.47127 -7.1580153,54.38183 -7.07215,54.271633 -6.9719741,54.142478 2.4417017,42.000838 13.517582,34.975643 24.214582,34.360634 l 0.187114,-0.01073 c 0.509466,-0.03005 1.087267,-0.06368 1.784205,-0.06368 2.549835,0 5.737576,0.490862 9.744971,1.50085 3.920814,0.988164 13.023944,3.324052 20.610124,5.274978 C 39.390519,43.457324 27.32898,59.479391 25.526171,61.773419 23.65467,64.15546 14.807347,76.065304 11.404585,96.482232 c -3.4027615,20.417288 -0.170299,37.431088 6.465283,48.831118 2.112996,3.62923 4.502192,6.46242 7.056678,8.64768 z M 69.5424,63.28214 53.769343,59.285479 c 1.045049,-0.248294 2.017829,-0.379596 2.892937,-0.40464 5.048509,-0.144181 8.996156,0.08014 12.88012,4.401301 m 1.644316,61.5556 c -1.602457,3.12585 -5.59089,9.91492 -11.461914,13.15918 -6.733969,3.7219 -9.527805,3.91331 -12.080144,4.08325 -2.55234,0.1703 -9.112074,-0.54131 -13.611404,-5.78445 -5.310398,-6.18872 -6.805523,-11.7399 -7.315705,-17.5247 -0.115202,-1.303 -0.315912,-3.24928 -0.46546,-5.651 z m 9.345341,4.39701 v 0 L 71.974886,123.1945 26.151555,111.2453 C 25.784124,102.88705 26.293232,90.301735 32.161753,79.298125 37.809171,68.709529 44.513087,63.085724 50.081795,60.565942 l 21.552851,5.461019 11.059422,-14.972366 c 0,0 -4.660327,-9.035511 -18.31681,-10.192543 -7.638415,-1.967026 -22.549959,-5.803048 -27.921536,-7.156854 -5.184819,-1.306581 -8.237323,-1.565607 -10.269821,-1.565607 -0.848991,0 -1.519812,0.04508 -2.094392,0.07799 -18.2259372,1.047912 -31.1357521,18.545427 -33.0079686,20.927467 -1.8711434,2.382398 -10.7188244,14.292243 -14.1212284,34.70917 -3.403119,20.416932 -0.170299,37.431452 6.465283,48.830762 6.635582,11.39966 24.6704689,15.14302 24.6704689,15.14302 l 22.2945101,5.76369 c 3.970187,1.9749 8.131781,2.78525 12.14812,2.86396 8.677025,0.1703 22.288429,-4.42348 30.795512,-14.46182 8.507083,-10.03871 10.208642,-14.63249 10.208642,-14.63249 z"
       style="fill:#ffffff;fill-opacity:1;fill-rule:nonzero;stroke:none;stroke-width:0.35777116"
       id="path90" />
    <path
       d="M -2.9575304,296.68676 578.6843,143.73923"
       style="fill:none;stroke:#efcc0c;stroke-width:1.43108463;stroke-linecap:butt;stroke-linejoin:miter;stroke-miterlimit:10;stroke-dasharray:7.1554234, 7.1554234, 7.1554234, 7.1554234, 7.1554234, 7.1554234;stroke-dashoffset:0;stroke-opacity:1"
       id="path94" />
    <path
       d="M -29.393457,283.04498 96.089414,250.0481"
       style="fill:none;stroke:#efcc0c;stroke-width:1.43108463;stroke-linecap:butt;stroke-linejoin:miter;stroke-miterlimit:10;stroke-dasharray:7.1554234, 7.1554234, 7.1554234, 7.1554234, 7.1554234, 7.1554234;stroke-dashoffset:0;stroke-opacity:1"
       id="path98" />
    <path
       d="M -124.09101,71.097688 471.40264,-88.283286"
       style="fill:none;stroke:#efcc0c;stroke-width:1.43108463;stroke-linecap:butt;stroke-linejoin:miter;stroke-miterlimit:10;stroke-dasharray:7.1554234, 7.1554234, 7.1554234, 7.1554234, 7.1554234, 7.1554234;stroke-dashoffset:0;stroke-opacity:1"
       id="path102" />
    <path
       d="M -121.60164,200.33762 464.41645,43.791982"
       style="fill:none;stroke:#efcc0c;stroke-width:1.43108463;stroke-linecap:butt;stroke-linejoin:miter;stroke-miterlimit:10;stroke-dasharray:7.1554234, 7.1554234, 7.1554234, 7.1554234, 7.1554234, 7.1554234;stroke-dashoffset:0;stroke-opacity:1"
       id="path106" />
    <path
       d="M -65.23,203.54536 520.78844,46.999722"
       style="fill:none;stroke:#efcc0c;stroke-width:1.43108463;stroke-linecap:butt;stroke-linejoin:miter;stroke-miterlimit:10;stroke-dasharray:7.1554234, 7.1554234, 7.1554234, 7.1554234, 7.1554234, 7.1554234;stroke-dashoffset:0;stroke-opacity:1"
       id="path110" />
    <path
       d="M -78.764483,79.527671 562.91385,-93.426068"
       style="fill:none;stroke:#efcc0c;stroke-width:1.43108463;stroke-linecap:butt;stroke-linejoin:miter;stroke-miterlimit:10;stroke-dasharray:7.1554234, 7.1554234, 7.1554234, 7.1554234, 7.1554234, 7.1554234;stroke-dashoffset:0;stroke-opacity:1"
       id="path114" />
    <path
       d="m 60.81586,127.68006 c -5.037418,2.57989 -6.880297,2.82532 -8.723177,2.94839 -1.842879,0.12308 -6.579769,-0.39104 -9.828689,-4.17733 -3.834592,-4.46857 -4.914345,-8.47703 -5.282849,-12.65437 -0.368505,-4.17698 -1.965953,-17.445638 3.931189,-28.503272 5.8975,-11.057275 13.391733,-14.620318 17.691785,-14.743392"
       style="fill:none;stroke:#efcc0c;stroke-width:1.43108463;stroke-linecap:butt;stroke-linejoin:miter;stroke-miterlimit:10;stroke-dasharray:7.1554234, 7.1554234, 7.1554234, 7.1554234, 7.1554234, 7.1554234;stroke-dashoffset:0;stroke-opacity:1"
       id="path118" />
    <path
       d="m 61.266581,125.59912 3.471096,-0.32665 -1.878299,3.40742 z"
       style="fill:#efcc0c;fill-opacity:1;fill-rule:nonzero;stroke:none;stroke-width:0.35777116"
       id="path122" />
    <path
       d="m 60.933961,68.817255 3.187026,1.733044 -3.30509,1.733043 z"
       style="fill:#efcc0c;fill-opacity:1;fill-rule:nonzero;stroke:none;stroke-width:0.35777116"
       id="path126" />
    <path
       id="path140"
       style="fill:#efcc0d;fill-opacity:1;fill-rule:nonzero;stroke:none;stroke-width:0.35777116"
       d="m 34.455388,206.38166 -6.092485,1.7631 0.04079,12.67368 2.000656,-0.57923 -0.0161,-4.94082 3.785577,-1.09549 -0.0086,-2.57775 -3.785219,1.0955 -0.0082,-2.57738 4.091829,-1.18423 z" />
    <path
       id="path144"
       style="fill:#efcc0d;fill-opacity:1;fill-rule:nonzero;stroke:none;stroke-width:0.35777116"
       d="m 43.167688,203.86085 -6.172268,1.78599 0.04079,12.67369 6.401241,-1.85218 -0.0086,-2.57739 -4.398081,1.2726 -0.0086,-2.57739 3.936557,-1.13914 -0.0079,-2.57738 -3.936557,1.13914 -0.0079,-2.36415 4.169465,-1.20641 z" />
    <path
       id="path148"
       style="fill:#efcc0d;fill-opacity:1;fill-rule:nonzero;stroke:none;stroke-width:0.35777116"
       d="m 49.4133,202.05381 -3.385946,0.97958 0.04079,12.67368 3.719031,-1.07617 c 0.401777,-0.11592 0.806058,-0.29194 1.211771,-0.53022 0.405712,-0.23505 0.771712,-0.53952 1.09478,-0.90588 0.325571,-0.37029 0.588891,-0.80605 0.793536,-1.3148 0.202856,-0.50518 0.30339,-1.09264 0.301243,-1.76167 -0.0014,-0.40607 -0.04937,-0.7735 -0.143824,-1.10587 -0.09624,-0.32879 -0.230762,-0.60607 -0.406785,-0.8218 -0.176382,-0.2186 -0.387824,-0.37745 -0.630393,-0.48085 -0.245073,-0.10303 -0.515906,-0.13917 -0.816076,-0.11484 v -0.0336 c 0.469753,-0.34096 0.846129,-0.78459 1.131272,-1.34128 0.284786,-0.55383 0.427179,-1.18745 0.424675,-1.90621 -0.0021,-0.6905 -0.103754,-1.21642 -0.300528,-1.57813 -0.198921,-0.36099 -0.455443,-0.6125 -0.773502,-0.75275 -0.315911,-0.14132 -0.673683,-0.19248 -1.071882,-0.15527 -0.397484,0.0379 -0.794967,0.11234 -1.188158,0.22611 m -1.368832,5.46889 -0.0089,-2.70403 1.360962,-0.39427 c 0.153484,-0.044 0.310903,-0.068 0.473331,-0.0748 0.164217,-0.004 0.309114,0.0222 0.437912,0.0812 0.129155,0.0587 0.233982,0.16171 0.314481,0.31198 0.08264,0.1499 0.123431,0.35526 0.124146,0.61823 0.0011,0.25079 -0.03399,0.47512 -0.106615,0.67618 -0.07263,0.19785 -0.167795,0.37101 -0.287291,0.5109 -0.119495,0.14311 -0.252586,0.25903 -0.403566,0.34919 -0.148475,0.0927 -0.299454,0.16099 -0.454727,0.20607 l -1.449688,0.41931 m 0.01682,5.24171 -0.0097,-2.88078 1.514445,-0.43827 c 0.162071,-0.0469 0.337379,-0.0791 0.526282,-0.0962 0.188903,-0.0207 0.364569,-0.006 0.526997,0.0429 0.162428,0.0487 0.298381,0.1492 0.405354,0.30411 0.107332,0.15527 0.161355,0.38138 0.162428,0.67869 7.16e-4,0.27549 -0.03828,0.51949 -0.120211,0.73236 -0.08121,0.21574 -0.185325,0.40106 -0.311261,0.55526 -0.128439,0.15814 -0.272621,0.28336 -0.430041,0.37566 -0.157777,0.0952 -0.315196,0.16243 -0.468322,0.20643 l -1.796011,0.51985" />
    <path
       id="path152"
       style="fill:#efcc0d;fill-opacity:1;fill-rule:nonzero;stroke:none;stroke-width:0.35777116"
       d="m 72.56753,195.56456 -2.000299,0.57852 0.02469,7.67991 c 0.0011,0.39355 -0.04222,0.77171 -0.132018,1.13271 -0.08765,0.35705 -0.213232,0.68513 -0.374586,0.97671 -0.161355,0.29158 -0.353836,0.53666 -0.575654,0.74023 -0.221461,0.20035 -0.46546,0.33917 -0.729496,0.41573 -0.266539,0.0773 -0.513401,0.0805 -0.73987,0.009 -0.227185,-0.0737 -0.421097,-0.20679 -0.58603,-0.40392 -0.162785,-0.19785 -0.29051,-0.45258 -0.379953,-0.75848 -0.09016,-0.30875 -0.137741,-0.66044 -0.139173,-1.05435 l -0.02504,-7.67956 -2.000298,0.57852 0.02504,7.78868 c 0.0025,0.74953 0.08694,1.41963 0.250797,2.00459 0.164217,0.58496 0.408217,1.06365 0.729138,1.43895 0.323783,0.37137 0.724487,0.61823 1.204616,0.74274 0.47834,0.12522 1.036105,0.0941 1.669002,-0.0891 0.623953,-0.18031 1.174205,-0.46975 1.652903,-0.87189 0.478698,-0.40213 0.877255,-0.88011 1.195313,-1.43752 0.320563,-0.56063 0.558481,-1.1785 0.720552,-1.85791 0.160281,-0.67905 0.237917,-1.39602 0.235413,-2.14555 l -0.02504,-7.78832" />
    <path
       id="path160"
       style="fill:#efcc0d;fill-opacity:1;fill-rule:nonzero;stroke:none;stroke-width:0.35777116"
       d="m 79.880127,193.23848 -1.653976,0.4787 -3.884679,13.80961 2.206732,-0.63898 0.748457,-2.90475 3.525835,-1.02 0.792463,2.45896 2.257894,-0.65293 -3.992726,-11.53061 m -1.962375,8.20226 1.090487,-4.25712 1.127337,3.61528 z" />
    <path
       id="path164"
       style="fill:#efcc0d;fill-opacity:1;fill-rule:nonzero;stroke:none;stroke-width:0.35777116"
       d="m 89.28314,190.51781 -3.514744,1.01714 0.04079,12.67369 2.002803,-0.57959 -0.01646,-5.06532 0.988164,-0.28586 1.914434,4.51614 2.397782,-0.69407 -2.326228,-4.6818 c 0.641126,-0.35276 1.12841,-0.89085 1.459349,-1.61605 0.330938,-0.72234 0.495155,-1.52947 0.491935,-2.42462 -0.0018,-0.74022 -0.09481,-1.3309 -0.28085,-1.77311 -0.185683,-0.4422 -0.436123,-0.76384 -0.747742,-0.96813 -0.314123,-0.20035 -0.678692,-0.30303 -1.091918,-0.31019 -0.41573,-0.004 -0.85543,0.0583 -1.317313,0.19177 m -1.495483,5.68248 -0.0089,-2.88113 1.307654,-0.37852 c 0.179601,-0.0519 0.364211,-0.0866 0.55061,-0.10626 0.189261,-0.0175 0.355624,0.002 0.502668,0.0619 0.14454,0.0605 0.265109,0.17173 0.360991,0.33273 0.09409,0.16529 0.14132,0.40893 0.142393,0.73093 0.0011,0.34739 -0.05116,0.62896 -0.157419,0.85185 -0.1059,0.22289 -0.24078,0.40142 -0.40285,0.53845 -0.161713,0.13666 -0.343461,0.24221 -0.545244,0.31877 -0.199994,0.0737 -0.391044,0.1381 -0.570645,0.19033 l -1.179213,0.34096" />
    <path
       id="path168"
       style="fill:#efcc0d;fill-opacity:1;fill-rule:nonzero;stroke:none;stroke-width:0.35777116"
       d="m 102.27821,186.7577 -2.371307,0.68621 -2.024985,5.33651 -1.940193,-4.18914 -2.489014,0.72019 3.436034,6.28032 0.01717,5.40592 2.002803,-0.57923 -0.01753,-5.40628 z" />
    <path
       id="path172"
       style="fill:#ffffff;fill-opacity:1;fill-rule:nonzero;stroke:none;stroke-width:0.35777116"
       d="m 31.113197,228.52749 c -0.394979,0.11413 -0.75919,0.28479 -1.096211,0.51269 -0.339525,0.23112 -0.636117,0.51876 -0.89729,0.8701 -0.259026,0.34811 -0.477624,0.75561 -0.651859,1.21821 -0.173877,0.46259 -0.289795,0.98315 -0.345965,1.56059 l 1.332698,-0.22432 c 0.07585,-0.6329 0.258311,-1.16311 0.548105,-1.59101 0.289795,-0.43111 0.655795,-0.71089 1.102293,-0.84004 0.212516,-0.0615 0.417519,-0.0712 0.608569,-0.0336 0.193554,0.0404 0.360633,0.12879 0.503026,0.25759 0.140604,0.13309 0.252229,0.31484 0.335232,0.5388 0.0805,0.2279 0.123431,0.49731 0.124504,0.80749 0.0011,0.26332 -0.02719,0.52271 -0.08157,0.77708 -0.0551,0.25438 -0.129871,0.50267 -0.222175,0.74345 -0.09266,0.24364 -0.20071,0.47942 -0.317701,0.71197 -0.119496,0.22969 -0.243285,0.44864 -0.371367,0.65329 l -3.627084,6.10071 0.0057,1.82463 5.952239,-1.72231 -0.0043,-1.50228 -4.567307,1.32125 2.975225,-4.89216 c 0.206077,-0.33201 0.400346,-0.67082 0.588176,-1.01035 0.187472,-0.34274 0.35312,-0.69443 0.496587,-1.05829 0.145613,-0.36492 0.261888,-0.74237 0.349542,-1.13055 0.0898,-0.39212 0.133091,-0.79533 0.13166,-1.21356 -0.0014,-0.58245 -0.07871,-1.07188 -0.228974,-1.46543 -0.15241,-0.38997 -0.357771,-0.69658 -0.618586,-0.91232 -0.262962,-0.21895 -0.567783,-0.35061 -0.914463,-0.39891 -0.347038,-0.0487 -0.715542,-0.0165 -1.108733,0.0973" />
    <path
       id="path180"
       style="fill:#ffffff;fill-opacity:1;fill-rule:nonzero;stroke:none;stroke-width:0.35777116"
       d="m 47.377796,231.74081 -3.155184,0.91303 0.0047,1.50264 3.155542,-0.91303 z" />
    <path
       id="path184"
       style="fill:#ffffff;fill-opacity:1;fill-rule:nonzero;stroke:none;stroke-width:0.35777116"
       d="m 52.509916,222.33636 c -0.393191,0.11377 -0.75919,0.28479 -1.095853,0.51269 -0.337378,0.23076 -0.636475,0.51912 -0.897648,0.87045 -0.258669,0.34776 -0.47512,0.7549 -0.649355,1.2175 -0.174234,0.46295 -0.290152,0.98315 -0.348111,1.56131 l 1.334486,-0.22504 c 0.0737,-0.63254 0.256522,-1.16275 0.545959,-1.59065 0.290153,-0.43111 0.657941,-0.7116 1.102293,-0.83969 0.212874,-0.0619 0.417519,-0.0712 0.611073,-0.0343 0.19105,0.0408 0.358129,0.12915 0.500522,0.25831 0.142751,0.13237 0.254376,0.31412 0.335232,0.5388 0.083,0.22719 0.123431,0.4973 0.124504,0.80713 0.0011,0.26332 -0.02469,0.52199 -0.08157,0.77708 -0.0551,0.25474 -0.127366,0.50231 -0.222175,0.74381 -0.09266,0.24328 -0.198563,0.4787 -0.317701,0.71196 -0.119138,0.22969 -0.242927,0.44865 -0.371009,0.65294 l -3.627442,6.10071 0.0057,1.82463 5.952597,-1.72231 -0.0047,-1.50228 -4.567307,1.32125 2.97773,-4.89252 c 0.203572,-0.33165 0.399988,-0.67082 0.585671,-1.00999 0.187472,-0.34238 0.353478,-0.69407 0.499091,-1.059 0.143109,-0.36385 0.259742,-0.74166 0.349542,-1.13056 0.08765,-0.3914 0.130587,-0.79461 0.129156,-1.21284 -0.0014,-0.58245 -0.0762,-1.07224 -0.228974,-1.46507 -0.149906,-0.39105 -0.357771,-0.69694 -0.618586,-0.91268 -0.262604,-0.21895 -0.565636,-0.35133 -0.912317,-0.39963 -0.34668,-0.0483 -0.717688,-0.0154 -1.110879,0.098" />
    <path
       id="path192"
       style="fill:#ffffff;fill-opacity:1;fill-rule:nonzero;stroke:none;stroke-width:0.35777116"
       d="m 73.420675,216.28606 c -0.395337,0.11449 -0.75919,0.28479 -1.096211,0.51269 -0.337378,0.23076 -0.636475,0.51912 -0.89729,0.87045 -0.259026,0.34776 -0.475478,0.7549 -0.649712,1.2175 -0.173877,0.46295 -0.289795,0.98315 -0.348112,1.56131 l 1.334844,-0.22504 c 0.07334,-0.63254 0.256165,-1.16275 0.545959,-1.59065 0.289795,-0.43111 0.657584,-0.7116 1.101935,-0.83969 0.212874,-0.0619 0.417877,-0.0712 0.608927,-0.0336 0.193196,0.0401 0.360633,0.12844 0.503026,0.2576 0.140604,0.13309 0.251871,0.31448 0.335232,0.5388 0.0805,0.22754 0.123431,0.4973 0.124504,0.80713 7.16e-4,0.26332 -0.02719,0.52271 -0.08157,0.77708 -0.0551,0.25474 -0.129871,0.50303 -0.222175,0.74381 -0.09266,0.24328 -0.198563,0.4787 -0.317701,0.71196 -0.119496,0.22969 -0.243285,0.44865 -0.371367,0.65294 l -3.627442,6.10107 0.0061,1.82427 5.952239,-1.72231 -0.0043,-1.50228 -4.567307,1.32125 2.975225,-4.8918 c 0.206077,-0.33237 0.400346,-0.67083 0.588176,-1.01071 0.187472,-0.34238 0.35312,-0.69407 0.498733,-1.059 0.143467,-0.36385 0.259742,-0.74166 0.347396,-1.12984 0.0898,-0.39212 0.133091,-0.79533 0.13166,-1.21356 -0.0014,-0.58245 -0.07871,-1.07153 -0.228974,-1.46507 -0.150264,-0.39069 -0.357771,-0.69694 -0.618586,-0.91268 -0.262962,-0.2186 -0.568141,-0.35061 -0.914463,-0.39891 -0.347038,-0.0487 -0.715542,-0.0161 -1.108733,0.0973" />
    <path
       id="path196"
       style="fill:#ffffff;fill-opacity:1;fill-rule:nonzero;stroke:none;stroke-width:0.35777116"
       d="m 81.462835,214.06466 c -0.426105,0.12343 -0.80105,0.33094 -1.120539,0.62181 -0.320921,0.28836 -0.597836,0.63182 -0.832176,1.02823 -0.23434,0.39677 -0.424317,0.83611 -0.573507,1.32304 -0.147402,0.48263 -0.265824,0.97886 -0.35312,1.48797 -0.08944,0.51268 -0.149906,1.02 -0.181748,1.53162 -0.03363,0.51233 -0.04758,0.99997 -0.04651,1.46471 0.0021,0.66903 0.04651,1.37277 0.133448,2.11014 0.08944,0.74023 0.249367,1.40389 0.482276,1.99386 0.232909,0.58996 0.554545,1.03968 0.962046,1.35273 0.407502,0.31019 0.932352,0.3753 1.571689,0.19033 0.641842,-0.18604 1.165261,-0.55419 1.570258,-1.09907 0.404997,-0.54846 0.722698,-1.18315 0.951671,-1.90656 0.228616,-0.72377 0.383889,-1.47867 0.465818,-2.26827 0.08408,-0.7871 0.123789,-1.51516 0.122,-2.1842 -0.0014,-0.46474 -0.02075,-0.94308 -0.05581,-1.43502 -0.0347,-0.49193 -0.09874,-0.96383 -0.191408,-1.42392 -0.09016,-0.45724 -0.2118,-0.88442 -0.363853,-1.28047 -0.150264,-0.39999 -0.344534,-0.72806 -0.58102,-0.98852 -0.236487,-0.26046 -0.514833,-0.44328 -0.835038,-0.54596 -0.320563,-0.1059 -0.696223,-0.0966 -1.124475,0.0275 m 0.03721,11.59858 c -0.426463,0.12343 -0.766703,0.0386 -1.020721,-0.25974 -0.254375,-0.29516 -0.44471,-0.68978 -0.574938,-1.18529 -0.130944,-0.49266 -0.214663,-1.02037 -0.256164,-1.58171 -0.04007,-0.56206 -0.06154,-1.05185 -0.06297,-1.47044 -7.16e-4,-0.28479 0.005,-0.61215 0.01717,-0.98172 0.01216,-0.36636 0.03971,-0.74631 0.08515,-1.1345 0.04758,-0.38889 0.11091,-0.7735 0.196417,-1.14844 0.083,-0.37745 0.19749,-0.72699 0.336305,-1.04934 0.141319,-0.32021 0.313765,-0.59319 0.517695,-0.81966 0.206076,-0.22683 0.447929,-0.38031 0.729853,-0.46224 0.281923,-0.0816 0.525923,-0.0683 0.733073,0.039 0.205003,0.10805 0.37888,0.28121 0.52163,0.51912 0.140962,0.24114 0.255091,0.52414 0.342745,0.85222 0.08586,0.32628 0.153484,0.67225 0.201425,1.0336 0.05009,0.36063 0.08014,0.72412 0.09481,1.08261 0.01431,0.36171 0.02182,0.68478 0.0229,0.96992 0.0014,0.41823 -0.01717,0.92019 -0.0551,1.50443 -0.03614,0.58424 -0.116275,1.15953 -0.243642,1.7266 -0.127009,0.56993 -0.316627,1.07475 -0.565994,1.51552 -0.252229,0.44507 -0.591038,0.72592 -1.019648,0.85006" />
    <path
       id="path200"
       style="fill:#ffffff;fill-opacity:1;fill-rule:nonzero;stroke:none;stroke-width:0.35777116"
       d="m 89.73733,211.56516 c -0.393191,0.11341 -0.75919,0.28479 -1.096211,0.51269 -0.33702,0.2304 -0.636117,0.51876 -0.894786,0.86938 -0.261173,0.34847 -0.477624,0.75561 -0.651859,1.21857 -0.174234,0.4626 -0.290152,0.9828 -0.348111,1.56095 l 1.334486,-0.22503 c 0.07585,-0.6329 0.256522,-1.1624 0.545959,-1.59065 0.289795,-0.43076 0.657941,-0.71125 1.102293,-0.83969 0.215021,-0.0623 0.417519,-0.0712 0.611073,-0.0344 0.19105,0.0411 0.359918,0.1288 0.500522,0.25831 0.142751,0.13238 0.254376,0.31412 0.335232,0.5388 0.083,0.22719 0.123789,0.49731 0.124862,0.80749 7.16e-4,0.26332 -0.02504,0.52199 -0.08014,0.77637 -0.05438,0.25437 -0.129155,0.50267 -0.221818,0.74345 -0.09445,0.24435 -0.200709,0.47977 -0.319847,0.71268 -0.119138,0.22969 -0.243285,0.44864 -0.368862,0.65257 l -3.627442,6.10071 0.0061,1.82464 5.950092,-1.7216 -0.0047,-1.50228 -4.56516,1.32054 2.975583,-4.89217 c 0.203572,-0.33129 0.399988,-0.67082 0.587818,-1.01034 0.185683,-0.34203 0.350973,-0.69372 0.496944,-1.05829 0.143109,-0.36421 0.259742,-0.74202 0.349542,-1.13056 0.08765,-0.3914 0.130587,-0.79461 0.129156,-1.21284 -0.0014,-0.58245 -0.07621,-1.0726 -0.228616,-1.46543 -0.150264,-0.39069 -0.355624,-0.6973 -0.618944,-0.91268 -0.262604,-0.21859 -0.565636,-0.35097 -0.912317,-0.39927 -0.34668,-0.0487 -0.717688,-0.0157 -1.110879,0.098" />
    <path
       id="path204"
       style="fill:#ffffff;fill-opacity:1;fill-rule:nonzero;stroke:none;stroke-width:0.35777116"
       d="m 97.781601,209.34304 c -0.428252,0.12379 -0.80105,0.33094 -1.122328,0.62216 -0.319132,0.28801 -0.596047,0.63147 -0.830029,1.02788 -0.23434,0.39677 -0.426106,0.83647 -0.573865,1.32268 -0.149549,0.48335 -0.267971,0.97994 -0.354909,1.48869 -0.0898,0.51268 -0.150264,1.02036 -0.182106,1.53197 -0.03113,0.51162 -0.04758,0.99962 -0.04579,1.46436 0.0018,0.66939 0.04615,1.37277 0.135237,2.10978 0.08694,0.74058 0.249009,1.40389 0.481918,1.9935 0.233267,0.59032 0.552398,1.04075 0.960258,1.3538 0.407501,0.30983 0.932351,0.37495 1.573835,0.18926 0.641841,-0.18568 1.164903,-0.55418 1.5699,-1.09907 0.40285,-0.54775 0.720908,-1.18243 0.949518,-1.90585 0.22898,-0.72377 0.38389,-1.47866 0.46833,-2.26862 0.0819,-0.7871 0.12378,-1.51516 0.122,-2.18455 -0.001,-0.46475 -0.0208,-0.94273 -0.0583,-1.43431 -0.0347,-0.49229 -0.0984,-0.96383 -0.1889,-1.42428 -0.0927,-0.45688 -0.21395,-0.88406 -0.36386,-1.28083 -0.15241,-0.39927 -0.344528,-0.72806 -0.581015,-0.98852 -0.236844,-0.2601 -0.514832,-0.44328 -0.837542,-0.54524 -0.320205,-0.1059 -0.695865,-0.0962 -1.122328,0.0272 m 0.03721,11.59858 c -0.428252,0.12415 -0.768492,0.0394 -1.022868,-0.25902 -0.252228,-0.29624 -0.444351,-0.68979 -0.574938,-1.18566 -0.12844,-0.49301 -0.214305,-1.02036 -0.254017,-1.58242 -0.0415,-0.56134 -0.06118,-1.05185 -0.06225,-1.47008 -0.0011,-0.28514 0.0047,-0.61215 0.01431,-0.98137 0.01216,-0.366 0.04222,-0.74666 0.08765,-1.1352 0.04544,-0.38819 0.110909,-0.77351 0.193912,-1.14738 0.08551,-0.37852 0.197848,-0.72735 0.336663,-1.0497 0.141319,-0.3202 0.313765,-0.59282 0.517337,-0.81929 0.206076,-0.22719 0.450076,-0.38139 0.732,-0.46296 0.281923,-0.0819 0.526281,-0.0687 0.731284,0.0394 0.20715,0.10769 0.381026,0.28085 0.521988,0.51912 0.142751,0.24042 0.25688,0.52378 0.342745,0.85257 0.08765,0.32521 0.155273,0.67118 0.203214,1.03253 0.04758,0.3617 0.07799,0.72484 0.0923,1.08333 0.01431,0.36206 0.02182,0.68513 0.0229,0.97027 0.0014,0.41824 -0.01717,0.91983 -0.05259,1.50372 -0.03613,0.58388 -0.11878,1.15989 -0.245789,1.72696 -0.127009,0.56993 -0.314481,1.07403 -0.566352,1.51587 -0.25187,0.44471 -0.591038,0.72592 -1.017501,0.84935" />
    <path
       d="m 16.34358,197.00974 0.357771,62.8976 95.519539,-26.03751 -0.35777,-62.53017 z"
       style="fill:none;stroke:#efcc0e;stroke-width:1.07331347;stroke-linecap:butt;stroke-linejoin:miter;stroke-miterlimit:10;stroke-dasharray:none;stroke-opacity:1"
       id="path218" />
    <path
       id="path188-3"
       style="fill:#ffffff;fill-opacity:1;fill-rule:nonzero;stroke:none;stroke-width:0.35777116"
       d="m 39.864768,226.5612 -1.090129,0.3152 -2.517635,3.64962 0.721266,0.99138 1.660416,-2.63248 0.03435,10.70344 1.232164,-0.35669 z" />
    <path
       id="path184-6"
       style="fill:#ffffff;fill-opacity:1;fill-rule:nonzero;stroke:none;stroke-width:0.35777116"
       d="m 60.175861,220.23761 c -0.393191,0.11377 -0.75919,0.28479 -1.095853,0.51269 -0.337378,0.23076 -0.636475,0.51912 -0.897648,0.87045 -0.258669,0.34776 -0.47512,0.7549 -0.649355,1.2175 -0.174234,0.46295 -0.290152,0.98315 -0.348111,1.56131 l 1.334486,-0.22504 c 0.0737,-0.63254 0.256522,-1.16275 0.545959,-1.59065 0.290153,-0.43111 0.657941,-0.7116 1.102293,-0.83969 0.212874,-0.0619 0.417519,-0.0712 0.611073,-0.0343 0.19105,0.0408 0.358129,0.12915 0.500522,0.25831 0.142751,0.13237 0.254376,0.31412 0.335232,0.5388 0.083,0.22719 0.123431,0.4973 0.124504,0.80713 0.0011,0.26332 -0.02469,0.52199 -0.08157,0.77708 -0.0551,0.25474 -0.127366,0.50231 -0.222175,0.74381 -0.09266,0.24328 -0.198563,0.4787 -0.317701,0.71196 -0.119138,0.22969 -0.242927,0.44865 -0.371009,0.65294 l -3.627442,6.10071 0.0057,1.82463 5.952597,-1.72231 -0.0047,-1.50228 -4.567307,1.32125 2.97773,-4.89252 c 0.203572,-0.33165 0.399988,-0.67082 0.585671,-1.00999 0.187472,-0.34238 0.353478,-0.69407 0.499091,-1.059 0.143109,-0.36385 0.259742,-0.74166 0.349542,-1.13056 0.08765,-0.3914 0.130587,-0.79461 0.129156,-1.21284 -0.0014,-0.58245 -0.0762,-1.07224 -0.228974,-1.46507 -0.149906,-0.39105 -0.357771,-0.69694 -0.618586,-0.91268 -0.262604,-0.21895 -0.565636,-0.35133 -0.912317,-0.39963 -0.34668,-0.0483 -0.717688,-0.0154 -1.110879,0.098" />
    <path
       id="path156-7"
       style="fill:#efcc0d;fill-opacity:1;fill-rule:nonzero;stroke:none;stroke-width:0.35777116"
       d="m 58.880648,199.31413 -3.514744,1.01679 0.04043,12.67404 2.000657,-0.57923 -0.01646,-5.06497 0.988164,-0.28586 1.914434,4.51579 2.397782,-0.69372 -2.326228,-4.68215 c 0.641126,-0.35276 1.128768,-0.89085 1.459706,-1.61605 0.330581,-0.72198 0.494798,-1.52912 0.492293,-2.42462 -0.0025,-0.74023 -0.09552,-1.33055 -0.281566,-1.77275 -0.185683,-0.44221 -0.433618,-0.76492 -0.747384,-0.96849 -0.313765,-0.20071 -0.676545,-0.30339 -1.092275,-0.31019 -0.415372,-0.004 -0.853285,0.0576 -1.314809,0.19141 m -1.49763,5.68284 -0.0093,-2.88113 1.307653,-0.37853 c 0.179959,-0.0519 0.364211,-0.0866 0.553114,-0.10697 0.186757,-0.0168 0.353479,0.003 0.500523,0.063 0.144539,0.0605 0.26475,0.17137 0.360633,0.33273 0.09409,0.16493 0.141677,0.40893 0.142751,0.73092 0.0011,0.34704 -0.05152,0.62896 -0.157777,0.85186 -0.105543,0.22289 -0.240423,0.40141 -0.402493,0.53808 -0.161713,0.13703 -0.343461,0.24221 -0.543454,0.31842 -0.201783,0.0737 -0.392834,0.13846 -0.572793,0.19069 L 57.38302,204.997" />
  </g>
  <path
     d="m 182.43667,330.19078 0.5168,-19.75456 4.07626,-1.13374 c 1.80075,-0.5007 3.21345,-0.16541 4.24168,1.00409 1.03271,1.16771 1.52894,3.02568 1.48423,5.57212 l -0.0867,3.20272 c -0.0688,2.59919 -0.65628,4.78977 -1.76677,6.57174 -1.10602,1.77035 -2.59919,2.9166 -4.47683,3.43519 z m 3.54427,-17.29575 -0.34334,13.12292 0.93256,-0.25661 c 1.03717,-0.28612 1.7766,-0.836 2.22098,-1.65232 0.4399,-0.82259 0.69562,-2.0976 0.76,-3.82324 l 0.0876,-3.43608 c 0.0492,-1.84366 -0.12071,-3.07396 -0.50339,-3.68554 -0.38447,-0.62051 -1.05952,-0.81633 -2.02606,-0.58386 z m 13.18819,12.93784 c -1.53788,0.42828 -2.72348,0.17167 -3.5559,-0.76626 -0.83152,-0.93971 -1.21867,-2.50531 -1.16235,-4.69589 l 0.0295,-1.16771 c 0.0581,-2.31665 0.5007,-4.21575 1.32329,-5.69283 0.82259,-1.48065 1.97063,-2.42305 3.44502,-2.83434 1.44132,-0.39967 2.50799,-0.10729 3.2054,0.87892 0.69741,0.97637 1.02555,2.62243 0.98174,4.93551 l -0.0483,1.88926 -5.96196,1.65322 c 0.0197,1.07472 0.18061,1.82131 0.50071,2.23439 0.31741,0.40772 0.82705,0.5168 1.51642,0.32188 1.0014,-0.27538 1.84902,-0.94776 2.54375,-2.01354 l 1.11675,1.99924 c -0.38268,0.75374 -0.92988,1.43058 -1.63802,2.03321 a 6.0960732,6.0960732 0 0 1 -2.2934,1.22673 z m -1.65411,-8.49766 2.99528,-0.82885 0.009,-0.35317 c 0.008,-0.87624 -0.0876,-1.50838 -0.28701,-1.90447 -0.20118,-0.39162 -0.56329,-0.5159 -1.08546,-0.37553 a 1.7748174,1.7748174 0 0 0 -1.16234,1.03986 c -0.24499,0.54541 -0.40236,1.35369 -0.46941,2.42305 z m 12.72146,-0.23247 2.94521,-15.07925 3.47095,-0.96653 -4.93104,21.03672 -3.24116,0.89591 -3.92517,-18.5645 3.45129,-0.96118 2.22634,13.63883 z m 6.5923,-4.20502 c 0.0483,-2.22903 0.50607,-4.09505 1.35548,-5.5918 0.84941,-1.49853 1.99745,-2.44629 3.44413,-2.84954 1.46188,-0.40503 2.58399,-0.0876 3.37349,0.95581 0.7904,1.04343 1.15699,2.69128 1.10245,4.94177 l -0.0197,0.93882 c -0.0483,2.24333 -0.50071,4.10846 -1.34296,5.59358 -0.84226,1.48423 -1.99388,2.42842 -3.45844,2.83434 -1.46724,0.40772 -2.59651,0.0966 -3.38422,-0.94061 -0.78325,-1.04611 -1.14715,-2.69128 -1.09261,-4.94177 z m 2.98366,0.13411 c -0.059,2.63049 0.45153,3.79552 1.5495,3.49063 1.00767,-0.27897 1.57543,-1.52626 1.70776,-3.74634 l 0.0483,-1.62103 c 0.0295,-1.34386 -0.0876,-2.29788 -0.3639,-2.85938 -0.27449,-0.57313 -0.67684,-0.78503 -1.20705,-0.6384 -0.50607,0.14038 -0.91379,0.57939 -1.21868,1.30988 -0.29685,0.72423 -0.46494,1.75693 -0.49624,3.09989 z m 13.13991,-0.73317 a 0.9611732,0.9611732 0 0 0 -0.35139,-0.79576 c -0.23247,-0.21459 -0.76446,-0.43991 -1.5942,-0.68132 -1.21868,-0.30221 -2.05647,-0.73317 -2.50531,-1.29199 -0.44169,-0.56508 -0.65092,-1.35906 -0.62767,-2.38371 a 6.0844497,6.0844497 0 0 1 1.15698,-3.48705 c 0.74748,-1.04611 1.71581,-1.73637 2.90856,-2.06719 1.25534,-0.34871 2.25317,-0.20833 2.98902,0.41308 0.73318,0.62767 1.08456,1.64517 1.05416,3.0534 l -2.99707,0.83153 c 0.0295,-1.19812 -0.34513,-1.69167 -1.12301,-1.47529 a 1.4001834,1.4001834 0 0 0 -0.79307,0.59905 2.0895457,2.0895457 0 0 0 -0.33083,1.14805 0.94507914,0.94507914 0 0 0 0.31741,0.77519 c 0.21906,0.1833 0.74659,0.39073 1.57543,0.61962 1.20706,0.2432 2.05378,0.65271 2.53661,1.23209 0.49176,0.56866 0.72423,1.42165 0.69741,2.55538 -0.0295,1.31703 -0.43991,2.47938 -1.22762,3.49242 -0.78682,1.01213 -1.8079,1.69166 -3.05788,2.03768 -0.84046,0.23247 -1.57632,0.23068 -2.20846,-0.009 a 2.8155669,2.8155669 0 0 1 -1.4726,-1.3519 4.6207841,4.6207841 0 0 1 -0.48283,-2.28893 l 2.84865,-0.78682 c -0.003,0.66611 0.10372,1.13552 0.32188,1.41001 0.2289,0.27092 0.59906,0.3353 1.1248,0.19135 0.80381,-0.22443 1.216,-0.80113 1.24014,-1.73906 z m 20.43946,-8.30096 c -0.12786,2.28625 -0.65986,4.13528 -1.59778,5.55245 a 6.6414831,6.6414831 0 0 1 -3.89566,2.8111 c -1.74352,0.48282 -3.06681,0.11623 -3.9654,-1.09708 -0.89143,-1.22494 -1.30719,-3.20361 -1.24282,-5.94139 l 0.0787,-3.33773 c 0.059,-2.72705 0.58833,-4.95966 1.58259,-6.69781 0.99246,-1.74889 2.34258,-2.86207 4.05034,-3.33773 1.68004,-0.46494 2.94074,-0.21638 3.78031,0.74926 0.84941,0.96833 1.30541,2.56611 1.37694,4.79961 l -3.12314,0.86461 c 0.004,-1.39214 -0.14485,-2.3095 -0.4417,-2.74851 -0.29148,-0.45153 -0.84762,-0.56508 -1.66573,-0.33619 -0.83153,0.23069 -1.43059,0.77073 -1.7927,1.62282 -0.36122,0.84226 -0.57313,2.12352 -0.63572,3.84827 l -0.0876,3.74634 c -0.0492,1.97331 0.0975,3.28051 0.41576,3.92516 0.33083,0.6393 0.912,0.84494 1.74353,0.61247 0.81901,-0.2271 1.38945,-0.6384 1.71223,-1.23209 0.32366,-0.60442 0.51858,-1.58616 0.59458,-2.94432 z m 1.44757,-1.63623 c 0.0483,-2.23529 0.49534,-4.10667 1.34296,-5.60699 0.84762,-1.50212 1.99388,-2.45435 3.44055,-2.85402 1.4592,-0.40592 2.58578,-0.0894 3.37886,0.96028 0.7904,1.04612 1.16235,2.70023 1.11317,4.95697 l -0.0197,0.94061 c -0.0483,2.24691 -0.49176,4.1174 -1.33044,5.60789 -0.84047,1.49049 -1.98851,2.43557 -3.45307,2.84149 -1.46992,0.40504 -2.59919,0.0876 -3.39138,-0.94776 -0.78324,-1.04969 -1.1534,-2.70291 -1.10065,-4.95786 z m 2.98634,0.1359 c -0.059,2.63764 0.45958,3.80446 1.55487,3.50225 1.01035,-0.27896 1.57543,-1.53162 1.70418,-3.75349 l 0.0393,-1.62729 c 0.0295,-1.34832 -0.0983,-2.30413 -0.36927,-2.87011 -0.27449,-0.57581 -0.67594,-0.78682 -1.20704,-0.64376 -0.50786,0.14306 -0.9138,0.58117 -1.21869,1.31882 -0.29505,0.72334 -0.45958,1.75604 -0.48729,3.10436 z m 11.11742,-10.91713 0.0581,1.34385 c 0.69204,-1.27858 1.59152,-2.07166 2.69128,-2.37656 1.14448,-0.32009 1.93756,0.12071 2.38193,1.31704 0.6849,-1.51106 1.63534,-2.43557 2.84687,-2.77176 2.0046,-0.55793 2.99528,0.94776 2.97024,4.51528 l -0.19849,9.6922 -2.99707,0.82706 0.19313,-9.44185 c 0.0197,-0.85478 -0.0581,-1.44042 -0.23694,-1.75604 -0.17526,-0.30937 -0.48283,-0.40772 -0.91915,-0.28433 -0.55793,0.15557 -0.98174,0.71082 -1.2768,1.67199 l 0.009,0.456 -0.20833,10.03018 -2.99887,0.82705 0.19939,-9.40966 c 0.0197,-0.84762 -0.0581,-1.43416 -0.2271,-1.75693 -0.1681,-0.3353 -0.47746,-0.43901 -0.92988,-0.31294 -0.51591,0.14305 -0.92988,0.61693 -1.24997,1.42164 l -0.228,10.73474 -2.99886,0.82705 0.31562,-14.77524 2.80573,-0.7752 z m 16.08245,-4.46789 0.0581,1.34296 c 0.69204,-1.27859 1.58884,-2.07167 2.68949,-2.37656 1.14447,-0.32009 1.93666,0.12071 2.38371,1.32329 0.68489,-1.51463 1.63266,-2.44093 2.84686,-2.77712 2.00461,-0.55882 2.99529,0.95044 2.97293,4.51975 l -0.18776,9.70472 -2.99975,0.82705 0.18597,-9.45436 c 0.0197,-0.85478 -0.059,-1.44132 -0.23783,-1.75604 -0.17525,-0.31294 -0.48282,-0.40861 -0.92184,-0.28702 -0.55882,0.15469 -0.98173,0.71261 -1.27679,1.67379 l 0.009,0.45957 -0.20028,10.04091 -2.99528,0.82705 0.18776,-9.42039 c 0.0197,-0.8503 -0.059,-1.43684 -0.228,-1.75961 -0.1672,-0.3353 -0.48014,-0.43901 -0.92988,-0.31563 -0.5159,0.14485 -0.93167,0.62052 -1.24908,1.42165 l -0.21995,10.74993 -2.99618,0.82706 0.30221,-14.79044 z m 18.63692,8.20797 c -0.64376,1.2607 -1.48512,2.03411 -2.53124,2.3247 -1.05147,0.28969 -1.84187,0.0402 -2.3694,-0.73497 -0.52395,-0.79129 -0.76983,-2.07971 -0.73317,-3.86704 l 0.18597,-9.59653 2.99529,-0.83153 -0.18777,9.6922 c -0.009,1.43863 0.34424,2.05825 1.07205,1.85708 0.68489,-0.19134 1.18917,-0.71082 1.5039,-1.56023 l 0.20564,-10.70971 3.01853,-0.84046 -0.28433,14.82263 -2.81646,0.77698 -0.0581,-1.33044 z m 8.03809,-15.62197 0.059,1.44399 c 0.69741,-1.34832 1.59421,-2.17538 2.68682,-2.47938 1.97063,-0.54809 2.94968,0.95849 2.94163,4.51528 l -0.18061,9.74585 -3.0069,0.83421 0.17614,-9.45616 c 0.0197,-0.84315 -0.068,-1.42164 -0.26377,-1.74084 -0.18329,-0.33082 -0.5159,-0.42917 -1.00766,-0.29505 -0.54273,0.152 -0.97101,0.63035 -1.29111,1.43594 l -0.19938,10.7714 -3.0087,0.82885 0.27897,-14.82174 z m 10.80538,11.76118 -3.0087,0.83153 0.27092,-14.83426 3.0069,-0.8351 z m -2.80484,-17.80271 c 0.009,-0.60174 0.16809,-1.13732 0.47209,-1.60404 a 2.0591458,2.0591458 0 0 1 1.19633,-0.90395 c 0.49176,-0.14038 0.88517,-0.059 1.17576,0.24498 0.2888,0.29953 0.42649,0.75106 0.41576,1.35548 a 3.0221074,3.0221074 0 0 1 -0.4712,1.60404 2.0206989,2.0206989 0 0 1 -1.19543,0.92005 c -0.5007,0.13948 -0.8968,0.0492 -1.18917,-0.2593 -0.27807,-0.30936 -0.41487,-0.76357 -0.40414,-1.35905 z m 9.32204,13.0648 c 0.86729,-0.23962 1.32329,-1.09261 1.36173,-2.55985 l 2.81825,-0.78235 c -0.0393,1.6246 -0.44884,3.03999 -1.22493,4.24704 -0.77163,1.20527 -1.75605,1.97242 -2.95058,2.30324 -1.47529,0.40861 -2.59025,0.12428 -3.34667,-0.84941 -0.75464,-0.97458 -1.11765,-2.61528 -1.09261,-4.92389 l 0.0197,-1.18023 c 0.0384,-2.33364 0.456,-4.21664 1.24014,-5.65259 0.79218,-1.43952 1.93665,-2.36583 3.4325,-2.78159 1.26339,-0.35139 2.24691,-0.1216 2.95773,0.69204 0.71082,0.80471 1.05416,2.13336 1.03539,3.98776 l -2.81646,0.78056 c 0.009,-0.82885 -0.0867,-1.44132 -0.28254,-1.83383 -0.19671,-0.38984 -0.532,-0.51948 -1.00767,-0.38805 a 1.6970295,1.6970295 0 0 0 -1.13374,1.03718 c -0.23247,0.53825 -0.36927,1.49943 -0.40861,2.88441 l -0.0286,1.51105 c -0.0197,1.20616 0.008,2.04037 0.0876,2.49816 0.0876,0.45153 0.23068,0.76 0.43812,0.92898 0.20833,0.16273 0.50517,0.18777 0.89411,0.0778 z m 11.23186,-0.16988 a 5.532781,5.532781 0 0 1 -0.23515,-1.08278 c -0.55256,1.09976 -1.28931,1.77661 -2.20667,2.03233 -0.96028,0.26376 -1.75336,0.0688 -2.37567,-0.57224 -0.61246,-0.6527 -0.90752,-1.62729 -0.88696,-2.93985 0.0295,-1.55576 0.43186,-2.86206 1.20706,-3.92695 0.78414,-1.06399 1.8982,-1.80611 3.33683,-2.22098 l 0.912,-0.25303 0.0197,-1.19633 c 0.009,-0.66879 -0.0688,-1.11585 -0.24141,-1.34117 -0.17167,-0.22353 -0.42918,-0.29059 -0.76626,-0.1967 -0.74926,0.20832 -1.13195,0.8798 -1.1534,2.01622 l -2.99529,0.82885 a 6.4090134,6.4090134 0 0 1 1.24461,-3.71952 c 0.81364,-1.11854 1.82668,-1.84724 3.03999,-2.18253 1.25891,-0.34871 2.22187,-0.19402 2.89156,0.46762 0.67596,0.65092 1.00141,1.76409 0.97638,3.33684 l -0.11981,6.99197 c -0.009,1.2768 0.11623,2.24065 0.37195,2.89157 l -0.003,0.23247 -3.02211,0.83421 z m -1.72296,-2.28447 a 1.8856876,1.8856876 0 0 0 0.8521,-0.49534 2.5053092,2.5053092 0 0 0 0.52931,-0.76268 l 0.0483,-3.08916 -0.71797,0.20117 a 2.0358989,2.0358989 0 0 0 -1.21957,0.96565 3.6166936,3.6166936 0 0 0 -0.46494,1.80879 c -0.0188,1.09797 0.304,1.55576 0.96922,1.37157 z m 10.28232,-18.52068 -0.0581,3.65514 1.5352,-0.4265 -0.0492,2.92644 -1.5343,0.42649 -0.12517,7.38002 c -0.007,0.58654 0.0501,0.97191 0.16094,1.15967 0.12428,0.18419 0.36122,0.228 0.71529,0.12875 0.28969,-0.0778 0.52753,-0.17703 0.7135,-0.29148 l -0.0688,3.02747 a 4.8809716,4.8809716 0 0 1 -1.65769,0.82706 c -1.93755,0.53647 -2.89068,-0.63125 -2.86206,-3.50046 l 0.12875,-7.89861 -1.32329,0.36838 0.0492,-2.92644 1.32328,-0.36659 0.0581,-3.65514 z m 6.01918,16.77358 -3.00869,0.83153 0.24319,-14.86912 3.00602,-0.8369 z m -2.8406,-17.84831 c 0.009,-0.60442 0.1672,-1.14178 0.46941,-1.60941 a 2.0537812,2.0537812 0 0 1 1.19543,-0.90305 c 0.49176,-0.14038 0.88696,-0.059 1.17576,0.24409 0.2888,0.30311 0.42918,0.75732 0.42023,1.36174 a 3.0310484,3.0310484 0 0 1 -0.4703,1.60672 2.0144401,2.0144401 0 0 1 -1.19632,0.92094 c -0.50071,0.14038 -0.89591,0.0492 -1.1856,-0.25929 -0.28343,-0.31384 -0.41845,-0.76894 -0.40772,-1.36263 z m 4.93819,9.38463 c 0.0393,-2.25496 0.47567,-4.13797 1.31435,-5.64902 0.84047,-1.51105 1.98225,-2.46776 3.42804,-2.86742 1.46277,-0.40772 2.59114,-0.0778 3.38869,0.97369 0.80113,1.05863 1.18023,2.72257 1.14804,4.9981 l -0.0197,0.94776 c -0.0393,2.26568 -0.47119,4.14869 -1.30183,5.64901 -0.83152,1.49854 -1.97867,2.45167 -3.44055,2.85491 -1.46992,0.40503 -2.60456,0.0876 -3.40211,-0.96117 -0.79308,-1.05863 -1.17129,-2.72526 -1.13552,-4.9981 z m 2.99439,0.14305 c -0.0492,2.66 0.48282,3.83576 1.57543,3.53354 1.01214,-0.27985 1.57364,-1.53966 1.6863,-3.7821 l 0.0295,-1.63802 c 0.0197,-1.35905 -0.10551,-2.32201 -0.38715,-2.89246 -0.27718,-0.57938 -0.68311,-0.79576 -1.21153,-0.64823 -0.50696,0.13948 -0.91199,0.58117 -1.21152,1.32239 -0.29238,0.72871 -0.44974,1.77214 -0.47388,3.12851 z m 10.99761,-10.95826 0.0599,1.44846 c 0.69472,-1.35279 1.58794,-2.17895 2.68234,-2.48564 1.96974,-0.5463 2.95594,0.96833 2.95863,4.54032 l -0.14753,9.79055 -3.0087,0.83153 0.14306,-9.49818 c 0.0107,-0.84494 -0.0769,-1.42611 -0.26823,-1.74889 -0.18419,-0.3335 -0.52038,-0.43186 -1.00678,-0.29506 -0.54272,0.14932 -0.97458,0.63035 -1.28842,1.43953 l -0.16541,10.817 -3.00959,0.83152 0.23247,-14.88879 z m 23.40792,1.69524 c -0.10998,2.31128 -0.62946,4.18177 -1.55665,5.60967 a 6.5610127,6.5610127 0 0 1 -3.88046,2.83166 c -1.74531,0.48014 -3.07307,0.1073 -3.98239,-1.1239 -0.90395,-1.24014 -1.33491,-3.24206 -1.29646,-6.00845 l 0.0483,-3.37349 c 0.0393,-2.75566 0.55077,-5.01062 1.53251,-6.76845 0.98085,-1.76141 2.3247,-2.88173 4.02888,-3.3574 1.67915,-0.46494 2.94522,-0.20833 3.79731,0.77073 0.85745,0.98084 1.33044,2.59561 1.42164,4.85057 l -3.12583,0.86729 c -0.009,-1.40644 -0.16362,-2.33185 -0.46494,-2.77891 -0.29684,-0.45957 -0.85209,-0.57223 -1.67378,-0.34602 -0.83152,0.23247 -1.42611,0.7752 -1.78286,1.63533 -0.35586,0.84941 -0.55704,2.14409 -0.60442,3.88761 l -0.0581,3.78926 c -0.0295,1.99388 0.11892,3.31359 0.44884,3.96451 0.33619,0.64823 0.92005,0.85835 1.75157,0.62856 0.81901,-0.228 1.38588,-0.64108 1.70508,-1.24014 0.32009,-0.61247 0.50875,-1.60136 0.57134,-2.97293 z m 6.30172,5.1948 c -1.53966,0.4256 -2.73063,0.15916 -3.57825,-0.79576 -0.84404,-0.9567 -1.24997,-2.55001 -1.21867,-4.77457 l 0.0197,-1.1856 c 0.0286,-2.35331 0.45153,-4.27744 1.26071,-5.77598 0.80828,-1.49764 1.94917,-2.45076 3.42445,-2.86116 1.43953,-0.40057 2.51604,-0.0984 3.22686,0.90305 0.71082,0.99515 1.05864,2.66894 1.04075,5.01956 l -0.0295,1.91698 -5.96375,1.65322 c 0.0286,1.09261 0.20386,1.84903 0.52753,2.27284 0.32635,0.41308 0.83153,0.52395 1.52536,0.33261 1.00499,-0.27896 1.84724,-0.9567 2.53034,-2.035 l 1.14268,2.035 a 6.5020011,6.5020011 0 0 1 -1.61924,2.05646 5.9744736,5.9744736 0 0 1 -2.28625,1.23746 z m -1.75962,-8.63893 2.99708,-0.82885 0.004,-0.36122 c 0,-0.88517 -0.10372,-1.53162 -0.31026,-1.93129 -0.20654,-0.40056 -0.57045,-0.52931 -1.0926,-0.38446 a 1.7488881,1.7488881 0 0 0 -1.1543,1.0479 c -0.24142,0.55256 -0.38806,1.37157 -0.44439,2.45881 z m 10.45668,-8.92148 0.0679,1.45115 c 0.69295,-1.35548 1.58616,-2.18521 2.67878,-2.49011 1.96884,-0.5472 2.95951,0.97191 2.97114,4.55462 l -0.12697,9.81738 -3.00959,0.83153 0.12429,-9.5259 c 0.009,-0.84404 -0.0778,-1.43058 -0.2745,-1.75336 -0.18508,-0.3335 -0.52126,-0.43186 -1.00766,-0.29684 -0.54274,0.15199 -0.97101,0.63213 -1.28574,1.44399 l -0.14306,10.84919 -3.00959,0.83152 0.19939,-14.92992 z m 11.45896,-6.84534 -0.0492,3.67303 1.53697,-0.4265 -0.0393,2.94432 -1.53785,0.42381 -0.0966,7.41847 c -0.009,0.58922 0.0492,0.97906 0.16541,1.16503 0.12339,0.18598 0.36121,0.23247 0.71528,0.13412 a 2.7118496,2.7118496 0 0 0 0.71262,-0.29506 l -0.0581,3.04893 a 4.8559363,4.8559363 0 0 1 -1.65857,0.82616 c -1.93487,0.53647 -2.89336,-0.63839 -2.87995,-3.52281 l 0.10283,-7.94331 -1.32508,0.36659 0.0393,-2.93896 1.3233,-0.36927 0.0483,-3.67302 2.99528,-0.8351 z m 7.57315,16.73783 c -1.53965,0.42649 -2.7324,0.15826 -3.58002,-0.80024 -0.84762,-0.95849 -1.25802,-2.55448 -1.22942,-4.78351 l 0.0197,-1.18917 c 0.0295,-2.35778 0.44704,-4.28728 1.25175,-5.78492 0.80738,-1.49854 1.94828,-2.45435 3.42356,-2.86743 1.43954,-0.39877 2.51605,-0.0984 3.22776,0.90842 0.71171,0.99784 1.06041,2.67341 1.04612,5.0294 l -0.0187,1.92234 -5.96106,1.65322 c 0.0286,1.09261 0.20564,1.85082 0.53199,2.27552 0.32457,0.41308 0.83421,0.52753 1.52627,0.3353 1.00139,-0.27897 1.84454,-0.95671 2.52675,-2.03501 l 1.14894,2.03858 a 6.4939542,6.4939542 0 0 1 -1.61924,2.05825 5.9592737,5.9592737 0 0 1 -2.28626,1.24014 z m -1.7748,-8.65503 2.99706,-0.83153 0.004,-0.36033 c 0,-0.89053 -0.10819,-1.53787 -0.31561,-1.93665 -0.20655,-0.40324 -0.56776,-0.532 -1.09261,-0.38804 a 1.7462058,1.7462058 0 0 0 -1.15164,1.05147 c -0.23782,0.55257 -0.38804,1.37426 -0.4399,2.46418 z m 13.31605,-5.97 -0.99427,0.16541 c -0.819,0.2271 -1.37692,0.85209 -1.67914,1.87227 l -0.11268,9.8907 -3.00956,0.83152 0.17522,-14.963 2.82543,-0.78503 0.0697,1.59599 c 0.48728,-1.39482 1.14624,-2.20846 1.98045,-2.44093 a 1.5468182,1.5468182 0 0 1 0.8217,-0.0492 z"
     style="font-weight:700;font-size:10.66699982px;line-height:1.25;font-family:'Roboto Condensed';-inkscape-font-specification:'Roboto Condensed, ';letter-spacing:0;word-spacing:0;fill:#ffffff;stroke-width:0.89411455"
     font-weight="700"
     font-size="10.667"
     letter-spacing="0"
     word-spacing="0"
     id="path88" />
</svg>
