<?xml version="1.0" encoding="UTF-8" standalone="no"?>
<svg
   xmlns:dc="http://purl.org/dc/elements/1.1/"
   xmlns:cc="http://creativecommons.org/ns#"
   xmlns:rdf="http://www.w3.org/1999/02/22-rdf-syntax-ns#"
   xmlns:svg="http://www.w3.org/2000/svg"
   xmlns="http://www.w3.org/2000/svg"
   xml:space="preserve"
   enable-background="new 0 0 380.2 220.6"
   height="176.87776"
   width="352.14835"
   viewBox="0 0 322.50334 161.98752"
   y="0px"
   x="0px"
   id="Layer_1"
   version="1.1"><metadata
   id="metadata55"><rdf:RDF><cc:Work
       rdf:about=""><dc:format>image/svg+xml</dc:format><dc:type
         rdf:resource="http://purl.org/dc/dcmitype/StillImage" /><dc:title></dc:title></cc:Work></rdf:RDF></metadata><defs
   id="defs53" />















<path
   style="fill:#ffd300"
   id="path16"
   d="m 121.91263,78.832724 c 0,-21.399972 17.3,-38.699954 38.7,-38.699954 21.4,0 38.7,17.299982 38.7,38.699954 0,21.400026 -17.3,38.700026 -38.7,38.700026 -21.4,0 -38.7,-17.4 -38.7,-38.700026" />

<path
   style="clip-rule:evenodd;fill:#ffd300;fill-rule:evenodd"
   id="path18"
   d="m 129.51263,55.832754 c 0.6,0.299999 1.2,0.599999 1.9,0.999999 2.9,1.999998 4.8,3.699996 9.2,7.399992 1.3,1.299998 2.8,3.399996 3.9,4.699995 2.4,2.999996 4.1,5.099994 4.4,7.599988 0.7,4.99999 1.4,7.799984 3.3,12.899984 0.2,0.5 1,1.199998 1.5,1.799996 1.2,1.499998 1.7,3.899992 3.9,5.199988 1.2,0.7 1.4,0.8 1.8,1.099998 0.6,0.5 -0.4,2.300058 -3.5,1.900058 1.6,0.799998 1.4,2.599998 -0.9,2.699998 -4.5,0.2 -7.3,-2.399998 -7.9,-3.099998 -0.3,-0.3 -1.2,0.9 -2.8,1.499998 -1.6,0.8 -3.8,0 -5.5,0.3 -1.6,0.3 -3.7,1.3 -5.4,1.4 -3,0.1 -3.4,-2 -3.4,-3.799998 0,-0.400058 0,-0.700058 0,-0.800058 -0.3,1.100058 -1.4,3.000056 -1.4,3.000056 -0.4,0.9 -1,2 -2.1,2.4 l -3.2,0.4 c -2.5,1.1 -5,1.9 -7.6,2.8 -1.5,0.3 -3.2,0 -4.3,-0.9 -0.9,-0.7 -1.4,-1.6 -1.9,-2.5 -0.5,-0.2 -1.2,0 -1.8,-0.2 -0.5,-0.1 -0.8,-0.5 -1.1,-0.8 l -2.2,-3.700056 c -0.2,-0.5 -0.2,-1.199998 0,-1.699998 0.4,-0.799998 1.3,-1.199996 2.2,-1.199996 1.6,-0.1 3.4,-0.6 5,0 0.7,-0.799998 1.8,-0.699998 2.8,-0.899998 -0.4,-0.6 -1,-0.899998 -1.5,-1.399998 -2.9,0.7 -6.1,0.2 -8.9,-0.299998 -2.6,-0.6 -4.799998,0.899998 -7.399998,0.499998 l -0.8,1.699996 c -1.2,1.299998 -1.3,3.500052 -3.1,4.400052 -1.3,0.3 -2.3,1.199998 -3.4,1.799998 -2,1.1 -4.7,0.6 -6.9,0.2 -0.9,-0.1 -1.5,0 -2.3,0.3 -0.7,0.5 -1.5,1.3 -2.3,1.9 -1.3,0.5 -2.4,1.6 -3.8,1.7 -0.8,0 -1.6,-0.5 -2.4,-0.3 -1,1.1 -1.5,2.9 -3.1,3.4 -1.6,0.5 -3.6,0.1 -5.2,-0.3 -0.5,0.2 -0.8,0.6 -1.4,0.5 -1.1,-0.3 -2.2,-0.6 -3.2,-1.2 -0.4,-0.4 -0.5,-0.9 -0.6,-1.3 0,-0.7 0.6,-1.3 0.9,-1.9 0.1,-0.7 0.1,-1.7 0.4,-2.4 0.5,-1.1 1.6,-1.799998 2.7,-2.299998 0.1,-0.8 0.6,-1.500058 1.3,-1.900058 1.3,-0.699998 2.7,-2.299994 4.4,-1.399996 l 1.8,1.499996 c 1.6,-0.699998 1.2,-2.299994 2,-3.599992 0.4,-0.899998 0.9,-1.899996 1.9,-1.899996 0.7,-0.1 1.5,0.1 2.2,0 1,-0.299998 2.1,-0.699998 2.8,-1.499996 l -0.1,-0.599998 c -1,-1.899996 -1.3,-4.200004 -1.4,-6.499998 -1.8,0.199998 -3.7,0.499998 -5.6,0.1 -2.8,-0.4 -5.5,-2.599996 -6.6,-5.39999 -1.2,-2.699994 -0.7,-6.499987 1.2,-8.799985 1.5,-1.799998 3.2,-3.399996 5,-4.799995 -0.6,-0.199999 -1.3,-0.1 -1.9,-0.299999 -2.6,-0.4 -5.2,-2.699997 -5.8,-5.299995 -0.4,-1.699998 0,-3.299996 0.8,-4.699994 0.3,-0.3 0.6,-0.6 1.1,-0.4 1.3,0.499999 1.7,1.199999 2.9,1.799998 l 0.7,0.4 c 3.3,1.099998 7.7,1.099998 9,5.199994 0.8,3.199996 -1.2,5.599994 -3.5,7.399992 -1.8,1.299998 -3.6,2.899997 -4.5,4.799995 -0.4,1.399997 -0.2,2.799995 1,3.799991 1.2,1.199998 3.3,1.199998 4.8,0.6 2.8,-1.199998 5.4,-2.999994 7.9,-4.899991 2.4,-1.799998 5.3,-2.499997 8.4,-2.599997 1.4,-0.3 2.6,-0.899999 3.7,-1.799998 1.9,-1.799998 3.9,-3.299996 6.299998,-3.899996 1.1,-0.2 2.2,-0.299999 3.3,-0.399999 0.9,-0.4 1.5,-1.499999 2.2,-1.999998 3.3,-2.899997 7.7,-2.799997 11.2,-5.099995 2,-1.499998 4.2,-2.499997 6.8,-2.399997 1.2,0.1 2.3,0.3 3.3,0.699999 z m 3.3,33.999958 c -2.2,0.1 -3.6,0.599998 -5.1,0.799998 0.1,1.399996 0.9,2.599994 2,4.09999 0.6,-2.299994 2.5,-3.199992 3.1,-4.899988" />

<path
   style="clip-rule:evenodd;fill:#ffd300;fill-rule:evenodd"
   id="path20"
   d="m 189.11263,90.33271 c 1,1.499998 1.6,2.999994 2.5,4.59999 0.9,-1.699996 1.7,-3.299992 2.5,-4.29999 -0.1,-0.1 -2.7,0.2 -5,-0.3 m 2.1,7.399984 c -0.1,0.3 -0.3,0.4 -0.7,0.4 0.3,1.400058 -0.7,4.000056 -3.2,4.100056 -1.7,0.1 -4.5,-1.6 -6.1,-1.7 -1.7,-0.1 -4.8,1.2 -6.6,-1.499998 -2.4,2.899998 -5.2,3.699998 -7.6,3.599998 -1.4,0 -2.9,-0.8 -0.8,-2.6 -4.6,1.5 -4.6,-1.599998 -3.8,-2.200056 0.5,-0.4 1.1,-0.699998 2.8,-2.399994 6.4,-6.699986 4,-18.299972 11,-25.999961 2.7,-2.999997 4.9,-4.699995 10.4,-8.599991 1.9,-1.299998 3.8,-3.199996 5.6,-4.499995 l 0.1,0.2 v -0.1 c 1.1,-0.799999 2.1,-1.599998 3.3,-1.899998 2.5,-0.299999 4.8,0.5 6.7,1.799998 1,0.7 1.8,1.499999 2.6,2.499998 0.6,0.599999 1.5,0.599999 2.3,0.899999 2.3,0.399999 4.3,1.299998 6.2,2.499997 1.3,0.799999 2.4,2.199997 4,2.399997 1.9,0.3 3.6,0.899999 5.3,1.899998 2,1.299999 3.8,2.899997 6.2,3.299997 4.8,0.499999 8.8,3.199996 12.6,5.899991 2.2,1.299998 4.8,2.799994 7.5,1.899996 0.8,-0.3 1.4,-0.999998 1.6,-1.699996 0.2,-1.799996 -0.9,-3.199995 -2,-4.499993 -2.3,-2.699997 -6.3,-4.999995 -5.8,-8.899991 0.7,-2.899996 3.9,-4.599994 6.4,-5.399994 1.4,-0.499999 3.1,-0.299999 4.3,-1.499998 0.6,-0.4 0.9,-1.799998 1.9,-1.299999 0.8,0.5 0.9,1.499999 1,2.399998 0.4,2.799997 -0.2,5.599994 -2.8,7.199992 -1.2,0.799999 -2.5,1.099999 -3.9,1.399998 2.1,1.699999 4.2,3.799996 5.4,6.199994 0.7,1.399998 1.1,2.599997 1.2,4.199993 -0.1,2.999994 -1.9,5.599988 -4.5,7.099984 -1.5,0.799998 -3.2,1.099998 -5,1.099998 -0.7,0 -1.3,-0.2 -1.9,-0.2 0.3,1.399998 0.3,3.300006 0,4.900002 -0.1,0.799998 -0.6,1.699996 -0.6,2.699994 0.4,0.5 1,0.5 1.5,0.5 1.3,0 2.9,-0.1 3.6,1.299996 0.6,1.299998 0.9,2.799994 1.4,4.099992 0.2,0.199998 0.3,0.699998 0.6,0.599998 0.9,-0.799998 1.8,-1.899996 3.1,-1.599996 1.2,0.799998 2.4,1.699996 3.6,2.600054 0.3,0.3 0.4,0.7 0.5,1.199998 1,0.4 2.3,1.1 2.6,2.3 0.2,0.8 0.1,1.6 0.3,2.3 0.3,0.8 1.1,1.8 0.5,2.8 l -0.4,0.3 -3.8,1.2 c -0.3,0 -0.6,-0.2 -0.9,-0.5 -2,-0.1 -4.4,0.5 -6,-0.9 -0.7,-0.6 -1.2,-1.3 -1.7,-2.1 -1.2,0.6 -2.9,1 -4.1,0.2 -2.5,-1.9 -5,-3.8 -8.4,-3.7 -1.5,0.3 -3.3,0.7 -4.8,0.1 -1.4,-1 -3,-1.5 -4.1,-2.999998 -1.6,-1.700058 -1.6,-3.700052 -2.2,-5.800048 -2.2,0.499998 -4.6,0.2 -6.8,0.1 -1.8,-0.1 -3.5,0.2 -5.2,0.599998 -2.1,0.4 -4.4,0.6 -6.6,0.5 l -1.1,0.799998 c 0.5,0.1 1,0.1 1.4,0.499998 l 0.4,0.4 c 1.8,0.2 3.9,-0.1 5.6,0.299998 0.4,0.1 0.8,0.5 1,0.899998 0.2,0.5 0.2,1.100058 -0.1,1.500058 -0.9,1.199998 -1.4,2.599998 -2.6,3.599998 -0.3,0.4 -1.2,-0.1 -1.3,0.6 -0.4,1.8 -2.1,3.3 -3.8,3.7 -0.7,0.1 -1.5,0 -2.1,-0.2 -2.1,-0.7 -4.2,-1.3 -6.3,-1.9 -0.7,-0.2 -1.3,-0.9 -1.9,-1.3 -0.9,0 -2.2,0.3 -2.8,-0.5 -0.3,-0.2 -0.6,-0.9 -0.7,-1.2 -0.7,-0.9 -1.2,-2.499998 -1.5,-3.900056" />

<path
   style="clip-rule:evenodd;fill:#e21b4d;fill-rule:evenodd"
   id="path22"
   d="m 128.51263,68.43274 c 0.6,1.499998 0.6,3.499996 0.2,5.099994 -0.1,0.1 -0.2,0.1 -0.3,0 -0.3,-1.399998 -0.6,-2.799996 -1.1,-4.199995 -0.3,-0.799999 -1.3,-1.499998 -0.9,-2.399997 0.2,-0.2 0.6,-0.2 0.9,-0.1 0.5,0.499999 0.8,0.999999 1.2,1.599998 m 16,13.999976 c 1.1,1.299996 1.9,2.699994 1.5,4.400002 -0.2,0.3 -0.1,0.899998 -0.6,0.999998 -0.2,0.1 -0.4,-0.1 -0.4,-0.3 -0.1,-0.899998 -0.1,-1.900008 -0.6,-2.600006 -0.6,-0.599998 -1.3,-1.799996 -2.3,-1.799996 -0.7,0.2 -1.2,0.999998 -1.6,1.499996 0,0.1 -0.1,0.1 -0.2,0 -0.4,-0.999998 0.4,-1.799996 0.7,-2.599994 0.6,-0.599998 0.5,-2.299994 1.8,-1.799996 0.9,0.6 1.1,1.599996 1.7,2.199996 m -2.1,11.899986 c 0.1,0.599998 0.1,1.499996 -0.5,1.899996 -0.6,0.199998 -1.4,0.299998 -2.1,0.199998 -0.2,-0.1 -0.4,-0.199998 -0.3,-0.399998 0.3,-0.899998 1.2,-1.899996 2.2,-2.099996 0.2,0 0.6,0 0.7,0.4 M 69.412632,57.832752 c 2.4,0.599999 5,0.599999 6.8,2.499997 1,1.199999 1.1,3.299996 0.3,4.499995 -1.4,2.399997 -4.2,3.599996 -5.9,5.699994 -1.7,1.399998 -2.3,3.599996 -1.8,5.79999 0.6,1.899996 2.5,3.199994 4.4,3.299994 3,0.1 5.2,-1.399998 7.6,-2.799994 2.4,-1.699996 4.6,-3.899993 7.3,-4.599992 1.8,-0.599999 3.8,-0.3 5.6,-0.999999 1.9,-0.4 3.4,-1.999998 4.9,-3.399996 1.699998,-1.399999 3.699998,-2.199998 5.899998,-2.099998 2,0.3 3.1,-1.499998 4.5,-2.699997 2.3,-2.099998 5.3,-2.299998 8,-3.499996 1.9,-0.6 3.4,-1.999998 5.2,-2.899997 1.7,-0.699999 4,-0.899999 5.7,-0.2 1.1,0.5 2.3,0.999999 3.3,1.799998 l 8.1,6.799993 c 0.1,0.299999 0.4,0.499999 0.6,0.599999 2.3,2.799997 4.7,5.499994 6.6,8.599991 0.6,1.099998 0.9,2.199994 1.2,3.399992 0.4,4.59999 1.6,8.599982 3.1,12.599984 0.4,0.6 1.2,1.099998 1.6,1.699996 1.3,1.799996 2.1,4.099992 4.2,5.29999 l 1.2,0.599998 c 0.1,0.1 0.1,0.3 0,0.4 l -0.2,0.200058 c -2.5,0.4 -4.4,-1.100058 -5.7,-2.900054 -0.8,-1.599996 -1.9,-3.299992 -3.7,-3.99999 -0.1,0 -0.2,0.1 -0.2,0.1 0.2,0.599998 0.8,0.999998 1,1.499996 0.7,1.099998 1.3,2.299996 1.6,3.499992 0.4,1.299998 1.8,2.200056 2.9,2.900056 l 1.6,0.799998 c 0.2,0.1 0.3,0.4 0.1,0.6 l -0.2,0.1 c -2.7,0.1 -5.1,-0.8 -7,-2.800056 -0.4,-0.5 -1,-0.9 -1.7,-0.9 -1.2,1.100058 -2.4,2.100058 -4,2.200058 -1.7,-0.3 -3.5,-0.3 -5,0.3 -1.4,0.499998 -2.8,1.099998 -4.3,1.099998 -0.7,0 -1.5,-0.3 -1.8,-0.999998 0,-0.9 -0.6,-1.900058 -0.1,-2.800056 l 1,-1.499998 c 0,-0.199998 -0.1,-0.399998 -0.3,-0.399998 -0.4,-0.1 -1.1,0.599998 -1.3,-0.1 0.1,-1.499996 1.6,-2.499994 2.6,-3.499992 0.2,-1.199998 0.7,-2.299996 1.6,-3.299994 0,-0.1 -0.1,-0.299998 -0.3,-0.299998 -1.3,0.199998 -2.6,0.499998 -4,0.499998 -1.1,0.599998 -2.5,0.999998 -3.8,0.599998 -0.3,-0.199998 -0.2,-0.499998 -0.1,-0.699998 1.4,-1.899996 1.9,-4.300002 1.5,-6.599998 -0.1,-0.1 -0.1,-0.299998 -0.3,-0.299998 -0.2,0 -0.2,0.2 -0.3,0.299998 -0.3,2.199996 -1,3.899992 -2.2,5.8 -0.9,0.899998 -2.3,0.899998 -3.5,1.199998 -0.3,0.1 -0.6,0.399998 -0.6,0.699998 0,0.799998 0.5,1.299998 0.8,1.999996 l 2.6,4.79999 c 0.1,1.299996 -0.5,2.600054 -0.8,3.800052 0.1,0.2 0.3,0.1 0.5,0 0.9,-0.799998 1.5,-1.900056 1.9,-3.100054 0.1,-0.5 -0.1,-1.099998 -0.3,-1.499998 l -2.7,-5.399988 c 0.2,-0.299998 0.6,-0.299998 0.9,-0.399998 0.6,0 1.2,0.299998 1.8,0.499998 0.6,1.599998 1.3,3.299994 2.4,4.69999 0.2,0.899998 0.5,2.099996 -0.1,2.799994 -0.6,1.200058 -1.2,2.200058 -2,3.300056 -0.7,0.7 -1.7,0.6 -2.7,0.7 h -0.3 c -2.4,1.3 -4.9,2.1 -7.5,2.9 -1.1,0.5 -2.4,0.1 -3.3,-0.6 -0.9,-0.7 -1.3,-1.7 -1.9,-2.6 -0.7,-0.9 -1.8,-0.1 -2.6,-0.6 -0.7,-1.099998 -1.4,-2.199998 -2,-3.400056 0,-0.299998 0,-0.599998 0.3,-0.799998 0.9,-0.299998 1.9,-0.299998 2.9,-0.399998 0.9,-0.1 1.9,0.1 2.5,0.699998 1.2,1.400056 1.7,3.300054 3.5,4.200054 1.4,0.1 2.6,-0.3 3.8,-0.9 0.7,-0.399998 1.5,-0.999998 1.5,-1.899998 -0.1,-1.800056 -1.3,-3.200052 -2.8,-4.20005 -1.5,-0.799998 -3.1,-1.899996 -4.2,-3.299992 -0.6,-0.8 -0.7,-1.699998 -1,-2.499996 -0.1,-0.199998 -0.5,-0.199998 -0.6,-0.1 -0.6,0.5 -0.1,1.399998 -0.1,1.999996 0.1,0.4 0.3,0.899998 0.1,1.199998 -0.9,0.699998 -2.1,0.3 -3.2,0.4 -2.2,-0.1 -4.3,-0.999998 -6.6,-0.8 -2.199998,0.1 -5.199998,1.599998 -6.799998,-0.599998 -0.8,-2.099996 -0.6,-4.600002 -0.2,-6.699998 0,-0.199998 -0.2,-0.399998 -0.4,-0.399998 -0.2,-0.1 -0.4,0 -0.5,0.2 -0.6,2.099994 -0.7,4.400002 -1.2,6.599996 -0.8,1.899996 -2.2,3.899992 -4.1,4.89999 -1.7,0.899998 -3.7,1.199998 -5.8,1.399996 -3.8,0.1 -7.3,0.8 -9.7,4.100054 -0.2,0.3 -0.5,0.6 -0.4,1 0.1,0.1 0.4,0.2 0.5,0.1 2.6,-2.899998 5.9,-4.100056 9.7,-3.900056 3.6,0 7.2,-0.599998 9.5,-3.699992 0.6,-0.699998 1,-1.399996 1.5,-2.199994 0.4,0 0.7,0.499998 1,0.699998 0.1,1.099998 -0.8,1.799996 -1.2,2.699994 -0.5,0.999998 -1,2.199994 -2,2.799994 -1.2,0.300058 -2.2,1.100058 -3.3,1.700058 -1.1,0.499998 -2.5,0.699998 -3.8,0.399998 -1.6,-0.299998 -3.8,-0.699998 -5.4,0 -0.8,0.5 -1.5,1.4 -2.3,1.9 -1.1,0.5 -2.1,1.4 -3.4,1.3 -0.9,-0.2 -2,-0.8 -2.8,0 -1,0.9 -1.2,2.5 -2.5,3.1 -1.5,0.8 -3.1,0 -4.6,-0.1 0.2,-1.5 0.4,-2.9 1.4,-4 0.6,-0.1 1.1,-0.2 1.6,-0.6 0.6,-0.5 1,-1.2 1.4,-1.899998 1.3,-0.8 2.8,-1.4 3.6,-2.800056 0.6,-1.299998 0.6,-2.499994 1.6,-3.699992 l 0.5,-0.2 2.7,-0.2 c 1.1,-0.499998 2.1,-0.999998 3.1,-1.799996 0.3,-0.299998 0.4,-0.799998 0.3,-1.299996 -0.5,-1.299998 -0.9,-2.199996 -1.2,-3.600004 -0.3,-1.399998 -0.1,-2.799994 -0.3,-4.399992 -0.1,-0.1 -0.2,-0.399998 -0.4,-0.399998 -1.8,0.399998 -3.5,0.899998 -5.5,0.599998 -2.7,-0.299998 -5.5,-2.099996 -6.5,-4.79999 -0.9,-2.299994 -0.7,-5.599989 1,-7.499987 1.6,-1.999998 3.6,-3.499997 5.6,-5.199995 0.3,-0.199999 0.3,-0.599999 0.4,-0.899999 0,-0.399999 -0.4,-0.699999 -0.7,-0.899999 -1.2,-0.299999 -2.6,0.1 -3.8,-0.399999 -2.1,-0.7 -3.7,-2.699997 -4,-4.899995 -0.1,-0.999999 0.1,-1.799998 0.6,-2.599997 1.6,1.399998 2.8,2.599997 4.3,2.999997 m -6,44.699998 v 0.3 c -0.5,1.2 -0.8,2.6 -1.2,4 -0.9,-0.1 -1.7,-0.4 -2.4,-0.7 -0.2,-0.2 0,-0.4 0,-0.6 0.9,-0.8 0.6,-1.8 0.8,-2.9 0.1,-0.6 0.7,-1.1 1.3,-1.4 0.7,0.1 1.1,0.8 1.5,1.3 m 4.4,-4.199998 c -0.5,1 -1.2,2.199998 -2.3,2.799998 -0.4,0.1 -0.9,0.1 -1.3,-0.1 -0.2,-0.2 -0.6,-0.4 -0.6,-0.8 0.1,-0.399998 -0.1,-0.899998 0.3,-1.099998 0.8,-0.5 1.6,-1.000058 2.4,-1.700058 0.2,-0.1 0.6,-0.199998 0.7,0 0.4,0.3 0.7,0.5 0.8,0.900058 m 50.099998,-0.400058 c 0.1,0.400058 0.7,0.900058 0.3,1.300058 -0.8,0.6 -1.7,0.999998 -2.8,0.899998 -0.8,-0.599998 -0.7,-1.699998 -1.4,-2.500056 -0.2,-0.599998 -1.1,-0.599998 -0.9,-1.199998 l 0.3,-0.199998 c 1.1,0 2.2,0 3.3,-0.2 1.1,-0.1 0.8,1.199998 1.2,1.899996" />

<path
   style="clip-rule:evenodd;fill:#e21b4d;fill-rule:evenodd"
   id="path24"
   d="m 181.11263,81.632718 c 0.6,0.799998 1.1,1.599996 1.5,2.599994 0.1,0.2 0,0.399998 -0.1,0.599998 -0.1,0.2 -0.3,0.4 -0.6,0.2 -0.7,-0.2 -0.6,-1.299998 -1.5,-1.199998 -0.6,0 -1,0.5 -1.5,0.799998 -0.9,0.799998 -2.1,1.599998 -2.3,2.800006 -0.2,0.4 -0.1,1.099998 -0.5,1.299998 -0.2,0.1 -0.5,-0.1 -0.5,-0.3 -0.1,-1.599996 0.4,-3.100004 1.5,-4.200002 1.1,-0.899998 1.9,-2.199996 2.8,-3.299994 0.6,-0.1 1,0.3 1.2,0.7 m 0.4,13.299982 c 0.2,0.4 0.6,0.899998 0.3,1.399998 -0.4,0.299998 -1.1,0.1 -1.6,0.1 -0.6,-0.299996 -0.8,-1.099994 -0.8,-1.799994 0,-0.199998 0,-0.299998 0.2,-0.499998 0.7,0 1.4,0.2 1.9,0.799998 m 15,-30.599955 c 0.3,0.399999 0,0.799999 -0.2,1.099998 -1.4,1.299999 -3.1,2.699997 -4.1,4.299996 -0.4,0.499999 -0.7,1.099998 -0.9,1.699998 0,0.1 -0.1,0.1 -0.2,0.1 -0.3,-0.799999 0.1,-1.699998 0.3,-2.499998 0.7,-1.899998 2.3,-3.699996 4,-4.999994 0.2,-0.1 0.9,-0.2 1.1,0.3 m 5.7,-6.399993 c 1.1,0.699999 1.5,2.199997 2.8,2.499997 2.2,0.499999 4.4,0.999999 6.4,1.999998 1.4,0.699999 2.7,1.699998 4,2.799997 1.2,0.599999 2.7,0.599999 4,0.999998 1.9,0.5 3.4,1.899998 5.1,2.999997 2.2,1.699998 5.3,1.499999 7.8,2.599997 4,1.299999 7.2,4.399994 10.9,6.19999 1.9,0.999996 4.8,1.399996 6.7,0.299998 1.3,-0.899998 2.1,-2.099994 1.8,-3.799992 -0.7,-4.099994 -5.2,-6.199992 -7.3,-9.599988 -0.4,-0.799999 -0.7,-1.899998 -0.5,-2.799997 0.8,-1.999998 2.9,-3.099997 4.7,-3.799996 1.4,-0.699999 3.2,-0.499999 4.5,-1.299998 0.5,-0.3 0.9,-0.7 1.2,-0.999999 0.3,0 0.3,0.299999 0.4,0.499999 0.4,2.399997 0,4.899995 -2.1,6.299993 -0.8,0.6 -1.8,0.799999 -2.7,0.999999 -0.8,0.3 -2.4,-0.3 -2.3,1.099999 0.2,0.699999 0.8,1.099999 1.3,1.599998 2.8,2.299998 5.4,5.299994 5.7,8.899988 0.1,2.799994 -1.8,5.19999 -4.2,6.399986 -1.8,0.7 -4,0.999998 -5.9,0.5 -0.5,-0.1 -1.3,-0.599998 -1.7,0.1 -0.1,0.799998 0.4,1.399996 0.4,2.099994 0.2,1.299998 0.2,3.000006 -0.2,4.300004 -0.2,0.999998 -1.2,2.199994 -0.3,3.199992 0.9,1.399998 2.7,0.999998 4.2,1.199998 0.8,0.1 1.1,0.999998 1.3,1.599996 0.3,0.799998 0.3,1.699994 0.6,2.299994 0,1.500054 1.7,2.100054 2.5,3.100052 1,1.1 1.9,3 3.6,2.9 0.6,1.2 0.9,2.3 1.1,3.7 l -0.2,0.2 c -1.4,0 -3.3,0.4 -4.3,-0.6 -1.2,-0.8 -1.6,-3 -3.4,-2.4 -0.8,0.6 -1.9,0.8 -2.8,0.4 -0.9,-0.3 -1.5,-1.1 -2.3,-1.6 -2.4,-1.8 -5.6,-2.7 -8.7,-2 -1.8,0.5 -3.2,-0.8 -4.6,-1.599998 -1.9,-0.8 -2.4,-2.800054 -2.8,-4.500048 l -0.3,-2.099994 c 0,-0.2 0.2,-0.4 0.4,-0.5 h 0.3 c 1.1,2.499994 3.2,5.299984 5.9,6.200042 2.5,1 4.8,-0.300058 7.5,0.2 2.5,0.3 4.5,1.899998 6.4,3.399998 0.2,0 0.3,-0.1 0.4,-0.3 v -0.2 c -2.3,-2.899998 -5.5,-4.400052 -9.2,-4.100056 -3.1,0.6 -6.1,-0.399996 -7.9,-2.999988 -1,-1.499998 -1.7,-3.099994 -2,-4.79999 -0.3,-1.999996 -0.7,-4.200002 -1.4,-5.999998 -0.2,-0.1 -0.4,-0.3 -0.6,-0.2 l -0.2,0.299998 c 0.3,1.899996 0.9,4.200004 0.2,6.2 -0.5,1.599996 -2.1,2.199994 -3.6,2.299994 -1.5,0.1 -2.9,-0.2 -4.5,-0.2 -3.6,-0.1 -6.8,1.299998 -10.5,0.999998 0.3,-0.899998 0.9,-1.799996 0.6,-2.799994 -0.1,-0.199998 -0.4,-0.199998 -0.6,-0.199998 -0.7,0.399998 -0.6,1.299996 -1,1.899996 -0.8,1.299996 -2.3,2.499994 -3.8,2.799992 -1.1,0.8 -2.1,1.899994 -3,2.89999 -0.3,0.3 -0.3,0.900058 -0.2,1.300058 0.7,1.799998 2.8,1.999998 4.4,2.499998 0.8,0.1 1.5,-0.2 1.9,-0.9 0.7,-1.099998 0.8,-2.900056 2.4,-3.100056 h 3.5 c 0.3,0.1 0.5,0.3 0.7,0.6 l -0.1,0.500058 c -0.8,0.9 -1.1,2.199998 -2.1,2.799998 -0.6,0.2 -1.3,0 -1.7,0.5 -0.2,1.2 -0.5,2.5 -1.7,3.1 -0.9,0.8 -2.2,0.4 -3.2,0.1 -1.9,-0.7 -3.8,-1.1 -5.7,-1.7 -0.8,-0.2 -1.1,-1.2 -2,-1.4 -0.8,-0.2 -1.7,0.4 -2.4,-0.3 -0.4,-0.9 -0.6,-1.5 -0.8,-2.499998 -0.3,-0.6 -0.5,-1.300058 -0.6,-2.000054 -0.1,-0.6 0,-0.999996 0.2,-1.499996 l 2.6,-4.699988 c 0.2,-0.3 0.4,-0.6 0.7,-0.7 0.6,0.1 1.3,0.4 1.9,0.7 l -0.1,0.299998 -2.7,4.099992 c -0.6,1.299994 0,2.79999 0.6,3.900048 0.1,0.1 0.2,0.3 0.3,0.2 -0.1,-0.8 -0.2,-1.600058 0,-2.500054 0.2,-0.799996 0.7,-1.499994 1.1,-2.199994 l 2.1,-3.099992 c 0.2,-0.5 0.2,-1.299998 -0.2,-1.799996 -0.9,-0.899998 -2.2,-1.199998 -3,-2.399996 -1.7,-2.300006 -1.9,-5 -2.1,-7.899994 0,-0.2 -0.2,-0.499998 -0.5,-0.599998 -0.2,-0.1 -0.4,0.199998 -0.5,0.299998 -0.5,1.899996 -0.2,4.199992 0.3,5.899988 0.3,1.299998 0.9,2.600006 1.5,3.800004 0.1,0.2 -0.1,0.499998 -0.3,0.599998 -1.4,0.1 -2.8,0 -4.1,-0.2 -1.8,-0.299998 -3.1,-1.699996 -4.6,-2.799994 -0.2,-0.100012 -0.3,0.1 -0.4,0.2 0.4,1.999996 2.6,3.199994 3.3,4.99999 0.4,1.499996 1.9,2.599994 2.2,4.19999 0,0.2 -0.2,0.5 -0.4,0.599996 -0.5,0.1 -1,-0.199996 -1.5,0.1 -0.1,0.899996 0.5,1.800054 0.1,2.600054 -0.5,0.8 -1.2,1.699998 -2.1,1.699998 -1.8,-0.6 -3.6,-1.399998 -5.4,-1.899998 -1.3,-0.1 -2.6,0.1 -3.8,0.2 -1.2,-0.2 -2,-1.300058 -2.9,-1.900054 -0.3,-0.1 -0.6,-0.1 -0.8,0.1 -2,2.000064 -4.2,4.200062 -7.2,4.100062 -0.2,0 -0.3,-0.2 -0.3,-0.4 v -0.2 c 1.3,-1.199998 2.9,-2.399998 3.5,-4.100054 0.4,-1.399994 1.6,-2.399992 2.1,-3.69999 0.1,-0.2 -0.1,-0.299998 -0.3,-0.399998 l -0.3,0.199998 c -1.5,1.499998 -2.6,3.199994 -3.7,4.799982 -1.1,1.100064 -2.7,1.800064 -4.4,1.400064 -0.2,-0.1 -0.2,-0.4 -0.1,-0.6 6.2,-3.80005 6.9,-10.600034 8.6,-16.800032 1.2,-4.099992 2.1,-8.299983 5.3,-11.59998 4.8,-5.299994 10.8,-8.399991 16.1,-12.999985 0.8,-0.7 1.6,-1.399999 2.6,-1.399999 2.6,-0.2 4.6,0.799999 6.4,2.299998 m 57.1,44.199996 c 0.5,0.7 0.3,1.8 0.5,2.6 0.1,0.6 0.9,1.1 0.5,1.7 l -2.2,0.7 c -0.4,0 -0.2,-0.5 -0.4,-0.7 -0.2,-1.3 -0.5,-2.2 -0.9,-3.4 -0.1,-0.7 0.6,-1.2 1.1,-1.6 0.5,-0.2 0.9,0.4 1.4,0.7 m -5.1,-4.500062 c 0.8,0.700064 1.9,1.200064 2.5,2.100064 0.1,0.399998 -0.2,0.799998 -0.4,1.099998 -0.3,0.3 -0.7,0.5 -1.2,0.5 -0.5,0 -0.9,-0.3 -1.2,-0.7 -0.5,-0.799998 -1.2,-1.499998 -1.4,-2.299998 0.3,-0.500064 1,-1.300056 1.7,-0.700064 m -48.2,-0.799992 c -0.1,0.999992 -0.4,1.900056 -0.8,2.800056 -0.3,0.599998 -1.2,0.399998 -1.8,0.3 -0.6,-0.2 -1.6,-0.3 -1.7,-1.2 -0.1,-0.800064 0.3,-1.600056 0.7,-2.200056 0.9,-0.1 2,0.1 2.9,-0.1 0.4,0 0.7,0.1 0.7,0.4" />

























</svg>