<svg
   viewBox="0 0 25.4 25.4"
   height="1in"
   width="1in">
  <g
     transform="translate(0,-271.6)"
     id="layer1">
    <g
       transform="matrix(0.35277777,0,0,-0.35277777,9.501728,273.93212)"
       id="g686">
      <path
         id="path688"
         style="fill:#ffffff;fill-opacity:1;fill-rule:nonzero;stroke:none"
         d="M 0,0 -0.756,-0.201 -18.44,-53.227 0,-58.171 l 15.705,53.683 1.381,0.392 z m 0.021,-1.033 14.627,-3.507 -15.333,-52.412 -16.47,4.416 z" />
    </g>
    <g
       transform="matrix(0.35277777,0,0,-0.35277777,11.173471,273.48755)"
       id="g690">
      <path
         id="path692"
         style="fill:#ffffff;fill-opacity:1;fill-rule:nonzero;stroke:none"
         d="m 0,0 -5.495,-1.461 0.079,-1.054 14.961,-3.636 7.008,1.988 z m 0.007,-1.033 12.678,-3.188 -3.16,-0.896 -12.997,3.159 z" />
    </g>
    <g
       transform="matrix(0.35277777,0,0,-0.35277777,13.927501,284.5284)"
       id="g694">
      <path
         id="path696"
         style="fill:#ffffff;fill-opacity:1;fill-rule:nonzero;stroke:none"
         d="m 0,0 -2.277,-8.592 16.099,4.923 z M 0.71,-1.223 10.18,-3.737 -0.85,-7.11 Z" />
    </g>
    <g
       transform="matrix(0.35277777,0,0,-0.35277777,18.944249,287.18164)"
       id="g698">
      <path
         id="path700"
         style="fill:#ffffff;fill-opacity:1;fill-rule:nonzero;stroke:none"
         d="m 0,0 -17.965,-4.766 v -2.933 l 20.193,-5.213 z m -0.8,-1.247 1.779,-10.31 -17.944,4.632 v 1.389 z" />
    </g>
    <g
       transform="matrix(0.35277777,0,0,-0.35277777,15.881044,277.69644)"
       id="g702">
      <path
         id="path704"
         style="fill:#ffffff;fill-opacity:1;fill-rule:nonzero;stroke:none"
         d="M 0,0 -6.79,-20.408 6.878,-24.25 Z m -0.076,-3.396 5.504,-19.407 -10.938,3.074 z" />
    </g>
    <g
       transform="matrix(0.35277777,0,0,-0.35277777,13.927501,286.62129)"
       id="g706">
      <path
         id="path708"
         style="fill:#ffffff;fill-opacity:1;fill-rule:nonzero;stroke:none"
         d="M 0,0 5.742,21.692 11.048,3 Z m 8.747,33.067 -5.588,-1.586 -15.704,-53.683 7.097,1.888 3.247,12.232 15.402,4.077 3.247,-10.495 7.173,1.963 z" />
    </g>
    <g
       transform="matrix(0.35277777,0,0,-0.35277777,10.709252,275.91635)"
       id="g1150">
      <path
         id="path1152"
         style="fill:none;stroke:#ffffff;stroke-width:1;stroke-linecap:butt;stroke-linejoin:miter;stroke-miterlimit:10;stroke-dasharray:none;stroke-opacity:1"
         d="M 0,0 -13.67,-44.845" />
    </g>
    <g
       transform="matrix(0.35277777,0,0,-0.35277777,12.467107,276.28271)"
       id="g1154">
      <path
         id="path1156"
         style="fill:none;stroke:#ffffff;stroke-width:1;stroke-linecap:butt;stroke-linejoin:miter;stroke-miterlimit:10;stroke-dasharray:none;stroke-opacity:1"
         d="M 0,0 -13.67,-44.845" />
    </g>
  </g>
</svg>
