<svg
   viewBox="0 0 25.4 25.4"
   height="1in"
   width="1in">
  <g
     transform="translate(0,-271.6)"
     id="layer1">
    <g
       transform="matrix(0.296509,0,0,-0.296509,17.87596,278.80017)"
       id="g778">
      <path
         id="path780"
         style="fill:#ffffff;fill-opacity:1;fill-rule:nonzero;stroke:none"
         d="M 0,0 -9.313,-1.923 2.78,-4.987 Z m -0.516,-1.127 1.293,-2.321 -5.626,1.426 z" />
    </g>
    <g
       transform="matrix(0.296509,0,0,-0.296509,15.103987,291.2117)"
       id="g782">
      <path
         id="path784"
         style="fill:#891b2f;fill-opacity:1;fill-rule:nonzero;stroke:none"
         d="M 0,0 C -1.146,0 -2.194,0.248 -3.116,0.736 -5.313,1.9 -9.033,5.6 -10.041,9.843 c -0.634,2.673 0.181,5.661 0.53,6.744 L 12.066,10.96 15.317,8.665 C 13.513,6.891 6.109,0 0.001,0 Z" />
    </g>
    <g
       transform="matrix(0.296509,0,0,-0.296509,12.188413,286.11546)"
       id="g786">
      <path
         id="path788"
         style="fill:#ffffff;fill-opacity:1;fill-rule:nonzero;stroke:none"
         d="m 0,0 c 0,0 -1.527,-3.951 -0.694,-7.46 1.096,-4.621 5.095,-8.33 7.177,-9.433 1.048,-0.555 2.179,-0.794 3.35,-0.794 7.274,0 16.09,9.231 16.09,9.231 l -3.81,2.689 z m 0.661,-1.206 21.024,-5.482 2.684,-1.895 c -2.311,-2.206 -9.013,-8.104 -14.536,-8.104 -1.063,0 -2.033,0.228 -2.882,0.677 -1.644,0.872 -5.607,4.292 -6.672,8.781 -0.532,2.241 0.015,4.747 0.382,6.023" />
    </g>
    <g
       transform="matrix(0.296509,0,0,-0.296509,12.700663,275.8054)"
       id="g790">
      <path
         id="path792"
         style="fill:#ffffff;fill-opacity:1;fill-rule:nonzero;stroke:none"
         d="m 0,0 c -0.378,0 -0.677,-0.02 -0.932,-0.035 -8.114,-0.466 -13.862,-8.257 -14.695,-9.317 -0.833,-1.06 -4.772,-6.363 -6.287,-15.452 -1.515,-9.09 -0.076,-16.665 2.878,-21.74 2.954,-5.075 10.983,-6.741 10.983,-6.741 l 13.142,-3.398 -9.167,12.182 2.35,21.172 10.901,15.307 9.896,3.606 c 0,0 -11.224,2.894 -14.497,3.719 C 2.264,-0.116 0.905,0 0,0 m 0,-1 c 1.132,0 2.547,-0.218 4.328,-0.667 2.148,-0.541 7.793,-1.992 11.37,-2.913 L 8.831,-7.083 8.539,-7.189 8.358,-7.442 l -10.9,-15.307 -0.15,-0.211 -0.029,-0.258 -2.351,-21.173 -0.044,-0.395 0.239,-0.317 7.447,-9.896 -10.419,2.693 c -0.076,0.015 -7.631,1.642 -10.322,6.265 -3.143,5.399 -4.122,12.882 -2.757,21.072 1.424,8.541 5.019,13.64 6.087,14.999 l 0.114,0.147 c 4.183,5.395 9.102,8.517 13.852,8.79 l 0.083,0.005 C -0.571,-1.016 -0.315,-1 0,-1" />
    </g>
    <g
       transform="matrix(0.296509,0,0,-0.296509,18.700196,280.27879)"
       id="g794">
      <path
         id="path796"
         style="fill:#ffffff;fill-opacity:1;fill-rule:nonzero;stroke:none"
         d="m 0,0 4.924,6.666 c 0,0 -2.652,5.151 -10.757,4.545 -8.105,-0.606 -13.861,-8.257 -14.694,-9.317 -0.833,-1.061 -4.772,-6.363 -6.287,-15.453 -1.516,-9.089 -0.076,-16.664 2.878,-21.739 2.954,-5.075 7.12,-6.666 10.983,-6.742 3.864,-0.075 9.923,1.97 13.711,6.439 3.787,4.469 4.544,6.514 4.544,6.514 l -5.15,3.636 c 0,0 -1.995,-4.676 -5.454,-6.59 -3.106,-1.591 -4.242,-1.742 -5.378,-1.818 -1.136,-0.076 -4.057,0.241 -6.06,2.575 -2.364,2.756 -3.03,5.227 -3.257,7.803 -0.228,2.575 -1.212,10.755 2.424,17.573 3.635,6.817 8.256,9.014 10.907,9.09 C -4.015,3.257 -2.045,3.106 0,0" />
    </g>
    <g
       transform="matrix(0.296509,0,0,-0.296509,16.907532,273.69959)"
       id="g798">
      <path
         id="path800"
         style="fill:none;stroke:#ffffff;stroke-width:1;stroke-linecap:butt;stroke-linejoin:miter;stroke-miterlimit:10;stroke-dasharray:3, 3, 3, 3, 3, 3;stroke-dashoffset:0;stroke-opacity:1"
         d="m 0,0 c -10.802,-0.621 -18.453,-10.991 -19.562,-12.403 -1.109,-1.411 -6.353,-8.47 -8.37,-20.57 -2.016,-12.1 -0.1,-22.184 3.832,-28.94 3.933,-6.756 14.621,-8.974 14.621,-8.974" />
    </g>
    <g
       transform="matrix(0.296509,0,0,-0.296509,16.820508,273.01779)"
       id="g802">
      <path
         id="path804"
         style="fill:none;stroke:#ffffff;stroke-width:1;stroke-linecap:butt;stroke-linejoin:miter;stroke-miterlimit:10;stroke-dasharray:none;stroke-opacity:1"
         d="M 0,0 2.574,-2.151 0.606,-4.648" />
    </g>
    <g
       transform="matrix(0.296509,0,0,-0.296509,14.532406,293.94151)"
       id="g806">
      <path
         id="path808"
         style="fill:none;stroke:#ffffff;stroke-width:1;stroke-linecap:butt;stroke-linejoin:miter;stroke-miterlimit:10;stroke-dasharray:none;stroke-opacity:1"
         d="M 0,0 1.932,-2.743 -0.614,-4.647" />
    </g>
  </g>
</svg>
