<svg
   viewBox="0 0 297 297"
   height="1122.5197"
   width="1122.5197">
  <g
     id="layer1">
    <g
       transform="matrix(0.81466736,0,0,-0.81466736,103.20459,189.97683)">
      <path
         style="fill:#eecc0a;fill-opacity:1;fill-rule:nonzero;stroke:none"
         d="m 0,0 c 0,0 1.75,6.855 12.639,4.839 10.89,-2.017 22.989,-6.857 26.216,7.26 3.227,14.116 -0.286,26.856 -11.638,35.611 l -10.042,8.189 30.482,4.33 28.777,-4.33 18.691,-46.061 -16.929,-37.4 -11.935,-54.624 -43.263,13.555 -28.657,38.313 z" />
    </g>
    <g
       transform="matrix(0.81466736,0,0,-0.81466736,103.20459,189.97683)">
      <path
         style="fill:none;stroke:#ffffff;stroke-width:2;stroke-linecap:butt;stroke-linejoin:miter;stroke-miterlimit:10;stroke-dasharray:none;stroke-opacity:1"
         d="m 0,0 c 0,0 1.75,6.855 12.639,4.839 10.89,-2.017 22.989,-6.857 26.216,7.26 3.227,14.116 -0.286,26.856 -11.638,35.611 l -10.042,8.189 30.482,4.33 28.777,-4.33 18.691,-46.061 -16.929,-37.4 -11.935,-54.624 -43.263,13.555 -28.657,38.313 z" />
    </g>
    <g
       transform="matrix(0.81466736,0,0,-0.81466736,157.30639,30.601188)">
      <path
         style="fill:#eecc0a;fill-opacity:1;fill-rule:nonzero;stroke:none"
         d="m 0,0 c 0,0 -34.411,-5.265 -56.19,-13.331 -21.78,-8.066 -26.62,-18.149 -27.023,-24.603 -0.404,-6.454 5.646,-9.277 16.133,-14.923 10.486,-5.647 18.956,-15.327 18.956,-32.669 0,-17.343 -10.245,-23.643 -10.245,-23.643 l -4.953,-12.899 55.637,-6.025 z" />
    </g>
    <g
       transform="matrix(0.81466736,0,0,-0.81466736,157.30639,30.601188)">
      <path
         style="fill:none;stroke:#ffffff;stroke-width:2;stroke-linecap:butt;stroke-linejoin:miter;stroke-miterlimit:10;stroke-dasharray:none;stroke-opacity:1"
         d="m 0,0 c 0,0 -34.411,-5.265 -56.19,-13.331 -21.78,-8.066 -26.62,-18.149 -27.023,-24.603 -0.404,-6.454 5.646,-9.277 16.133,-14.923 10.486,-5.647 18.956,-15.327 18.956,-32.669 0,-17.343 -10.245,-23.643 -10.245,-23.643 l -4.953,-12.899 55.637,-6.025 z" />
    </g>
    <g
       transform="matrix(0.81466736,0,0,-0.81466736,177.75782,54.536027)">
      <path
         style="fill:#eecc0a;fill-opacity:1;fill-rule:nonzero;stroke:none"
         d="M 0,0 C 33.131,-22.562 30.402,-49.084 28.734,-80.399 27.066,-111.716 6.786,-130.356 6.786,-130.356 l 8.018,-22.41 37.155,5.024 L 88.677,-83.44 57.343,11.41 18.337,21.178 -15.08,11.41 Z" />
    </g>
    <g
       transform="matrix(0.81466736,0,0,-0.81466736,177.75782,54.536027)">
      <path
         style="fill:none;stroke:#ffffff;stroke-width:2;stroke-linecap:butt;stroke-linejoin:miter;stroke-miterlimit:10;stroke-dasharray:none;stroke-opacity:1"
         d="M 0,0 C 33.131,-22.562 30.402,-49.084 28.734,-80.399 27.066,-111.716 6.786,-130.356 6.786,-130.356 l 8.018,-22.41 37.155,5.024 L 88.677,-83.44 57.343,11.41 18.337,21.178 -15.08,11.41 Z" />
    </g>
    <g
       transform="matrix(0.81466736,0,0,-0.81466736,90.3489,83.442404)">
      <path
         style="fill:#eecc0a;fill-opacity:1;fill-rule:nonzero;stroke:none"
         d="m 0,0 c 0,0 -35.916,-2.136 -38.2,-3.107 -3.602,-1.534 -24,-36.333 -27.667,-72.333 -3.666,-36 11.334,-73 22,-90.334 10.667,-17.333 39.334,-46 42.334,-47 3,-1 37.918,-11.745 37.918,-11.745 l -48.108,138.116 z" />
    </g>
    <g
       transform="matrix(0.81466736,0,0,-0.81466736,90.3489,83.442404)">
      <path
         style="fill:none;stroke:#ffffff;stroke-width:2;stroke-linecap:butt;stroke-linejoin:miter;stroke-miterlimit:10;stroke-dasharray:none;stroke-opacity:1"
         d="m 0,0 c 0,0 -35.916,-2.136 -38.2,-3.107 -3.602,-1.534 -24,-36.333 -27.667,-72.333 -3.666,-36 11.334,-73 22,-90.334 10.667,-17.333 39.334,-46 42.334,-47 3,-1 37.918,-11.745 37.918,-11.745 l -48.108,138.116 z" />
    </g>
    <g
       transform="matrix(0.81466736,0,0,-0.81466736,252.08505,234.45818)">
      <path
         style="fill:#eecc0a;fill-opacity:1;fill-rule:nonzero;stroke:#ffffff;stroke-width:2;stroke-linecap:butt;stroke-linejoin:miter;stroke-miterlimit:10;stroke-dasharray:none;stroke-opacity:1"
         d="M 0,0 -66.966,61.984 -82.425,40.99 c 0,0 17.517,-39.225 41.028,-42.393 22.772,-3.068 45.268,2.174 45.268,2.174" />
    </g>
    <g
       transform="matrix(0.81466736,0,0,-0.81466736,165.44949,107.15524)">
      <path
   style="fill:none;stroke:#ffffff;stroke-width:1;stroke-linecap:butt;stroke-linejoin:miter;stroke-miterlimit:10;stroke-dasharray:none;stroke-opacity:1"
         d="m 0,0 c 0.309,-19.354 11.614,-64.667 30.948,-72.667 19.333,-8 44.5,9.834 49.833,28.5 5.333,18.667 10.167,54.5 4.167,76.167 -6,21.667 -14.999,44 -41.166,44 C 17.614,76 -0.948,59.333 0,0 Z" />
    </g>
    <g
       transform="matrix(0.81466736,0,0,-0.81466736,230.00227,142.60598)">
      <path
         style="fill:#ffffff;fill-opacity:1;fill-rule:nonzero;stroke:none"
         d="m 0,0 c -5.333,-18.667 -28.957,-37.151 -48.291,-29.151 -19.333,8 -30.638,53.312 -30.947,72.667 -0.948,59.333 17.614,76 43.781,76 26.168,0 35.166,-22.334 41.166,-44 C 11.709,53.849 5.333,18.666 0,0 m 34.987,-85.86 c -8.558,6.845 -23.961,26.242 -23.961,53.055 0,26.813 19.397,54.196 23.961,61.041 4.564,6.846 7.987,14.833 6.275,27.954 -1.711,13.122 -27.383,53.055 -39.934,63.894 -12.551,10.84 -35.94,29.095 -85.572,19.968 -49.632,-9.128 -51.914,-30.807 -51.344,-34.23 0.571,-3.423 1.712,-9.128 12.551,-14.261 10.839,-5.135 24.531,-15.404 23.96,-37.653 -0.57,-22.249 -15.403,-34.8 -30.235,-32.517 -14.833,2.282 -30.236,11.98 -32.518,27.954 -2.282,15.973 -3.993,24.53 -8.557,24.53 -4.564,0 -19.397,-16.544 -26.242,-46.779 -6.846,-30.236 -11.981,-81.009 11.409,-118.66 23.39,-37.653 39.739,-53.422 44.303,-57.986 4.563,-4.564 11.98,-5.135 16.543,-2.852 4.564,2.281 0.767,14.057 -6.08,24.897 -6.845,10.839 -20.762,39.436 -22.248,50.773 0,0 -3.994,18.826 0,35.37 3.993,16.544 14.832,34.8 41.645,33.088 26.813,-1.711 31.376,-15.404 34.229,-23.39 2.852,-7.987 -0.57,-21.679 -3.423,-26.242 -2.853,-4.565 -10.839,-11.981 -19.396,-6.846 -8.558,5.134 -17.686,5.705 -20.538,-5.135 -2.852,-10.839 -2.86,-37.347 9.69,-54.463 12.551,-17.114 20.654,-18.858 30.352,-17.147 9.698,1.712 17.007,22.549 17.577,31.106 0.57,8.557 1.141,40.504 22.819,47.35 21.679,6.846 41.271,-40.294 53.251,-47.14 11.98,-6.846 21.076,-5.34 27.889,3.989 5.257,7.199 2.151,13.486 -6.406,20.332" />
    </g>
  </g>
</svg>
