<svg
   viewBox="0 0 25.4 25.4"
   height="1in"
   width="1in">
  <g
     transform="translate(0,-271.6)"
     id="layer1">
    <g
       transform="matrix(0.31218365,0,0,-0.31218365,7.839689,275.89985)"
       id="g810">
      <path
         id="path812"
         style="fill:#ffffff;fill-opacity:1;fill-rule:nonzero;stroke:none"
         d="m 0,0 -1.39,-0.37 v -18.224 -31.141 l 15.906,-4.5 0.422,49.591 1.709,0.472 z m 0.007,-1.033 13.931,-3.491 v -0.112 l -0.411,-48.28 -13.917,3.937 v 30.385 17.455 z" />
    </g>
    <g
       transform="matrix(0.31218365,0,0,-0.31218365,13.546778,287.08574)"
       id="g814">
      <path
         id="path816"
         style="fill:#ffffff;fill-opacity:1;fill-rule:nonzero;stroke:none"
         d="m 0,0 v -12.404 l 17.91,5.608 v 1.97 z m 1,-1.305 15.91,-4.287 v -0.47 L 1,-11.043 Z" />
    </g>
    <g
       transform="matrix(0.31218365,0,0,-0.31218365,12.502928,277.34967)"
       id="g818">
      <path
         id="path820"
         style="fill:#ffffff;fill-opacity:1;fill-rule:nonzero;stroke:none"
         d="m 0,0 6.41,1.771 -0.253,-41.748 15.096,3.964 v -7.843 l -21.674,-5.735 z" />
    </g>
    <g
       transform="matrix(0.31218365,0,0,-0.31218365,9.4567032,275.46986)"
       id="g822">
      <path
         id="path824"
         style="fill:#ffffff;fill-opacity:1;fill-rule:nonzero;stroke:none"
         d="M 0,0 -6.569,-1.747 V -2.512 L 8.803,-6.286 16.167,-4.25 Z M 0.001,-1.034 12.326,-4.274 8.788,-5.252 -4.028,-2.106 Z" />
    </g>
    <g
       transform="matrix(0.31218365,0,0,-0.31218365,19.815146,293.44162)"
       id="g826">
      <path
         id="path828"
         style="fill:none;stroke:#ffffff;stroke-width:1;stroke-linecap:butt;stroke-linejoin:miter;stroke-miterlimit:10;stroke-dasharray:3, 3, 3, 3, 3, 3;stroke-dashoffset:0;stroke-opacity:1"
         d="m 0,0 -23.85,-6.485 -21.968,6.329" />
    </g>
    <g
       transform="matrix(0.31218365,0,0,-0.31218365,19.815146,273.198)"
       id="g830">
      <path
         id="path832"
         style="fill:none;stroke:#ffffff;stroke-width:1;stroke-linecap:butt;stroke-linejoin:miter;stroke-miterlimit:10;stroke-dasharray:3, 3, 3, 3, 3, 3;stroke-dashoffset:0;stroke-opacity:1"
         d="m 0,0 -23.85,-6.485 -21.968,6.329" />
    </g>
  </g>
</svg>
