<?xml version="1.0" encoding="UTF-8" standalone="no"?>
<svg
   xmlns:dc="http://purl.org/dc/elements/1.1/"
   xmlns:cc="http://creativecommons.org/ns#"
   xmlns:rdf="http://www.w3.org/1999/02/22-rdf-syntax-ns#"
   xmlns:svg="http://www.w3.org/2000/svg"
   xmlns="http://www.w3.org/2000/svg"
   id="svg759"
   version="1.1"
   viewBox="0 0 170 130"
   height="130mm"
   width="170mm">
  <defs
     id="defs753">
    <clipPath
       id="clipPath328"
       clipPathUnits="userSpaceOnUse">
      <path
         id="path326"
         d="M 0,973.005 H 616 V 0 H 0 Z" />
    </clipPath>
    <clipPath
       id="clipPath336"
       clipPathUnits="userSpaceOnUse">
      <path
         id="path334"
         d="M 101.74,648.885 H 509.408 V 478.392 H 101.74 Z" />
    </clipPath>
    <clipPath
       id="clipPath340"
       clipPathUnits="userSpaceOnUse">
      <path
         id="path338"
         d="m 106.557,529.118 -0.035,-0.276 -4.368,-38.041 402.438,107.357 0.035,0.279 4.367,38.038 z" />
    </clipPath>
    <clipPath
       id="clipPath164"
       clipPathUnits="userSpaceOnUse">
      <path
         id="path162"
         d="M 0,973.005 H 616 V 0 H 0 Z" />
    </clipPath>
    <clipPath
       id="clipPath80"
       clipPathUnits="userSpaceOnUse">
      <path
         id="path78"
         d="M 0,973.005 H 616 V 0 H 0 Z" />
    </clipPath>
  </defs>
  <metadata
     id="metadata756">
    <rdf:RDF>
      <cc:Work
         rdf:about="">
        <dc:format>image/svg+xml</dc:format>
        <dc:type
           rdf:resource="http://purl.org/dc/dcmitype/StillImage" />
        <dc:title></dc:title>
      </cc:Work>
    </rdf:RDF>
  </metadata>
  <g
     transform="translate(0,-167)"
     id="layer1">
    <g
       transform="matrix(0.20443247,0,0,-0.20443247,59.131736,221.64693)"
       id="g34">
      <path
         id="path36"
         style="fill:none;stroke:#ffffff;stroke-width:2;stroke-linecap:butt;stroke-linejoin:miter;stroke-miterlimit:10;stroke-dasharray:none;stroke-opacity:1"
         d="M 0,0 16.661,-4.468 57.648,135.639 14.687,146.825 -23.285,32.963" />
    </g>
    <g
       transform="matrix(0.20443247,0,0,-0.20443247,94.785641,210.61626)"
       id="g38">
      <path
         id="path40"
         style="fill:none;stroke:#ffffff;stroke-width:2;stroke-linecap:butt;stroke-linejoin:miter;stroke-miterlimit:10;stroke-dasharray:none;stroke-opacity:1"
         d="m 0,0 30.362,-8.193 -35.569,119.738 18.818,5.171 -42.305,10.833 -18.511,-4.924 34.377,-115.054" />
    </g>
    <g
       transform="matrix(0.20443247,0,0,-0.20443247,85.621111,207.11577)"
       id="g42">
      <path
         id="path44"
         style="fill:#ffffff;fill-opacity:1;fill-rule:nonzero;stroke:none"
         d="m 0,0 v -32.375 l 46.742,14.638 v 5.142 z m 2,-2.61 42.742,-11.517 v -2.141 L 2,-29.652 Z" />
    </g>
    <g
       transform="matrix(0.20443247,0,0,-0.20443247,61.440184,200.64959)"
       id="g46">
      <path
         id="path48"
         style="fill:#ffffff;fill-opacity:1;fill-rule:nonzero;stroke:none"
         d="m 0,0 -36.889,-3.063 31.56,-7.996 z m -3.32,-2.283 -3.102,-6.436 -18.367,4.654 z" />
    </g>
    <g
       transform="matrix(0.20443247,0,0,-0.20443247,129.20176,173.82322)"
       id="g50">
      <path
         id="path52"
         style="fill:#ffffff;fill-opacity:1;fill-rule:nonzero;stroke:none"
         d="m 0,0 -18.511,-4.923 v -38.046 l -8.275,-9.459 -2.398,-81.858 10.673,-2.098 38.377,-9.4 8.846,29.272 3.326,85.3 10.157,20.119 z m 0.003,-2.069 39.293,-10.33 -9.043,-17.912 -0.196,-0.389 -0.017,-0.435 -3.316,-85.044 -8.224,-27.212 -36.535,8.95 -0.045,0.011 -0.045,0.009 -9.01,1.771 2.326,79.446 7.803,8.918 0.495,0.565 v 0.752 36.508 z" />
    </g>
    <g
       transform="matrix(0.20443247,0,0,-0.20443247,112.40058,179.79528)"
       id="g54">
      <path
         id="path56"
         style="fill:none;stroke:#ffffff;stroke-width:2;stroke-linecap:butt;stroke-linejoin:miter;stroke-miterlimit:10;stroke-dasharray:none;stroke-opacity:1"
         d="m 0,0 v 7.503 l 21.931,6.251 42.196,-11.093 -21.759,-6.248 -0.937,-129.5 -26.118,6.398" />
    </g>
    <g
       transform="matrix(0.20443247,0,0,-0.20443247,104.45944,199.53061)"
       id="g58">
      <path
         id="path60"
         style="fill:none;stroke:#ffffff;stroke-width:2;stroke-linecap:butt;stroke-linejoin:miter;stroke-miterlimit:10;stroke-dasharray:none;stroke-opacity:1"
         d="M 0,0 V -33.925 L 44.44,-46.176 V 83.237 L 60.707,87.64 18.511,98.733 0,93.81 V 62.454" />
    </g>
    <g
       transform="matrix(0.20443247,0,0,-0.20443247,103.06255,180.7268)"
       id="g62">
      <path
         id="path64"
         style="fill:#ffffff;fill-opacity:1;fill-rule:nonzero;stroke:none"
         d="m 0,0 -16.755,-4.457 -14.673,-52.568 30.418,-83.068 25.628,124.457 17.578,4.543 z m 0.002,-1.034 38.229,-10.051 -13.863,-3.582 -0.603,-0.156 -0.126,-0.611 -24.919,-121.013 -29.098,79.463 14.433,51.708 z" />
    </g>
    <g
       transform="matrix(0.20443247,0,0,-0.20443247,75.125981,188.17561)"
       id="g66">
      <path
         id="path68"
         style="fill:#ffffff;fill-opacity:1;fill-rule:nonzero;stroke:none"
         d="m 0,0 v -47.563 l 21.676,-87.407 19.835,-5.612 1.1,129.426 z M 2,-2.591 40.599,-12.696 39.533,-137.944 23.337,-133.362 2,-47.319 Z" />
    </g>
    <g
       transform="matrix(0.20443247,0,0,-0.20443247,64.89458,190.80818)"
       id="g70">
      <path
         id="path72"
         style="fill:#ffffff;fill-opacity:1;fill-rule:nonzero;stroke:none"
         d="m 0,0 -13.765,-3.513 0.262,-0.512 1.208,-0.315 41.754,-10.872 14.582,4.138 z m 0.004,-2.063 36.3,-9.128 -6.867,-1.949 -36.051,9.388 z" />
    </g>
    <g
       id="g74"
       transform="matrix(0.20443247,0,0,-0.20443247,19.856351,345.04959)">
      <g
         clip-path="url(#clipPath80)"
         id="g76">
        <g
           transform="translate(124.5078,596.5615)"
           id="g82">
          <path
             id="path84"
             style="fill:#891b30;fill-opacity:1;fill-rule:nonzero;stroke:none"
             d="m 0,0 c -0.252,0.054 -20.658,4.43 -28.051,17.129 -4.859,8.348 -12.28,26.732 -7.39,56.07 3.778,22.671 13.361,36.253 16.208,39.876 l 0.292,0.375 c 11.207,14.454 24.464,22.821 37.332,23.56 l 0.214,0.013 c 0.603,0.036 1.302,0.077 2.162,0.077 3.087,0 6.91,-0.585 11.687,-1.789 6.786,-1.71 26.922,-6.894 34.708,-8.899 L 44.072,117.997 15.293,77.583 9.085,21.673 31.528,-8.151 Z" />
        </g>
        <g
           transform="translate(145.2734,734.6611)"
           id="g86">
          <path
             id="path88"
             style="fill:#ffffff;fill-opacity:1;fill-rule:nonzero;stroke:none"
             d="m 0,0 c -0.986,0 -1.766,-0.052 -2.434,-0.091 -21.176,-1.217 -36.176,-21.548 -38.351,-24.316 -2.175,-2.767 -12.455,-16.606 -16.408,-40.329 -3.954,-23.722 -0.199,-43.492 7.511,-56.737 7.71,-13.245 28.665,-17.595 28.665,-17.595 l 34.298,-8.867 -23.924,31.792 6.134,55.258 28.449,39.949 25.828,9.412 c 0,0 -29.295,7.553 -37.835,9.705 C 5.908,-0.301 2.362,0 0,0 m 0,-2 c 3.005,0 6.748,-0.575 11.444,-1.758 6.006,-1.514 22.481,-5.751 31.581,-8.094 l -19.769,-7.205 -0.584,-0.213 -0.36,-0.506 -28.45,-39.949 -0.301,-0.423 -0.057,-0.516 -6.134,-55.258 -0.088,-0.789 0.478,-0.634 20.484,-27.222 -28.76,7.436 -0.046,0.012 -0.048,0.01 c -0.201,0.041 -20.164,4.31 -27.343,16.642 -8.273,14.212 -10.854,33.888 -7.268,55.403 3.739,22.43 13.199,35.845 16.008,39.421 l 0.296,0.381 c 11.027,14.221 24.024,22.452 36.599,23.175 l 0.215,0.012 C -1.503,-2.04 -0.824,-2 0,-2" />
        </g>
        <g
           transform="translate(241.5215,657.1108)"
           id="g90">
          <path
             id="path92"
             style="fill:#ffffff;fill-opacity:1;fill-rule:nonzero;stroke:none"
             d="M 0,0 14.987,56.614 28.835,7.829 Z M 22.828,86.301 8.246,82.163 -32.741,-57.943 l 18.523,4.926 8.474,31.923 40.199,10.641 8.473,-27.39 18.72,5.123 z" />
        </g>
        <g
           transform="translate(312.9678,756.2075)"
           id="g94">
          <path
             id="path96"
             style="fill:#ffffff;fill-opacity:1;fill-rule:nonzero;stroke:none"
             d="m 0,0 16.729,4.622 -0.661,-108.955 39.401,10.345 v -20.471 l -56.57,-14.967 z" />
        </g>
        <g
           transform="translate(198.082,695.2871)"
           id="g98">
          <path
             id="path100"
             style="fill:#ffffff;fill-opacity:1;fill-rule:nonzero;stroke:none"
             d="m 0,0 12.85,17.396 c 0,0 -6.919,13.444 -28.073,11.862 C -36.375,27.677 -51.399,7.71 -53.574,4.942 c -2.175,-2.768 -12.455,-16.606 -16.408,-40.329 -3.955,-23.723 -0.199,-43.492 7.511,-56.737 7.71,-13.246 18.583,-17.397 28.665,-17.595 10.083,-0.198 25.898,5.14 35.783,16.804 9.884,11.664 11.861,17.001 11.861,17.001 l -13.442,9.49 c 0,0 -5.208,-12.204 -14.235,-17.2 -8.105,-4.151 -11.07,-4.546 -14.036,-4.744 -2.965,-0.198 -10.587,0.629 -15.814,6.722 -6.171,7.19 -7.909,13.64 -8.501,20.362 -0.593,6.721 -3.164,28.072 6.326,45.864 9.489,17.792 21.548,23.525 28.468,23.723 C -10.478,8.5 -5.338,8.105 0,0" />
        </g>
        <g
           transform="translate(361.3164,769.1382)"
           id="g102">
          <path
             id="path104"
             style="fill:#ffffff;fill-opacity:1;fill-rule:nonzero;stroke:none"
             d="m 0,0 18.818,5.17 24.61,-93.061 26.885,106.917 17.578,4.55 -37.845,-139.385 -14.477,-3.929 z" />
        </g>
        <g
           transform="translate(458.2842,795.0566)"
           id="g106">
          <path
             id="path108"
             style="fill:#ffffff;fill-opacity:1;fill-rule:nonzero;stroke:none"
             d="M 0,0 16.267,4.545 V -124.629 L 0,-129.414 Z" />
        </g>
        <g
           transform="translate(494.1191,675.269)"
           id="g110">
          <path
             id="path112"
             style="fill:#ffffff;fill-opacity:1;fill-rule:nonzero;stroke:none"
             d="M 0,0 16.703,4.504 17.454,104.538 60.62,16.516 81.641,21.959 82.392,151.646 66.063,147.142 65.125,50.111 22.709,135.881 0.937,129.5 Z" />
        </g>
        <g
           transform="translate(287.5,771.9233)"
           id="g114">
          <path
             id="path116"
             style="fill:#ffffff;fill-opacity:1;fill-rule:nonzero;stroke:none"
             d="m 0,0 -17.144,-4.56 42.612,-11.156 16.728,4.622 z m 0.003,-2.069 34.511,-9.073 -9.06,-2.503 -34.76,9.1 z" />
        </g>
        <g
           transform="translate(437.4814,786.9771)"
           id="g118">
          <path
             id="path120"
             style="fill:none;stroke:#ffffff;stroke-width:1;stroke-linecap:butt;stroke-linejoin:miter;stroke-miterlimit:10;stroke-dasharray:none;stroke-opacity:1"
             d="M 0,0 -45.179,11.222" />
        </g>
        <g
           transform="translate(319.3184,780.2178)"
           id="g122">
          <path
             id="path124"
             style="fill:none;stroke:#ffffff;stroke-width:2;stroke-linecap:butt;stroke-linejoin:miter;stroke-miterlimit:10;stroke-dasharray:none;stroke-opacity:1"
             d="M 0,0 47.072,-11.89" />
        </g>
        <g
           transform="translate(-71.7139,526.187)"
           id="g126">
          <path
             id="path128"
             style="fill:none;stroke:#efcc0c;stroke-width:4;stroke-linecap:butt;stroke-linejoin:miter;stroke-miterlimit:10;stroke-dasharray:20, 20, 20, 20, 20, 20;stroke-dashoffset:0;stroke-opacity:1"
             d="M 0,0 719.84,189.288" />
        </g>
        <g
           transform="translate(183.7197,689.6245)"
           id="g130">
          <path
             id="path132"
             style="fill:none;stroke:#efcc0c;stroke-width:4;stroke-linecap:butt;stroke-linejoin:miter;stroke-miterlimit:10;stroke-dasharray:20, 20, 20, 20, 20, 20;stroke-dashoffset:0;stroke-opacity:1"
             d="m 0,0 c -10.186,-0.601 -17.399,-10.631 -18.445,-11.996 -1.046,-1.366 -5.991,-8.193 -7.892,-19.897 -1.902,-11.703 -0.096,-21.456 3.612,-27.991 3.709,-6.534 13.787,-8.68 13.787,-8.68" />
        </g>
        <g
           transform="translate(184.6572,691.8726)"
           id="g134">
          <path
             id="path136"
             style="fill:none;stroke:#efcc0c;stroke-width:4;stroke-linecap:butt;stroke-linejoin:miter;stroke-miterlimit:10;stroke-dasharray:20, 20, 20, 20, 20, 20;stroke-dashoffset:0;stroke-opacity:1"
             d="M 0,0 2.428,-2.081 0.571,-4.496" />
        </g>
        <g
           transform="translate(177.3662,622.8604)"
           id="g138">
          <path
             id="path140"
             style="fill:none;stroke:#efcc0c;stroke-width:4;stroke-linecap:butt;stroke-linejoin:miter;stroke-miterlimit:10;stroke-dasharray:20, 20, 20, 20, 20, 20;stroke-dashoffset:0;stroke-opacity:1"
             d="m 0,0 1.821,-2.653 -2.4,-1.842" />
        </g>
        <g
           transform="translate(-72.2617,653.6016)"
           id="g142">
          <path
             id="path144"
             style="fill:none;stroke:#efcc0c;stroke-width:4;stroke-linecap:butt;stroke-linejoin:miter;stroke-miterlimit:10;stroke-dasharray:20, 20, 20, 20, 20, 20;stroke-dashoffset:0;stroke-opacity:1"
             d="M 0,0 736.982,197.25" />
        </g>
        <g
           transform="translate(-142.3184,657.1108)"
           id="g146">
          <path
             id="path148"
             style="fill:none;stroke:#efcc0c;stroke-width:4;stroke-linecap:butt;stroke-linejoin:miter;stroke-miterlimit:10;stroke-dasharray:20, 20, 20, 20, 20, 20;stroke-dashoffset:0;stroke-opacity:1"
             d="M 0,0 725.255,193.741" />
        </g>
        <g
           transform="translate(242.1152,676.8555)"
           id="g150">
          <path
             id="path152"
             style="fill:#ffffff;fill-opacity:1;fill-rule:nonzero;stroke:none"
             d="M 0,0 -5.943,-22.424 36.073,-9.576 Z M 1.421,-2.446 28.79,-9.712 -3.089,-19.46 Z" />
        </g>
      </g>
    </g>
    <g
       transform="matrix(0.20443247,0,0,-0.20443247,120.44671,236.02039)"
       id="g154">
      <path
         id="path156"
         style="fill:#414ca8;fill-opacity:1;fill-rule:nonzero;stroke:#ffffff;stroke-width:2;stroke-linecap:butt;stroke-linejoin:bevel;stroke-miterlimit:10;stroke-dasharray:none;stroke-opacity:1"
         d="M 0,0 -35.884,9.058" />
    </g>
    <g
       id="g158"
       transform="matrix(0.20443247,0,0,-0.20443247,19.856351,345.04959)">
      <g
         clip-path="url(#clipPath164)"
         id="g160">
        <g
           transform="translate(413.5986,522.2246)"
           id="g166">
          <path
             id="path168"
             style="fill:none;stroke:#ffffff;stroke-width:2;stroke-linecap:butt;stroke-linejoin:miter;stroke-miterlimit:10;stroke-dasharray:none;stroke-opacity:1"
             d="m 0,0 c 4.249,6.423 8.772,9.941 9.703,10.665 1.566,1.218 11.918,10.613 25.488,10.439 2.76,-0.035 5.214,-0.395 7.373,-0.944" />
        </g>
        <g
           transform="translate(438.3428,424.9038)"
           id="g170">
          <path
             id="path172"
             style="fill:none;stroke:#ffffff;stroke-width:2;stroke-linecap:butt;stroke-linejoin:miter;stroke-miterlimit:10;stroke-dasharray:none;stroke-opacity:1"
             d="m 0,0 c 3.301,2.262 7.372,6.557 8.935,11.159 3.172,9.348 2.916,14.838 -0.687,20.498 -3.602,5.661 -15.437,6.433 -21.441,7.805 -6.004,1.372 -10.55,3.002 -14.924,8.405 -4.374,5.404 -8.32,16.382 -4.889,33.707" />
        </g>
        <g
           transform="translate(411.7695,431.6885)"
           id="g174">
          <path
             id="path176"
             style="fill:none;stroke:#ffffff;stroke-width:2;stroke-linecap:butt;stroke-linejoin:miter;stroke-miterlimit:10;stroke-dasharray:none;stroke-opacity:1"
             d="m 0,0 -12.179,-19.041 c 0,0 4.46,-10.72 22.729,-11.406" />
        </g>
        <g
           transform="translate(403.54,412.6704)"
           id="g178">
          <path
             id="path180"
             style="fill:#ffffff;fill-opacity:1;fill-rule:nonzero;stroke:none"
             d="m 0,0 11.017,-10.582 41.291,-9.267 -11.264,9.126 z M 6.923,-3.876 40.12,-12.549 44.413,-16.027 12,-8.752 Z" />
        </g>
        <g
           transform="translate(411.7695,431.6885)"
           id="g182">
          <path
             id="path184"
             style="fill:#ffffff;fill-opacity:1;fill-rule:nonzero;stroke:none"
             d="m 0,0 -12.179,-19.041 36.154,-8.597 12.178,19.04 z m 0.92,-2.274 32.031,-7.618 -9.896,-15.472 -32.032,7.618 z" />
        </g>
        <g
           transform="translate(354.6699,445.4673)"
           id="g186">
          <path
             id="path188"
             style="fill:none;stroke:#ffffff;stroke-width:2;stroke-linecap:butt;stroke-linejoin:miter;stroke-miterlimit:10;stroke-dasharray:none;stroke-opacity:1"
             d="M 0,0 21.427,-6.257 57.164,66.553 11.708,79.16 11.328,79.054 0,59.846" />
        </g>
        <g
           transform="translate(41.2041,438.2676)"
           id="g190">
          <path
             id="path192"
             style="fill:#ffffff;fill-opacity:1;fill-rule:nonzero;stroke:none"
             d="m 0,0 -18.903,-5.027 v -131.539 l 45.353,-11.84 10.584,3.113 6.026,117.759 0.029,16.206 z m 0.003,-2.068 41.082,-10.802 -0.025,-14.611 -5.952,-116.293 -8.69,-2.557 -43.321,11.31 V -6.565 Z" />
        </g>
        <g
           transform="translate(306.6514,465.7935)"
           id="g194">
          <path
             id="path196"
             style="fill:none;stroke:#ffffff;stroke-width:2;stroke-linecap:butt;stroke-linejoin:miter;stroke-miterlimit:10;stroke-dasharray:none;stroke-opacity:1"
             d="M 0,0 V -68.325" />
        </g>
        <g
           transform="translate(317.584,374.7505)"
           id="g198">
          <path
             id="path200"
             style="fill:none;stroke:#ffffff;stroke-width:2;stroke-linecap:butt;stroke-linejoin:miter;stroke-miterlimit:10;stroke-dasharray:none;stroke-opacity:1"
             d="m 0,0 33.41,-7.337 -0.472,125.338 v 3.338 l -43.871,12.836 v -15.757" />
        </g>
        <g
           transform="translate(364.9336,442.4438)"
           id="g202">
          <path
             id="path204"
             style="fill:#ffffff;fill-opacity:1;fill-rule:nonzero;stroke:none"
             d="m 0,0 -2.688,-48.651 46.459,-10.896 z m 1.689,-5.675 37.258,-50.687 -39.545,9.275 z" />
        </g>
        <g
           transform="translate(308.9883,477.0303)"
           id="g206">
          <path
             id="path208"
             style="fill:#ffffff;fill-opacity:1;fill-rule:nonzero;stroke:none"
             d="m 0,0 -14.535,-8.752 32.226,-8.165 8.7,11.7 z m 0.37,-2.112 22.526,-4.453 -6.01,-8.085 -26.281,6.659 z" />
        </g>
        <g
           transform="translate(268.375,407.8525)"
           id="g210">
          <path
             id="path212"
             style="fill:#ffffff;fill-opacity:1;fill-rule:nonzero;stroke:none"
             d="m 0,0 c 0,0 6.6,-42.191 17.277,-45.022 2.54,-0.673 5.099,-0.976 7.647,-0.976 22.441,0 44.008,23.464 44.008,23.464 l -9.998,7.166 z m 2.496,-2.718 55.574,-14.492 7.798,-5.588 c -5.302,-5.211 -23.035,-21.2 -40.944,-21.2 -2.459,0 -4.86,0.306 -7.133,0.909 -1.672,0.443 -6.109,3.486 -11.219,22.137 -1.976,7.212 -3.373,14.339 -4.076,18.234" />
        </g>
        <g
           transform="translate(273.7402,500.8262)"
           id="g214">
          <path
             id="path216"
             style="fill:#ffffff;fill-opacity:1;fill-rule:nonzero;stroke:none"
             d="m 0,0 c -1.007,0 -1.803,-0.054 -2.484,-0.093 -21.625,-1.243 -34.825,-23.558 -37.045,-26.385 -2.221,-2.826 -12.718,-16.957 -16.756,-41.182 -4.037,-24.225 -0.201,-44.412 7.672,-57.938 7.873,-13.526 29.271,-17.966 29.271,-17.966 l 35.024,-9.055 -24.43,32.465 6.264,56.426 29.05,40.794 24.254,11.166 c 0,0 -29.914,7.713 -38.634,9.91 C 6.033,-0.308 2.412,0 0,0 m 0,-2 c 3.072,0 6.897,-0.588 11.696,-1.797 6.345,-1.599 24.127,-6.173 33.182,-8.505 l -19.148,-8.815 -0.484,-0.223 -0.309,-0.433 -29.05,-40.794 -0.302,-0.423 -0.058,-0.517 -6.263,-56.427 -0.088,-0.789 0.477,-0.634 20.992,-27.894 -29.487,7.623 -0.047,0.012 -0.047,0.01 c -0.205,0.043 -20.609,4.405 -27.949,17.014 -8.453,14.522 -11.09,34.624 -7.428,56.603 3.821,22.915 13.485,36.621 16.356,40.276 0.259,0.329 0.597,0.815 1.064,1.487 3.965,5.707 16.034,23.074 34.524,24.137 l 0.221,0.012 C -1.536,-2.041 -0.842,-2 0,-2" />
        </g>
        <g
           transform="translate(139.9775,318.4795)"
           id="g218">
          <path
             id="path220"
             style="fill:none;stroke:#ffffff;stroke-width:2;stroke-linecap:butt;stroke-linejoin:miter;stroke-miterlimit:10;stroke-dasharray:none;stroke-opacity:1"
             d="M 0,0 15.613,-4.187 57.468,138.884 15.612,149.523 13.67,150.017 -5.756,91.978" />
        </g>
        <g
           transform="translate(226.9238,369.2285)"
           id="g222">
          <path
             id="path224"
             style="fill:#ffffff;fill-opacity:1;fill-rule:nonzero;stroke:none"
             d="m 0,0 -47.877,-12.702 v -7.817 L 5.937,-34.41 Z m -0.799,-1.247 5.486,-31.809 -51.564,13.312 v 6.273 z" />
        </g>
        <g
           transform="translate(189.0244,373.4624)"
           id="g226">
          <path
             id="path228"
             style="fill:#ffffff;fill-opacity:1;fill-rule:nonzero;stroke:none"
             d="M 0,0 15.305,57.812 29.444,7.995 Z m 23.312,88.127 -14.891,-4.226 -41.855,-143.07 18.915,5.03 8.653,32.599 41.05,10.866 8.652,-27.97 19.116,5.231 z" />
        </g>
        <g
           transform="translate(103.1953,454.5605)"
           id="g230">
          <path
             id="path232"
             style="fill:#ffffff;fill-opacity:1;fill-rule:nonzero;stroke:none"
             d="m 0,0 -18.902,-5.028 v -131.538 l 45.797,-11.994 11.279,7.115 -5.262,118.831 9.051,1.405 1.543,9.442 z m -0.004,-2.071 41.244,-11.155 -1.017,-6.23 -7.618,-1.182 -1.77,-0.275 0.079,-1.79 5.211,-117.67 -9.563,-6.031 -43.464,11.382 V -6.565 Z" />
        </g>
        <g
           transform="translate(81.0879,397.8916)"
           id="g234">
          <path
             id="path236"
             style="fill:#891b2f;fill-opacity:1;fill-rule:nonzero;stroke:none"
             d="M 0,0 60.343,-16.435 -0.832,-33.096 Z" />
        </g>
        <g
           transform="translate(80.1201,399.1914)"
           id="g238">
          <path
             id="path240"
             style="fill:#ffffff;fill-opacity:1;fill-rule:nonzero;stroke:none"
             d="m 0,0 -0.897,-35.714 66.013,17.98 z M 1.935,-2.6 57.506,-17.734 1.169,-33.078 Z" />
        </g>
        <g
           transform="translate(130.0908,438.1528)"
           id="g242">
          <path
             id="path244"
             style="fill:#ffffff;fill-opacity:1;fill-rule:nonzero;stroke:none"
             d="M 0,0 V -52.155 L -45.826,-64.17 v 52.671 l -16.612,-4.641 v -132.152 l 16.612,4.886 v 58.465 L 0,-72.739 v -59.413 l 16.61,4.886 V 4.641 Z" />
        </g>
        <g
           transform="translate(326.8398,460.2524)"
           id="g246">
          <path
             id="path248"
             style="fill:#ffffff;fill-opacity:1;fill-rule:nonzero;stroke:none"
             d="m 0,0 13.122,17.765 c 0,0 -7.065,13.727 -28.666,12.112 -21.601,-1.615 -36.943,-22.004 -39.164,-24.83 -2.221,-2.826 -12.718,-16.958 -16.756,-41.183 -4.037,-24.224 -0.201,-44.412 7.672,-57.937 7.873,-13.526 18.976,-17.765 29.271,-17.967 10.296,-0.202 26.446,5.248 36.54,17.159 10.093,11.911 12.112,17.361 12.112,17.361 l -13.728,9.69 c 0,0 -6.257,-13.323 -14.534,-17.563 -8.277,-4.239 -11.306,-4.643 -14.333,-4.845 -3.028,-0.202 -11.103,0.404 -16.15,6.864 -5.047,6.46 -8.075,13.929 -8.681,20.793 -0.605,6.864 -3.229,28.666 6.46,46.835 9.69,18.168 22.004,24.023 29.07,24.225 C -10.699,8.681 -5.45,8.277 0,0" />
        </g>
        <g
           transform="translate(491.5781,507.9146)"
           id="g250">
          <path
             id="path252"
             style="fill:#ffffff;fill-opacity:1;fill-rule:nonzero;stroke:none"
             d="m 0,0 11.064,19.726 c 0,0 -6.089,7.891 -19.469,8.063 -13.379,0.171 -23.586,-9.092 -25.129,-10.293 -1.544,-1.201 -13.123,-10.206 -16.554,-27.531 -3.431,-17.325 0.515,-28.303 4.889,-33.707 4.374,-5.403 8.92,-7.032 14.924,-8.404 6.004,-1.373 17.839,-2.145 21.441,-7.806 3.603,-5.66 3.86,-11.149 0.687,-20.498 -3.174,-9.348 -13.038,-13.551 -16.982,-13.894 -3.945,-0.343 -9.264,0.772 -11.321,2.23 -2.059,1.458 -5.404,3.774 -7.205,7.29 l -12.179,-19.04 c 0,0 4.46,-10.721 22.729,-11.407 18.268,-0.687 30.189,13.808 32.248,15.952 2.058,2.145 9.963,14.04 11.579,28.677 0.463,4.201 1.625,19.459 -3.749,26.89 -5.374,7.431 -8.061,8.896 -14.901,10.606 -6.84,1.71 -16.282,3.169 -18.021,3.987 -4.377,2.058 -4.775,3.108 -5.4,3.79 -0.625,0.681 -2.655,4.07 -2.716,8.528 -0.061,4.458 0.668,13.772 9.71,20.153 8.501,5.999 14.713,3.47 16.244,3.053 C -6.918,6.041 -3.613,5.054 0,0" />
        </g>
        <g
           transform="translate(170.0742,472.8647)"
           id="g254">
          <path
             id="path256"
             style="fill:#ffffff;fill-opacity:1;fill-rule:nonzero;stroke:none"
             d="m 0,0 -16.719,-3.855 0.293,-0.514 43.797,-11.132 14.891,4.225 z m -0.035,-2.061 34.761,-9.274 -7.384,-2.095 -36.476,9.271 z" />
        </g>
        <g
           transform="translate(323.4766,513.9751)"
           id="g258">
          <path
             id="path260"
             style="fill:#ffffff;fill-opacity:1;fill-rule:nonzero;stroke:none"
             d="m 0,0 -17.839,-3.699 v -2.025 l 46.185,-12.542 15.808,2.78 0.018,3.833 z m -0.055,-2.054 42.22,-11.138 -0.003,-0.614 -13.724,-2.413 -41.912,11.383 z" />
        </g>
        <g
           transform="translate(385.6562,530.0186)"
           id="g262">
          <path
             id="path264"
             style="fill:#ffffff;fill-opacity:1;fill-rule:nonzero;stroke:none"
             d="m 0,0 -20.268,-4.632 v -0.862 l 45.601,-12.926 15.81,2.78 4.211,4.97 z m -0.007,-2.053 41.723,-9.816 -1.632,-1.926 -14.647,-2.576 -39.322,11.146 z" />
        </g>
        <g
           transform="translate(23.2324,433.1333)"
           id="g266">
          <path
             id="path268"
             style="fill:none;stroke:#ffffff;stroke-width:2;stroke-linecap:butt;stroke-linejoin:miter;stroke-miterlimit:10;stroke-dasharray:none;stroke-opacity:1"
             d="M 0,0 46.271,-12.364" />
        </g>
        <g
           transform="translate(85.0752,449.3145)"
           id="g270">
          <path
             id="path272"
             style="fill:none;stroke:#ffffff;stroke-width:2;stroke-linecap:butt;stroke-linejoin:miter;stroke-miterlimit:10;stroke-dasharray:none;stroke-opacity:1"
             d="M 0,0 50.563,-14.125" />
        </g>
        <g
           transform="translate(83.7051,294.5781)"
           id="g274">
          <path
             id="path276"
             style="fill:#ffffff;fill-opacity:1;fill-rule:nonzero;stroke:none"
             d="M 0,0 4.76,1.34 V 70.668 L -3.585,62.323 Z" />
        </g>
        <g
           transform="translate(207.4219,444.208)"
           id="g278">
          <path
             id="path280"
             style="fill:#ffffff;fill-opacity:1;fill-rule:nonzero;stroke:none"
             d="M 0,0 -18.097,-54.389 18.33,-64.627 Z m -0.152,-6.792 15.582,-54.942 -30.967,8.703 z" />
        </g>
        <g
           transform="translate(-85.0664,380.1172)"
           id="g282">
          <path
             id="path284"
             style="fill:none;stroke:#efcc0c;stroke-width:4;stroke-linecap:butt;stroke-linejoin:miter;stroke-miterlimit:10;stroke-dasharray:20, 20, 20, 20, 20, 20;stroke-dashoffset:0;stroke-opacity:1"
             d="M 0,0 718.865,193.758" />
        </g>
        <g
           transform="translate(-69.2432,253.3984)"
           id="g286">
          <path
             id="path288"
             style="fill:none;stroke:#efcc0c;stroke-width:4;stroke-linecap:butt;stroke-linejoin:miter;stroke-miterlimit:10;stroke-dasharray:20, 20, 20, 20, 20, 20;stroke-dashoffset:0;stroke-opacity:1"
             d="M 0,0 718.117,194.833" />
        </g>
        <g
           transform="translate(432.3721,389.2109)"
           id="g290">
          <path
             id="path292"
             style="fill:#ffffff;fill-opacity:1;fill-rule:nonzero;stroke:none"
             d="m 0,0 -43.531,57.584 42.169,72.554 -24.387,-6.581 -39.002,-68.611 v 58.176 l -19.669,-6.044 3.042,-128.876 16.627,4.208 v 66.456 l 41.083,-55.18 z" />
        </g>
        <g
           transform="translate(472.6191,544.6392)"
           id="g294">
          <path
             id="path296"
             style="fill:none;stroke:#efcc0c;stroke-width:4;stroke-linecap:butt;stroke-linejoin:miter;stroke-miterlimit:10;stroke-dasharray:20, 20, 20, 20, 20, 20;stroke-dashoffset:0;stroke-opacity:1"
             d="m 0,0 c -15.147,0.125 -26.789,-13.661 -28.468,-15.531 -1.679,-1.871 -9.653,-11.25 -13.581,-27.97 -3.929,-16.72 -2.179,-30.983 2.695,-40.783 4.875,-9.799 19.603,-13.88 19.603,-13.88" />
        </g>
        <g
           transform="translate(472.4209,547.8784)"
           id="g298">
          <path
             id="path300"
             style="fill:none;stroke:#efcc0c;stroke-width:4;stroke-linecap:butt;stroke-linejoin:miter;stroke-miterlimit:10;stroke-dasharray:20, 20, 20, 20, 20, 20;stroke-dashoffset:0;stroke-opacity:1"
             d="M 0,0 3.399,-3.242 0.42,-6.55" />
        </g>
        <g
           transform="translate(455.1611,450.0005)"
           id="g302">
          <path
             id="path304"
             style="fill:none;stroke:#efcc0c;stroke-width:4;stroke-linecap:butt;stroke-linejoin:miter;stroke-miterlimit:10;stroke-dasharray:20, 20, 20, 20, 20, 20;stroke-dashoffset:0;stroke-opacity:1"
             d="M 0,0 2.446,-4.009 -1.286,-6.437" />
        </g>
        <g
           transform="translate(439.2295,567.3735)"
           id="g306">
          <path
             id="path308"
             style="fill:none;stroke:#efcc0c;stroke-width:4;stroke-linecap:butt;stroke-linejoin:miter;stroke-miterlimit:10;stroke-dasharray:20, 20, 20, 20, 20, 20;stroke-dashoffset:0;stroke-opacity:1"
             d="M 0,0 -140.6,-241.158" />
        </g>
        <g
           transform="translate(462.7656,571.6313)"
           id="g310">
          <path
             id="path312"
             style="fill:none;stroke:#efcc0c;stroke-width:4;stroke-linecap:butt;stroke-linejoin:miter;stroke-miterlimit:10;stroke-dasharray:20, 20, 20, 20, 20, 20;stroke-dashoffset:0;stroke-opacity:1"
             d="M 0,0 -147.85,-249.912" />
        </g>
        <g
           transform="translate(316.7051,505.7651)"
           id="g314">
          <path
             id="path316"
             style="fill:none;stroke:#efcc0c;stroke-width:4;stroke-linecap:butt;stroke-linejoin:miter;stroke-miterlimit:10;stroke-dasharray:20, 20, 20, 20, 20, 20;stroke-dashoffset:0;stroke-opacity:1"
             d="M 0,0 117.136,-156.2" />
        </g>
        <g
           transform="translate(335.3789,511.6436)"
           id="g318">
          <path
             id="path320"
             style="fill:none;stroke:#efcc0c;stroke-width:4;stroke-linecap:butt;stroke-linejoin:miter;stroke-miterlimit:10;stroke-dasharray:20, 20, 20, 20, 20, 20;stroke-dashoffset:0;stroke-opacity:1"
             d="M 0,0 126.956,-159.814" />
        </g>
      </g>
    </g>
    <g
       transform="matrix(0.21015891,0,0,-0.23824201,20.323572,363.39916)"
       id="g322">
      <g
         clip-path="url(#clipPath328)"
         id="g324">
        <g
           id="g330">
          <g
             id="g332" />
          <g
             id="g416">
            <g
               id="g414"
               clip-path="url(#clipPath336)">
              <g
                 id="g344"
                 transform="translate(106.326,527.0805)">
                <path
                   id="path342"
                   style="fill:#efcc0d;fill-opacity:1;fill-rule:nonzero;stroke:none"
                   d="m 0,0 -2.234,-19.44 -1.192,-10.349 -0.221,-1.919 -0.286,-2.498 5.25,1.413 1.537,13.322 9.921,2.656 0.796,6.953 -9.921,-2.647 0.797,6.952 10.746,2.866 0.787,6.961 z" />
              </g>
              <g
                 id="g348"
                 transform="translate(128.9718,533.1357)">
                <path
                   id="path346"
                   style="fill:#efcc0d;fill-opacity:1;fill-rule:nonzero;stroke:none"
                   d="m 0,0 -3.926,-34.207 16.785,4.471 0.806,6.962 -11.545,-3.076 0.797,6.953 10.338,2.761 0.796,6.952 -10.33,-2.752 0.734,6.379 10.937,2.914 0.804,6.951 z" />
              </g>
              <g
                 id="g412">
                <g
                   id="g410"
                   clip-path="url(#clipPath340)">
                  <g
                     id="g352"
                     transform="translate(165.25,542.3555)">
                    <path
                       id="path350"
                       style="fill:#efcc0d;fill-opacity:1;fill-rule:nonzero;stroke:none"
                       d="M 0,0 C -0.115,0.004 -0.231,0.004 -0.351,0 -0.44,-0.006 -0.53,-0.003 -0.621,-0.019 -1.64,-0.086 -2.67,-0.261 -3.704,-0.536 l -8.878,-2.373 -3.936,-34.198 9.758,2.599 c 1.061,0.282 2.136,0.717 3.243,1.322 1.099,0.615 2.113,1.394 3.061,2.364 0.93,0.98 1.739,2.125 2.413,3.49 0.681,1.348 1.126,2.928 1.337,4.731 0.124,1.095 0.111,2.094 -0.023,2.998 -0.133,0.896 -0.388,1.642 -0.764,2.248 -0.377,0.605 -0.858,1.053 -1.441,1.35 -0.453,0.229 -0.954,0.354 -1.51,0.371 -0.097,0.003 -0.195,0.003 -0.295,-10e-4 l -0.225,-0.011 0.004,0.108 c 1.304,0.87 2.394,2.051 3.294,3.518 0.901,1.485 1.468,3.187 1.682,5.116 0.213,1.866 0.131,3.3 -0.25,4.293 C 3.365,-1.636 2.794,-0.934 2.043,-0.523 1.443,-0.2 0.765,-0.023 0,0 m -8.907,-15.176 0.844,7.302 3.563,0.953 c 0.345,0.088 0.688,0.141 1.048,0.148 l 0.18,0.003 c 0.042,0 0.083,0 0.123,-0.001 0.362,-0.011 0.679,-0.094 0.957,-0.248 0.3,-0.163 0.544,-0.449 0.701,-0.868 0.158,-0.41 0.194,-0.969 0.118,-1.678 -0.076,-0.682 -0.239,-1.28 -0.49,-1.822 -0.241,-0.524 -0.552,-0.973 -0.897,-1.349 -0.344,-0.377 -0.723,-0.681 -1.135,-0.92 -0.394,-0.231 -0.804,-0.398 -1.212,-0.512 l -3.8,-1.008 m -1.627,-14.166 0.903,7.787 3.954,1.058 c 0.436,0.112 0.888,0.188 1.365,0.228 l 0.189,0.003 c 0.071,0.002 0.142,0.002 0.21,0 0.333,-0.01 0.64,-0.072 0.927,-0.17 0.391,-0.147 0.706,-0.418 0.935,-0.848 0.211,-0.43 0.281,-1.044 0.185,-1.851 -0.087,-0.736 -0.252,-1.397 -0.53,-1.965 -0.271,-0.576 -0.601,-1.07 -0.965,-1.483 -0.382,-0.411 -0.788,-0.74 -1.209,-0.979 -0.43,-0.23 -0.849,-0.407 -1.257,-0.52 l -4.707,-1.26" />
                  </g>
                  <g
                     id="g356"
                     transform="translate(197.2588,551.353)">
                    <path
                       id="path354"
                       style="fill:#efcc0d;fill-opacity:1;fill-rule:nonzero;stroke:none"
                       d="m 0,0 -5.26,-1.405 -2.375,-20.732 c -0.123,-1.059 -0.353,-2.078 -0.689,-3.04 -0.337,-0.971 -0.77,-1.84 -1.261,-2.608 -0.502,-0.777 -1.07,-1.425 -1.699,-1.955 -0.619,-0.522 -1.286,-0.87 -1.976,-1.065 -0.299,-0.072 -0.589,-0.117 -0.858,-0.127 -0.052,-0.001 -0.103,0 -0.153,10e-4 -0.303,0.01 -0.591,0.065 -0.858,0.166 -0.56,0.206 -1.006,0.598 -1.357,1.14 -0.352,0.551 -0.591,1.233 -0.726,2.075 -0.136,0.841 -0.132,1.796 -0.009,2.854 l 2.384,20.732 -5.259,-1.405 -2.412,-21.019 c -0.244,-2.027 -0.238,-3.837 -0.01,-5.428 0.228,-1.601 0.7,-2.912 1.385,-3.941 0.705,-1.03 1.645,-1.743 2.821,-2.104 0.472,-0.152 0.988,-0.241 1.541,-0.258 0.135,-0.005 0.272,-0.005 0.411,0 0.702,0.024 1.47,0.144 2.295,0.362 1.632,0.436 3.13,1.173 4.467,2.212 1.337,1.048 2.493,2.309 3.484,3.791 0.991,1.482 1.79,3.132 2.414,4.958 0.624,1.817 1.054,3.74 1.289,5.776 L 0,0" />
                  </g>
                  <g
                     id="g360"
                     transform="translate(217.2285,556.2427)">
                    <path
                       id="path358"
                       style="fill:#efcc0d;fill-opacity:1;fill-rule:nonzero;stroke:none"
                       d="M 0,0 C -0.149,0.004 -0.302,0.003 -0.455,0.001 -1.318,-0.026 -2.24,-0.16 -3.211,-0.418 l -9.223,-2.471 -3.926,-34.207 5.242,1.405 1.575,13.672 2.594,0.694 3.412,-12.34 6.293,1.67 -4.403,12.83 c 1.737,0.892 3.13,2.307 4.199,4.237 1.077,1.929 1.748,4.096 2.031,6.51 0.234,2.009 0.178,3.604 -0.153,4.803 C 4.1,-2.399 3.57,-1.509 2.842,-0.947 2.123,-0.366 1.233,-0.06 0.184,-0.01 0.123,-0.005 0.062,-0.002 0,0 m -8.81,-15.65 0.894,7.787 3.429,0.921 c 0.48,0.129 0.959,0.205 1.436,0.235 l 0.208,0.012 c 0.044,0 0.088,0 0.13,-0.002 0.343,-0.01 0.647,-0.082 0.906,-0.211 0.354,-0.181 0.622,-0.487 0.816,-0.934 0.175,-0.447 0.234,-1.105 0.126,-1.984 -0.111,-0.933 -0.333,-1.701 -0.676,-2.284 -0.333,-0.584 -0.734,-1.058 -1.187,-1.422 -0.452,-0.355 -0.946,-0.628 -1.482,-0.81 -0.536,-0.19 -1.027,-0.355 -1.508,-0.476 L -8.81,-15.65" />
                  </g>
                  <g
                     id="g364"
                     transform="translate(241.4775,563.1445)">
                    <path
                       id="path362"
                       style="fill:#efcc0d;fill-opacity:1;fill-rule:nonzero;stroke:none"
                       d="m 0,0 -4.335,-1.163 -14.237,-36.95 5.786,1.541 2.827,7.773 9.25,2.469 1.217,-6.69 5.922,1.583 L 0,0 m -7.585,-21.977 4.12,11.397 1.702,-9.838 z" />
                  </g>
                  <g
                     id="g368"
                     transform="translate(269.5391,570.1401)">
                    <path
                       id="path366"
                       style="fill:#efcc0d;fill-opacity:1;fill-rule:nonzero;stroke:none"
                       d="m 0,0 c -0.216,0.007 -0.432,0.014 -0.657,0.002 -0.864,-0.018 -1.777,-0.161 -2.729,-0.42 l -9.222,-2.462 -3.936,-34.206 5.241,1.405 1.576,13.672 2.603,0.694 3.403,-12.349 6.284,1.679 -4.394,12.829 c 1.737,0.901 3.14,2.317 4.207,4.228 1.069,1.939 1.749,4.106 2.023,6.519 0.226,2.001 0.187,3.596 -0.152,4.812 C 3.916,-2.389 3.396,-1.5 2.658,-0.928 1.931,-0.356 1.05,-0.05 0,0 m -8.984,-15.631 0.884,7.787 3.438,0.911 c 0.471,0.121 0.95,0.205 1.428,0.236 l 0.179,0.012 c 0.051,10e-4 0.1,0 0.149,-0.001 0.344,-0.011 0.651,-0.077 0.916,-0.212 0.353,-0.173 0.623,-0.487 0.814,-0.943 0.185,-0.438 0.227,-1.105 0.127,-1.967 -0.11,-0.942 -0.323,-1.7 -0.666,-2.293 -0.343,-0.592 -0.744,-1.066 -1.187,-1.413 -0.46,-0.355 -0.955,-0.628 -1.492,-0.818 -0.527,-0.191 -1.036,-0.346 -1.499,-0.485 l -3.091,-0.814" />
                  </g>
                  <g
                     id="g372"
                     transform="translate(300.2422,578.8193)">
                    <path
                       id="path370"
                       style="fill:#efcc0d;fill-opacity:1;fill-rule:nonzero;stroke:none"
                       d="m 0,0 -6.229,-1.663 -6.828,-14.231 -3.575,11.454 -6.52,-1.735 6.692,-17.23 -1.686,-14.596 5.26,1.405 1.677,14.596 z" />
                  </g>
                  <g
                     id="g376"
                     transform="translate(325.8242,585.9517)">
                    <path
                       id="path374"
                       style="fill:#ffffff;fill-opacity:1;fill-rule:nonzero;stroke:none"
                       d="M 0,0 C -0.094,0.003 -0.189,0.004 -0.286,0.002 -0.79,-0.009 -1.313,-0.092 -1.858,-0.237 -2.819,-0.496 -3.741,-0.927 -4.614,-1.512 -5.487,-2.106 -6.293,-2.847 -7.04,-3.724 -7.787,-4.61 -8.432,-5.662 -8.992,-6.851 -9.561,-8.049 -9.988,-9.35 -10.313,-10.79 l 3.018,0.439 c 0.413,1.698 1.071,3.154 1.964,4.369 0.901,1.205 1.969,1.974 3.175,2.296 0.299,0.082 0.579,0.118 0.849,0.127 0.058,0.002 0.116,0.002 0.173,0.001 0.217,-0.007 0.427,-0.039 0.624,-0.088 0.5,-0.132 0.914,-0.397 1.243,-0.794 0.347,-0.398 0.582,-0.91 0.724,-1.571 0.141,-0.653 0.171,-1.419 0.062,-2.316 -0.1,-0.843 -0.25,-1.622 -0.461,-2.326 -0.211,-0.714 -0.504,-1.426 -0.841,-2.126 -0.363,-0.7 -0.783,-1.434 -1.293,-2.211 -0.501,-0.777 -1.086,-1.632 -1.727,-2.549 l -10.428,-14.965 -0.535,-4.639 15.345,4.101 0.425,3.759 -12.143,-3.236 0.013,0.099 8.469,11.857 c 0.705,0.978 1.374,1.938 2.025,2.909 0.642,0.97 1.24,1.969 1.777,3.006 0.545,1.027 1.011,2.129 1.39,3.297 0.379,1.159 0.652,2.429 0.804,3.774 0.173,1.508 0.133,2.796 -0.121,3.848 C 3.955,-2.667 3.54,-1.844 2.975,-1.242 2.4,-0.647 1.692,-0.275 0.862,-0.096 0.585,-0.04 0.296,-0.009 0,0" />
                  </g>
                  <g
                     id="g380"
                     transform="translate(346.8359,591.5806)">
                    <path
                       id="path378"
                       style="fill:#ffffff;fill-opacity:1;fill-rule:nonzero;stroke:none"
                       d="m 0,0 c -0.084,0.002 -0.171,0.003 -0.258,0 -0.45,-0.013 -0.929,-0.088 -1.436,-0.225 -1.651,-0.436 -3.046,-1.356 -4.224,-2.742 -1.168,-1.396 -2.164,-3.021 -2.961,-4.906 -0.797,-1.884 -1.436,-3.898 -1.9,-6.054 -0.465,-2.164 -0.808,-4.206 -1.04,-6.135 -0.214,-1.929 -0.34,-3.915 -0.351,-5.949 -0.019,-2.034 0.185,-3.832 0.593,-5.402 0.391,-1.561 1.064,-2.743 1.973,-3.581 0.58,-0.525 1.288,-0.794 2.142,-0.82 0.084,-0.003 0.171,-0.003 0.259,-10e-4 0.45,0.013 0.92,0.08 1.436,0.217 1.633,0.445 3.047,1.355 4.215,2.751 1.168,1.387 2.156,3.022 2.961,4.906 0.807,1.892 1.438,3.907 1.91,6.063 0.464,2.155 0.799,4.197 1.022,6.126 0.222,1.929 0.34,3.915 0.36,5.949 0.02,2.034 -0.176,3.831 -0.585,5.393 -0.409,1.561 -1.072,2.761 -1.99,3.59 C 1.562,-0.295 0.849,-0.026 0,0 m -6.331,-32.237 c -0.367,0.011 -0.696,0.105 -0.974,0.287 -0.511,0.322 -0.919,0.812 -1.22,1.478 -0.303,0.667 -0.511,1.474 -0.635,2.406 -0.123,0.931 -0.191,1.905 -0.186,2.922 -0.005,1.009 0.029,2.034 0.115,3.058 0.059,1.006 0.142,1.94 0.241,2.774 0.098,0.843 0.236,1.785 0.395,2.824 0.159,1.039 0.364,2.105 0.605,3.186 0.25,1.082 0.545,2.144 0.902,3.214 0.349,1.06 0.757,2.029 1.243,2.896 0.487,0.886 1.032,1.634 1.645,2.255 0.613,0.611 1.318,1.03 2.098,1.24 0.282,0.072 0.544,0.118 0.787,0.12 0.054,0.002 0.108,0.002 0.162,0 0.374,-0.011 0.703,-0.105 0.989,-0.287 0.502,-0.322 0.909,-0.803 1.211,-1.478 0.311,-0.667 0.52,-1.466 0.643,-2.406 0.123,-0.94 0.183,-1.905 0.186,-2.922 -0.005,-1.018 -0.037,-2.043 -0.105,-3.049 -0.078,-1.024 -0.162,-1.958 -0.259,-2.783 -0.099,-0.843 -0.219,-1.785 -0.396,-2.824 -0.149,-1.04 -0.354,-2.105 -0.604,-3.195 -0.233,-1.073 -0.536,-2.135 -0.885,-3.205 -0.356,-1.051 -0.774,-2.029 -1.242,-2.897 -0.487,-0.885 -1.041,-1.642 -1.655,-2.253 -0.613,-0.612 -1.309,-1.032 -2.089,-1.242 -0.289,-0.071 -0.561,-0.117 -0.813,-0.118 -0.054,-0.002 -0.106,-0.002 -0.159,-0.001" />
                  </g>
                  <g
                     id="g384"
                     transform="translate(367.5859,598.749)">
                    <path
                       id="path382"
                       style="fill:#ffffff;fill-opacity:1;fill-rule:nonzero;stroke:none"
                       d="m 0,0 h -0.009 l -14.4,-39.808 1.983,-0.646 h 0.002 l 14.41,39.862 z" />
                  </g>
                  <g
                     id="g388"
                     transform="translate(383.7773,601.4116)">
                    <path
                       id="path386"
                       style="fill:#ffffff;fill-opacity:1;fill-rule:nonzero;stroke:none"
                       d="m 0,0 c -0.103,0.003 -0.204,0.003 -0.308,0 -0.495,-0.012 -1.01,-0.096 -1.554,-0.241 -0.961,-0.259 -1.883,-0.68 -2.756,-1.275 -0.873,-0.594 -1.679,-1.334 -2.426,-2.212 -0.739,-0.886 -1.393,-1.928 -1.952,-3.126 -0.568,-1.189 -0.996,-2.5 -1.312,-3.93 l 3.017,0.429 c 0.405,1.698 1.072,3.163 1.965,4.369 0.9,1.206 1.959,1.974 3.166,2.297 0.307,0.081 0.597,0.126 0.867,0.126 0.067,0.003 0.134,0.003 0.199,0.001 0.205,-0.006 0.4,-0.034 0.589,-0.088 0.499,-0.132 0.905,-0.388 1.243,-0.794 0.338,-0.389 0.582,-0.918 0.724,-1.562 0.132,-0.652 0.161,-1.428 0.052,-2.333 -0.099,-0.834 -0.249,-1.604 -0.46,-2.318 -0.202,-0.705 -0.495,-1.416 -0.841,-2.117 -0.356,-0.7 -0.783,-1.443 -1.293,-2.22 -0.492,-0.768 -1.077,-1.623 -1.718,-2.54 l -10.429,-14.966 -0.534,-4.637 15.345,4.092 0.426,3.768 -12.144,-3.245 0.013,0.107 8.469,11.848 c 0.696,0.978 1.374,1.947 2.015,2.909 0.642,0.962 1.232,1.97 1.778,3.006 0.545,1.037 1.011,2.139 1.39,3.298 0.387,1.167 0.661,2.428 0.812,3.774 0.174,1.507 0.134,2.805 -0.129,3.857 C 3.96,-2.662 3.545,-1.848 2.971,-1.245 2.396,-0.651 1.697,-0.27 0.866,-0.109 0.587,-0.046 0.297,-0.009 0,0" />
                  </g>
                  <g
                     id="g392"
                     transform="translate(405.7832,606.9722)">
                    <path
                       id="path390"
                       style="fill:#ffffff;fill-opacity:1;fill-rule:nonzero;stroke:none"
                       d="m 0,0 -2.457,-0.654 -7.259,-9.139 1.351,-2.509 4.867,6.315 0.063,0.007 -3.33,-28.977 2.83,0.75 z" />
                  </g>
                  <g
                     id="g396"
                     transform="translate(438.6377,616.0449)">
                    <path
                       id="path394"
                       style="fill:#ffffff;fill-opacity:1;fill-rule:nonzero;stroke:none"
                       d="M 0,0 C -0.103,0.003 -0.206,0.003 -0.312,0 -0.808,-0.012 -1.322,-0.096 -1.866,-0.241 -2.827,-0.49 -3.74,-0.921 -4.622,-1.515 -5.486,-2.101 -6.292,-2.841 -7.039,-3.728 -7.787,-4.614 -8.44,-5.656 -9,-6.854 c -0.56,-1.189 -0.996,-2.5 -1.312,-3.93 l 3.017,0.429 c 0.414,1.698 1.064,3.164 1.974,4.369 0.883,1.206 1.95,1.974 3.157,2.298 0.308,0.08 0.597,0.125 0.876,0.125 0.065,0.003 0.131,0.003 0.196,0.001 0.203,-0.006 0.404,-0.034 0.592,-0.088 0.49,-0.132 0.896,-0.388 1.243,-0.794 0.329,-0.389 0.573,-0.918 0.714,-1.562 0.142,-0.652 0.162,-1.418 0.053,-2.333 -0.09,-0.826 -0.249,-1.604 -0.46,-2.318 -0.212,-0.704 -0.495,-1.416 -0.841,-2.116 -0.355,-0.701 -0.783,-1.444 -1.284,-2.212 -0.501,-0.777 -1.086,-1.632 -1.727,-2.549 l -10.437,-14.965 -0.526,-4.638 15.336,4.092 0.434,3.768 -12.143,-3.245 0.013,0.107 8.478,11.857 c 0.687,0.969 1.355,1.93 2.006,2.9 0.643,0.962 1.242,1.97 1.787,3.006 0.536,1.037 1.002,2.139 1.39,3.298 0.369,1.167 0.644,2.428 0.803,3.774 0.174,1.516 0.134,2.805 -0.129,3.857 C 3.955,-2.662 3.532,-1.847 2.966,-1.245 2.392,-0.651 1.685,-0.269 0.862,-0.109 0.583,-0.046 0.299,-0.009 0,0" />
                  </g>
                  <g
                     id="g400"
                     transform="translate(459.6289,621.6797)">
                    <path
                       id="path398"
                       style="fill:#ffffff;fill-opacity:1;fill-rule:nonzero;stroke:none"
                       d="m 0,0 c -0.084,0.002 -0.168,0.003 -0.254,0 -0.441,-0.013 -0.92,-0.088 -1.429,-0.226 -1.64,-0.435 -3.046,-1.355 -4.222,-2.741 -1.168,-1.396 -2.147,-3.031 -2.953,-4.915 -0.805,-1.875 -1.446,-3.899 -1.901,-6.063 -0.472,-2.147 -0.816,-4.189 -1.03,-6.117 -0.232,-1.938 -0.349,-3.915 -0.359,-5.95 -0.021,-2.051 0.174,-3.84 0.584,-5.401 0.409,-1.561 1.063,-2.761 1.981,-3.59 0.573,-0.518 1.289,-0.794 2.142,-0.821 0.082,-0.002 0.166,-0.002 0.251,0 0.44,0.013 0.919,0.089 1.436,0.226 1.642,0.435 3.047,1.355 4.215,2.742 1.177,1.386 2.154,3.022 2.97,4.905 0.797,1.884 1.436,3.908 1.9,6.063 0.464,2.147 0.809,4.198 1.023,6.127 0.222,1.928 0.348,3.924 0.359,5.958 0.019,2.034 -0.175,3.831 -0.584,5.392 C 3.72,-2.85 3.065,-1.659 2.139,-0.82 1.573,-0.302 0.857,-0.026 0,0 m -6.293,-32.247 c -0.378,0.012 -0.711,0.113 -1,0.297 -0.502,0.313 -0.909,0.803 -1.211,1.478 -0.311,0.667 -0.52,1.466 -0.643,2.396 -0.115,0.94 -0.182,1.915 -0.187,2.923 -0.004,1.018 0.047,2.042 0.115,3.058 0.069,1.015 0.152,1.94 0.241,2.783 0.099,0.843 0.237,1.775 0.396,2.824 0.167,1.039 0.372,2.104 0.613,3.186 0.241,1.073 0.536,2.144 0.894,3.214 0.347,1.051 0.764,2.02 1.243,2.896 0.486,0.885 1.031,1.634 1.653,2.254 0.605,0.611 1.31,1.022 2.099,1.232 0.281,0.081 0.552,0.118 0.795,0.128 0.052,0.002 0.101,0.002 0.151,0 0.377,-0.011 0.702,-0.111 0.99,-0.287 0.503,-0.322 0.901,-0.82 1.222,-1.487 0.293,-0.666 0.511,-1.465 0.634,-2.396 0.114,-0.94 0.183,-1.915 0.177,-2.932 0.012,-1.008 -0.029,-2.033 -0.106,-3.049 -0.068,-1.015 -0.152,-1.948 -0.25,-2.783 -0.098,-0.834 -0.227,-1.784 -0.395,-2.823 -0.159,-1.031 -0.364,-2.105 -0.605,-3.186 -0.241,-1.074 -0.545,-2.145 -0.893,-3.214 -0.358,-1.06 -0.775,-2.029 -1.243,-2.897 -0.487,-0.885 -1.033,-1.634 -1.645,-2.245 -0.613,-0.62 -1.318,-1.04 -2.099,-1.25 -0.281,-0.072 -0.543,-0.109 -0.795,-0.119 -0.051,-0.002 -0.101,-0.002 -0.151,-10e-4" />
                  </g>
                  <g
                     id="g404"
                     transform="translate(481.4453,627.4663)">
                    <path
                       id="path402"
                       style="fill:#ffffff;fill-opacity:1;fill-rule:nonzero;stroke:none"
                       d="M 0,0 C -0.101,0.003 -0.203,0.003 -0.307,-0.001 -0.802,-0.013 -1.316,-0.096 -1.861,-0.241 -2.831,-0.5 -3.753,-0.93 -4.616,-1.516 -5.489,-2.11 -6.305,-2.85 -7.043,-3.728 c -0.747,-0.886 -1.392,-1.929 -1.96,-3.126 -0.56,-1.189 -0.997,-2.5 -1.312,-3.93 l 3.017,0.429 c 0.413,1.698 1.071,3.163 1.973,4.369 0.901,1.205 1.951,1.974 3.166,2.297 0.299,0.081 0.589,0.126 0.867,0.126 0.067,0.002 0.135,0.003 0.2,0.001 0.204,-0.006 0.398,-0.034 0.579,-0.088 0.5,-0.132 0.914,-0.388 1.252,-0.794 0.338,-0.389 0.574,-0.918 0.724,-1.562 0.133,-0.653 0.162,-1.419 0.053,-2.333 -0.099,-0.826 -0.249,-1.604 -0.47,-2.318 -0.202,-0.705 -0.494,-1.416 -0.84,-2.117 -0.355,-0.7 -0.784,-1.443 -1.285,-2.22 -0.501,-0.768 -1.076,-1.623 -1.727,-2.548 l -10.428,-14.966 -0.534,-4.629 15.354,4.092 0.425,3.768 -12.152,-3.245 0.012,0.098 8.478,11.866 c 0.696,0.96 1.365,1.93 2.007,2.9 0.642,0.962 1.241,1.97 1.787,3.006 0.536,1.037 1.011,2.139 1.38,3.289 0.397,1.176 0.671,2.437 0.822,3.782 0.174,1.517 0.125,2.806 -0.13,3.858 C 3.952,-2.662 3.537,-1.848 2.963,-1.245 2.397,-0.651 1.69,-0.27 0.859,-0.109 0.58,-0.046 0.295,-0.009 0,0" />
                  </g>
                  <g
                     id="g408"
                     transform="translate(502.4326,633.1011)">
                    <path
                       id="path406"
                       style="fill:#ffffff;fill-opacity:1;fill-rule:nonzero;stroke:none"
                       d="m 0,0 c -0.083,0.002 -0.168,0.003 -0.254,0 -0.44,-0.013 -0.92,-0.088 -1.428,-0.226 -1.641,-0.435 -3.037,-1.356 -4.205,-2.742 -1.177,-1.395 -2.165,-3.031 -2.97,-4.914 -0.797,-1.884 -1.437,-3.899 -1.91,-6.063 -0.455,-2.147 -0.798,-4.189 -1.021,-6.117 -0.224,-1.938 -0.34,-3.916 -0.36,-5.959 -0.01,-2.034 0.184,-3.832 0.593,-5.393 0.4,-1.56 1.064,-2.76 1.981,-3.589 0.574,-0.519 1.283,-0.794 2.139,-0.821 0.083,-0.003 0.168,-0.003 0.254,-0.001 0.441,0.014 0.92,0.089 1.437,0.226 1.632,0.427 3.037,1.347 4.215,2.743 1.176,1.395 2.154,3.021 2.951,4.905 0.815,1.884 1.436,3.899 1.91,6.063 0.453,2.102 0.796,4.117 1.018,6.01 l 0.038,0.332 c 0.212,1.866 0.317,3.78 0.335,5.742 0.01,2.034 -0.175,3.832 -0.584,5.393 C 3.729,-2.85 3.065,-1.659 2.147,-0.82 1.574,-0.302 0.858,-0.026 0,0 m -6.301,-32.247 c -0.367,0.012 -0.698,0.104 -0.992,0.279 -0.502,0.322 -0.909,0.821 -1.211,1.496 -0.303,0.666 -0.511,1.465 -0.634,2.396 -0.124,0.94 -0.182,1.914 -0.176,2.931 -0.014,1.009 0.019,2.035 0.095,3.041 0.078,1.023 0.161,1.957 0.26,2.792 0.089,0.834 0.227,1.775 0.386,2.823 0.159,1.04 0.373,2.105 0.614,3.187 0.24,1.073 0.545,2.143 0.893,3.213 0.339,1.052 0.756,2.021 1.243,2.897 0.477,0.885 1.031,1.625 1.636,2.245 0.622,0.62 1.318,1.031 2.107,1.24 0.29,0.073 0.553,0.119 0.805,0.129 0.039,0 0.078,0 0.116,-0.001 0.384,-0.012 0.728,-0.105 1.016,-0.286 0.512,-0.322 0.918,-0.821 1.212,-1.487 0.312,-0.667 0.529,-1.475 0.644,-2.397 0.122,-0.939 0.182,-1.914 0.185,-2.931 0.004,-1.008 -0.038,-2.033 -0.105,-3.049 -0.077,-1.015 -0.161,-1.948 -0.26,-2.783 -0.089,-0.834 -0.227,-1.784 -0.386,-2.823 -0.168,-1.04 -0.364,-2.105 -0.614,-3.187 -0.24,-1.073 -0.535,-2.144 -0.884,-3.213 -0.348,-1.061 -0.765,-2.03 -1.261,-2.906 -0.468,-0.877 -1.014,-1.625 -1.635,-2.236 -0.623,-0.629 -1.31,-1.04 -2.1,-1.25 -0.28,-0.072 -0.543,-0.118 -0.795,-0.12 -0.053,-10e-4 -0.107,-10e-4 -0.159,0" />
                  </g>
                </g>
              </g>
            </g>
          </g>
        </g>
      </g>
    </g>
  </g>
</svg>
