<svg
   viewBox="0 0 25.4 25.4"
   height="1in"
   width="1in">
  <g
     transform="translate(0,-271.6)"
     id="layer1">
    <g
       transform="matrix(0.35277777,0,0,-0.35277777,6.5749231,275.85765)"
       id="g754">
      <path
         id="path756"
         style="fill:#ffffff;fill-opacity:1;fill-rule:nonzero;stroke:none"
         d="M 0,0 -7.093,-1.887 6.591,-47.684 22.628,-52.011 8.999,-6.132 16.168,-4.251 Z M 0.001,-1.035 12.231,-4.25 8.746,-5.165 7.747,-5.427 8.041,-6.417 21.16,-50.579 7.39,-46.863 -5.839,-2.588 Z" />
    </g>
    <g
       transform="matrix(0.35277777,0,0,-0.35277777,11.863306,281.0365)"
       id="g758">
      <path
         id="path760"
         style="fill:#891b2f;fill-opacity:1;fill-rule:nonzero;stroke:none"
         d="m 0,0 5.502,19.712 6.016,1.6 14.185,-3.729 -5.18,-1.338 -9.528,-46.271 z" />
    </g>
    <g
       transform="matrix(0.35277777,0,0,-0.35277777,15.926286,273.33568)"
       id="g762">
      <path
         id="path764"
         style="fill:#ffffff;fill-opacity:1;fill-rule:nonzero;stroke:none"
         d="m 0,0 -6.42,-1.708 -5.622,-20.142 11.655,-31.828 9.82,47.687 6.734,1.741 z m 0.001,-1.034 12.202,-3.208 -3.021,-0.781 -0.603,-0.156 -0.126,-0.61 -9.11,-44.243 -10.335,28.223 5.382,19.282 z" />
    </g>
    <g
       transform="matrix(0.35277777,0,0,-0.35277777,9.7495661,278.02082)"
       id="g766">
      <path
         id="path768"
         style="fill:#ffffff;fill-opacity:1;fill-rule:nonzero;stroke:none"
         d="m 0,0 7.211,1.981 9.429,-35.657 10.301,40.966 6.735,1.743 -14.5,-53.407 -5.547,-1.505 z" />
    </g>
    <g
       transform="matrix(0.35277777,0,0,-0.35277777,20.044896,275.60962)"
       id="g770">
      <path
         id="path772"
         style="fill:none;stroke:#ffffff;stroke-width:1;stroke-linecap:butt;stroke-linejoin:miter;stroke-miterlimit:10;stroke-dasharray:none;stroke-opacity:1"
         d="M 0,0 -17.311,4.3" />
    </g>
    <g
       transform="matrix(0.35277777,0,0,-0.35277777,4.6704552,276.655)"
       id="g774">
      <path
         id="path776"
         style="fill:none;stroke:#ffffff;stroke-width:1;stroke-linecap:butt;stroke-linejoin:miter;stroke-miterlimit:10;stroke-dasharray:none;stroke-opacity:1"
         d="M 0,0 16.342,-4.182" />
    </g>
  </g>
</svg>
