          <svg viewBox="0 0 210 297" class="w-4/5">
            <g class="letter-h hacks">
              <path
                style="fill:none;stroke:#ffffff;stroke-width:0.59211105;stroke-linecap:butt;stroke-linejoin:miter;stroke-miterlimit:10;stroke-dasharray:none;stroke-opacity:1"
                d="m 144.40513,42.413499 4.60544,-1.063431" />
              <path
                style="fill:#891b2f;fill-opacity:0;fill-rule:nonzero;stroke:none;stroke-width:0.59211105"
                d="m 139.16898,67.991392 1.04804,-26.126901 -2.21687,-3.238255 9.09128,-2.389761 3.90438,1.038563 v 28.767716 l -9.77576,2.551999 z" />
              <path
                style="fill:#ffffff;fill-opacity:1;fill-rule:nonzero;stroke:none;stroke-width:0.59211105"
                d="m 147.0919,35.930062 -9.57325,2.517064 2.39864,3.502929 -1.05337,26.260718 2.35128,0.691586 10.07595,-2.630749 V 37.047376 Z m -5.9e-4,0.612835 3.60773,0.95922 v 28.311791 l -9.47437,2.47384 -1.75087,-0.515137 1.03501,-25.798279 0.008,-0.196581 -0.11132,-0.161646 -1.92377,-2.81016 z" />
              <path
                style="fill:#891b2f;fill-opacity:0;fill-rule:nonzero;stroke:none;stroke-width:0.59211105"
                d="m 125.14104,63.576849 1.17356,-26.49401 -2.06054,-0.31974 -0.26527,-1.622384 9.33108,-2.52417 3.9026,1.037971 v 28.768901 l -9.82963,2.573906 z" />
              <path
                style="fill:#ffffff;fill-opacity:1;fill-rule:nonzero;stroke:none;stroke-width:0.59211105"
                d="m 133.31898,32.310306 -9.66562,2.61417 0.34283,2.09785 2.01081,0.312042 -1.16942,26.401049 2.50641,1.580936 10.17483,-2.664499 V 33.42762 Z m 10e-4,0.613427 3.60655,0.958628 v 28.312383 l -9.48443,2.483314 -1.99779,-1.260013 1.15403,-26.057032 0.0231,-0.529939 -0.52402,-0.08171 -1.58626,-0.245726 -0.18711,-1.14692 z" />
              <path
                style="fill:#891b2f;fill-opacity:0;fill-rule:nonzero;stroke:none;stroke-width:0.59211105"
                d="m 125.10546,48.552031 12.11696,-3.300427 v 6.600854 z" />
              <path
                style="fill:#ffffff;fill-opacity:1;fill-rule:nonzero;stroke:none;stroke-width:0.59211105"
                d="m 137.51871,44.864363 -13.5404,3.687668 13.5404,3.687667 z m -0.59211,0.775073 v 5.825189 l -10.69471,-2.912594 z" />
              <path
                style="fill:#ffffff;fill-opacity:1;fill-rule:nonzero;stroke:none;stroke-width:0.59211105"
                d="m 127.34352,35.95576 v 11.587022 l 10.18135,2.669828 V 38.510127 l 3.69063,1.031458 v 29.360419 l -3.69063,-1.085339 V 54.827524 L 127.34352,52.116247 V 65.31618 l -3.69004,-1.08534 V 34.924303 Z" />
              <path
                style="fill:none;stroke:#ffffff;stroke-width:0.59211105;stroke-linecap:butt;stroke-linejoin:miter;stroke-miterlimit:10;stroke-dasharray:none;stroke-opacity:1"
                d="m 150.79349,37.435503 -10.8978,2.700619" />
              <path
                style="fill:none;stroke:#ffffff;stroke-width:0.59211105;stroke-linecap:butt;stroke-linejoin:miter;stroke-miterlimit:10;stroke-dasharray:none;stroke-opacity:1"
                d="m 136.84535,33.745761 -10.73379,2.868186" />
              <path
                style="fill:#ffffff;fill-opacity:1;fill-rule:nonzero;stroke:none;stroke-width:0.59211105"
                d="m 137.64908,67.854023 -1.05751,-0.297832 V 52.153606 l 1.8539,1.8539 z" />
            </g>
            <g class="letter-a-1 calvin">
              <path
                style="fill:#ffffff;fill-opacity:1;fill-rule:nonzero;stroke:none;stroke-width:0.59211105"
                d="m 81.865411,60.405209 -0.447636,0.119018 -10.470892,31.397281 10.918528,2.927395 9.299105,-31.786295 0.817705,-0.232109 z m 0.01242,0.61165 8.660809,2.076533 -9.07884,31.033728 -9.752069,-2.614762 z" />
              <path
                style="fill:#ffffff;fill-opacity:1;fill-rule:nonzero;stroke:none;stroke-width:0.59211105"
                d="m 84.671306,59.65903 -3.25365,0.865074 0.04678,0.624084 8.858573,2.152915 4.149515,-1.177114 z m 0.0042,0.611649 7.506784,1.887653 -1.87107,0.530531 -7.695669,-1.870479 z" />
              <path
                style="fill:#ffffff;fill-opacity:1;fill-rule:nonzero;stroke:none;stroke-width:0.59211105"
                d="M 89.293741,78.190272 87.945505,83.27769 97.4779,80.362727 Z m 0.420399,0.724153 5.607291,1.488567 -6.530986,1.99719 z" />
              <path
                style="fill:#ffffff;fill-opacity:1;fill-rule:nonzero;stroke:none;stroke-width:0.59211105"
                d="M 97.713974,82.643539 87.076699,85.465542 V 87.2022 l 11.956496,3.086677 z m -0.473688,0.738364 1.053365,6.104662 -10.624842,-2.742659 v -0.822442 z" />
              <path
                style="fill:#ffffff;fill-opacity:1;fill-rule:nonzero;stroke:none;stroke-width:0.59211105"
                d="m 92.572615,66.723331 -4.020434,12.083803 8.092974,2.274888 z m -0.045,2.010808 3.258978,11.4911 -6.476511,-1.820152 z" />
              <path
                style="fill:#ffffff;fill-opacity:1;fill-rule:nonzero;stroke:none;stroke-width:0.59211105"
                d="m 89.293741,81.703028 3.399902,-12.844071 3.14174,11.067739 z m 5.179195,-19.579336 -3.308716,0.939091 -9.298514,31.7863 4.202213,-1.117907 1.922586,-7.242706 9.119694,-2.414037 1.922586,6.21421 4.247215,-1.162318 z" />
            </g>
            <g class="letter-n calvin">
              <path
                style="fill:#891b2f;fill-opacity:0;fill-rule:nonzero;stroke:none;stroke-width:0.59211105"
                d="m 88.959198,276.36736 -2.188443,-0.43107 0.533491,-18.21333 1.880546,-2.15055 v -8.51455 l 3.90438,-1.03857 9.142798,2.40397 -2.16832,4.29578 -0.755535,19.37801 -1.914886,6.33558 z" />
              <path
                style="fill:#ffffff;fill-opacity:1;fill-rule:nonzero;stroke:none;stroke-width:0.59211105"
                d="m 93.088343,245.71288 -4.199844,1.1173 v 8.63122 l -1.877583,2.14639 -0.543559,18.57099 2.421142,0.47605 8.706995,2.13277 2.006661,-6.64051 0.754945,-19.35257 2.3039,-4.56458 z m 5.78e-4,0.61223 8.714099,2.29089 -1.974695,3.91149 -0.058,0.1148 -0.005,0.12907 -0.75139,19.27676 -1.822515,6.03065 -8.188305,-2.00549 -1.929098,-0.37834 0.523426,-17.85749 1.737254,-1.98593 0.146257,-0.1675 v -0.22264 -8.17646 z" />
              <path
                style="fill:#891b2f;fill-opacity:0;fill-rule:nonzero;stroke:none;stroke-width:0.59211105"
                d="m 74.738999,279.99978 v -29.13836 l 4.682413,-1.33465 8.454162,2.2228 -4.114578,1.18186 -0.212569,29.22719 z" />
              <path
                style="fill:#ffffff;fill-opacity:1;fill-rule:nonzero;stroke:none;stroke-width:0.59211105"
                d="m 79.418334,249.21982 -4.97551,1.41872 v 29.5937 l 9.399172,2.30271 0.213161,-29.37994 4.935836,-1.41811 z m 0.0065,0.61402 7.333296,1.92852 -2.866411,0.82303 -0.425727,0.12252 -0.003,0.4423 -0.207831,28.63094 -8.220278,-2.01377 v -28.68245 z" />
              <path
                style="fill:#ffffff;fill-opacity:1;fill-rule:nonzero;stroke:none;stroke-width:0.59211105"
                d="m 83.842114,282.53478 3.789511,-1.02257 0.170529,-22.69442 9.793516,19.97011 4.76886,-1.23513 0.16994,-29.42259 -3.704245,1.02198 -0.21257,22.01349 -9.623581,-19.45853 -4.939392,1.44771 z" />
              <path
                style="fill:none;stroke:#ffffff;stroke-width:0.59211105;stroke-linecap:butt;stroke-linejoin:miter;stroke-miterlimit:10;stroke-dasharray:none;stroke-opacity:1"
                d="m 75.428571,250.90138 10.783528,2.87825" />
              <path
                style="fill:none;stroke:#ffffff;stroke-width:0.59211105;stroke-linecap:butt;stroke-linejoin:miter;stroke-miterlimit:10;stroke-dasharray:none;stroke-opacity:1"
                d="m 89.580501,247.07343 10.280234,2.7468" />
            </g>
            <g class="letter-i calvin">
              <path
                style="fill:#891b2f;fill-opacity:0;fill-rule:nonzero;stroke:none;stroke-width:0.59211105"
                d="m 79.604256,228.10219 v -28.52614 l 3.903789,-1.03855 8.423965,2.21509 -2.837989,0.76737 v 29.19878 z" />
              <path
                style="fill:#ffffff;fill-opacity:1;fill-rule:nonzero;stroke:none;stroke-width:0.59211105"
                d="m 83.50763,198.2312 -4.199844,1.11731 v 28.9791 l 10.082468,2.77938 v -29.36042 l 3.690629,-0.9983 z m 5.78e-4,0.61224 7.275269,1.9131 -1.547778,0.41923 -0.43757,0.11782 v 0.45298 28.58355 l -8.898247,-2.4537 v -28.07317 z" />
              <path
                style="fill:#ffffff;fill-opacity:1;fill-rule:nonzero;stroke:none;stroke-width:0.59211105"
                d="m 89.390254,201.74684 3.690037,-1.03085 v 29.30594 l -3.690037,1.08534 z" />
              <path
                style="fill:none;stroke:#ffffff;stroke-width:0.59211105;stroke-linecap:butt;stroke-linejoin:miter;stroke-miterlimit:10;stroke-dasharray:none;stroke-opacity:1"
                d="m 80.393836,199.48078 9.675688,2.47682" />
            </g>
            <g class="letter-v calvin">
              <path
                style="fill:#ffffff;fill-opacity:1;fill-rule:nonzero;stroke:none;stroke-width:0.59211105"
                d="m 78.759196,158.29495 -4.199844,1.11733 8.102448,27.11691 9.495685,2.56206 -8.069881,-27.16545 4.244845,-1.11377 z m 5.78e-4,0.61285 7.241519,1.90364 -2.063508,0.54177 -0.59152,0.15509 0.174082,0.58619 7.767904,26.1488 -8.153369,-2.20028 -7.833038,-26.21572 z" />
              <path
                style="fill:#891b2f;fill-opacity:0;fill-rule:nonzero;stroke:none;stroke-width:0.59211105"
                d="m 87.635357,166.98727 3.257794,-11.67169 3.562141,-0.94738 8.399098,2.20799 -3.067135,0.79224 -5.641638,27.39758 z" />
              <path
                style="fill:#ffffff;fill-opacity:1;fill-rule:nonzero;stroke:none;stroke-width:0.59211105"
                d="m 94.454758,154.06202 -3.801353,1.01133 -3.328849,11.92629 6.901055,18.84572 5.814539,-28.236 3.98727,-1.03087 z m 5.77e-4,0.61223 7.224945,1.8995 -1.788775,0.46245 -0.35704,0.0923 -0.0746,0.36118 -5.394136,26.19677 -6.119469,-16.71115 3.186742,-11.41709 z" />
              <path
                style="fill:#ffffff;fill-opacity:1;fill-rule:nonzero;stroke:none;stroke-width:0.59211105"
                d="m 84.087604,161.92568 4.269712,-1.17299 5.583016,21.11291 6.099338,-24.25641 3.98787,-1.03205 -8.585615,31.62287 -3.28444,0.89112 z" />
              <path
                style="fill:none;stroke:#ffffff;stroke-width:0.59211105;stroke-linecap:butt;stroke-linejoin:miter;stroke-miterlimit:10;stroke-dasharray:none;stroke-opacity:1"
                d="M 101.36754,157.87865 91.117501,155.33257" />
              <path
                style="fill:none;stroke:#ffffff;stroke-width:0.59211105;stroke-linecap:butt;stroke-linejoin:miter;stroke-miterlimit:10;stroke-dasharray:none;stroke-opacity:1"
                d="m 75.562685,159.63325 9.676278,2.47621" />
            </g>
            <g class="letter-c-1 calvin">
              <path
                style="fill:#ffffff;fill-opacity:1;fill-rule:nonzero;stroke:none;stroke-width:0.59211105"
                d="m 92.646331,17.332325 -5.514329,1.13863 7.1604,1.814227 z m -0.305528,0.667309 0.7656,1.374289 -3.331217,-0.84435 z" />
              <path
                style="fill:#891b2f;fill-opacity:0;fill-rule:nonzero;stroke:none;stroke-width:0.59211105"
                d="m 87.110864,42.117444 c -0.678559,0 -1.299092,-0.146846 -1.845019,-0.435793 -1.300869,-0.68922 -3.503521,-2.88003 -4.100369,-5.392357 -0.375399,-1.582714 0.107167,-3.351942 0.313819,-3.993197 l 12.775982,3.33181 1.924952,1.358894 c -1.068168,1.050404 -5.452159,5.130643 -9.068772,5.130643 z" />
              <path
                style="fill:#ffffff;fill-opacity:1;fill-rule:nonzero;stroke:none;stroke-width:0.59211105"
                d="m 81.288635,31.940534 c 0,0 -0.904153,2.339431 -0.410925,4.417148 0.648955,2.736145 3.016807,4.932286 4.249581,5.585384 0.620532,0.328623 1.290211,0.470137 1.983573,0.470137 4.307016,0 9.527067,-5.465777 9.527067,-5.465777 L 94.381988,35.35524 Z m 0.391385,0.714085 12.448544,3.245954 1.589227,1.122051 c -1.36837,1.306197 -5.336697,4.798468 -8.606927,4.798468 -0.629414,0 -1.203761,-0.134995 -1.706465,-0.40086 -0.97343,-0.51632 -3.319967,-2.54134 -3.950565,-5.199326 -0.315003,-1.326922 0.0089,-2.810751 0.226186,-3.566287" />
              <path
                style="fill:#ffffff;fill-opacity:1;fill-rule:nonzero;stroke:none;stroke-width:0.59211105"
                d="m 82.311567,11.351944 c -0.223818,0 -0.40086,0.01191 -0.551848,0.02073 -4.80439,0.275924 -8.207843,4.88906 -8.701071,5.516699 -0.49323,0.627637 -2.825556,3.767603 -3.722603,9.149301 -0.897048,5.38229 -0.045,9.86753 1.704095,12.872493 1.749096,3.004966 6.503155,3.991421 6.503155,3.991421 l 7.781524,2.011994 -5.427881,-7.213098 1.39146,-12.536174 6.454604,-9.063446 5.85953,-2.135151 c 0,0 -6.645853,-1.71357 -8.583834,-2.202061 -1.366592,-0.344017 -2.171271,-0.412702 -2.707131,-0.412702 m 0,0.592112 c 0.670269,0 1.508107,0.129087 2.562656,0.394936 1.271855,0.320333 4.614322,1.179487 6.732304,1.724821 l -4.066027,1.482054 -0.172897,0.06278 -0.107167,0.149799 -6.454013,9.063443 -0.08882,0.124943 -0.01717,0.152769 -1.392053,12.536769 -0.02605,0.233883 0.141507,0.1877 4.409452,5.85953 -6.169206,-1.594554 c -0.045,-0.0089 -4.5184,-0.972248 -6.111771,-3.709578 -1.861004,-3.196808 -2.440681,-7.627574 -1.632449,-12.476964 0.843166,-5.057221 2.971804,-8.076396 3.60418,-8.881075 l 0.06751,-0.08704 c 2.4768,-3.194439 5.389394,-5.04301 8.201922,-5.204657 l 0.04914,-0.003 c 0.130851,-0.0071 0.282438,-0.01662 0.468952,-0.01662" />
              <path
                style="fill:#ffffff;fill-opacity:1;fill-rule:nonzero;stroke:none;stroke-width:0.59211105"
                d="m 94.292283,20.285065 2.915555,-3.947014 c 0,0 -1.570279,-3.049963 -6.36934,-2.691144 -4.799059,0.35882 -8.20725,4.889061 -8.700479,5.5167 -0.493229,0.628229 -2.825555,3.767603 -3.722602,9.149892 -0.89764,5.381697 -0.045,9.866938 1.704094,12.871903 1.749097,3.004963 4.215832,3.947012 6.503158,3.992012 2.287916,0.04441 5.875517,-1.166459 8.118435,-3.812603 2.242323,-2.646145 2.690553,-3.857012 2.690553,-3.857012 l -3.049374,-2.152915 c 0,0 -1.181261,2.768711 -3.229373,3.902011 -1.839096,0.94205 -2.511735,1.031457 -3.184373,1.076458 -0.672639,0.04499 -2.402195,-0.1427 -3.588194,-1.524685 -1.39975,-1.631859 -1.794095,-3.094965 -1.928506,-4.620242 -0.134995,-1.524687 -0.717638,-6.368156 1.435277,-10.405169 2.152325,-4.036421 4.88847,-5.33729 6.458156,-5.38229 1.569686,-0.04441 2.736147,0.04499 3.947013,1.884098" />
            </g>
            <g class="letter-l calvin">
              <path
                style="fill:#ffffff;fill-opacity:1;fill-rule:nonzero;stroke:none;stroke-width:0.59211105"
                d="m 77.983471,110.00695 -0.823035,0.21907 v 10.79064 18.43893 l 9.418121,2.66449 0.24987,-29.36337 1.011917,-0.27948 z m 0.0042,0.61164 8.248698,2.06706 v 0.0664 l -0.243354,28.58712 -8.240411,-2.33114 v -17.99129 -10.3353 z" />
              <path
                style="fill:#ffffff;fill-opacity:1;fill-rule:nonzero;stroke:none;stroke-width:0.59211105"
                d="m 88.807973,131.22293 v 7.34455 l 10.604712,-3.32056 v -1.16646 z m 0.59211,0.7727 9.420492,2.53839 v 0.27829 l -9.420492,2.94931 z" />
              <path
                style="fill:#ffffff;fill-opacity:1;fill-rule:nonzero;stroke:none;stroke-width:0.59211105"
                d="m 86.828131,112.75676 3.795431,-1.04862 -0.149799,24.71945 8.938512,-2.34713 v 4.64393 l -12.833418,3.39576 z" />
              <path
                style="fill:#ffffff;fill-opacity:1;fill-rule:nonzero;stroke:none;stroke-width:0.59211105"
                d="m 81.05043,109.19137 -3.88958,1.03442 v 0.45296 l 9.101932,2.23463 4.360307,-1.20554 z m 5.77e-4,0.61224 7.29777,1.91844 -2.09489,0.57909 -7.588496,-1.86278 z" />
            </g>
            <g class="letter-c-2 hacks">
              <path
                style="fill:#891b2f;fill-opacity:0;fill-rule:nonzero;stroke:none;stroke-width:0.59211105"
                d="m 125.33068,135.90576 5.29171,-1.04626 2.52298,1.51995 -6.27994,1.59101 z" />
              <path
                style="fill:#ffffff;fill-opacity:1;fill-rule:nonzero;stroke:none;stroke-width:0.59211105"
                d="m 130.67673,134.54716 -5.86307,1.15936 1.93205,2.59936 7.1604,-1.81422 z m -0.10959,0.62527 1.81719,1.09422 -5.39947,1.36778 -1.13685,-1.52883 z" />
              <path
                style="fill:#891b2f;fill-opacity:0;fill-rule:nonzero;stroke:none;stroke-width:0.59211105"
                d="m 134.16261,159.84002 c -4.18799,0 -8.31501,-3.86233 -9.32575,-4.87662 l 1.89772,-1.35949 12.59893,-3.28623 c -0.48078,2.81432 -1.85211,8.86568 -3.54791,9.3151 -0.5181,0.13729 -1.06402,0.20724 -1.62299,0.20724" />
              <path
                style="fill:#ffffff;fill-opacity:1;fill-rule:nonzero;stroke:none;stroke-width:0.59211105"
                d="m 139.6998,149.91666 -13.09334,3.41469 -2.2216,1.5916 c 0,0 4.79193,5.21294 9.77751,5.21294 0.56607,0 1.1345,-0.067 1.69877,-0.21671 2.372,-0.62881 3.83866,-10.00252 3.83866,-10.00252 m -0.73599,0.80408 c -0.65724,3.64858 -1.98358,8.28956 -3.25425,8.62647 -0.49322,0.13025 -1.01368,0.19657 -1.54719,0.19657 -3.79365,0 -7.56718,-3.29036 -8.86745,-4.54444 l 1.56733,-1.12324 12.10156,-3.15536" />
              <path
                style="fill:#891b2f;fill-opacity:0;fill-rule:nonzero;stroke:none;stroke-width:0.59211105"
                d="m 140.75878,156.03956 -1.41337,-12.7298 -6.544,-9.19016 -4.70492,-2.16594 c 1.82964,-0.47073 6.25507,-1.60995 7.7768,-1.99304 1.07822,-0.27179 1.94034,-0.40442 2.6349,-0.40442 0.19301,0 0.35052,0.01 0.48611,0.0172 4.22826,0.24335 6.94073,4.14655 7.83185,5.42907 0.10183,0.14684 0.17942,0.25756 0.23152,0.32387 0.64303,0.81889 2.80897,3.88958 3.66339,9.01489 0.81889,4.9175 0.22677,9.41871 -1.66858,12.67474 -1.66322,2.85811 -6.26097,3.84103 -6.30775,3.8505 l -6.97506,1.80356 z" />
              <path
                style="fill:#ffffff;fill-opacity:1;fill-rule:nonzero;stroke:none;stroke-width:0.59211105"
                d="m 138.50777,129.26038 c -0.53586,0 -1.34055,0.0687 -2.70714,0.4127 -1.93738,0.48849 -8.58383,2.20207 -8.58383,2.20207 l 5.3888,2.48035 6.4546,9.06344 1.39146,12.53618 -5.42789,7.21309 7.78095,-2.01139 c 0,0 4.75464,-0.98706 6.50375,-3.99202 1.7491,-3.00497 2.60114,-7.4902 1.70408,-12.87191 -0.89705,-5.38228 -3.22877,-8.52165 -3.72259,-9.14988 -0.49322,-0.62764 -3.42596,-5.58598 -8.22976,-5.86191 -0.15156,-0.009 -0.32862,-0.0207 -0.55243,-0.0207 m 0,0.5921 c 0.18652,0 0.3381,0.01 0.46895,0.0167 l 0.0491,0.003 c 4.03581,0.23211 6.68612,4.04589 7.5571,5.29939 0.10664,0.15336 0.18769,0.26882 0.24159,0.33751 0.63236,0.80467 2.76101,3.82384 3.60418,8.88107 0.80823,4.84939 0.22856,9.28075 -1.63244,12.47696 -1.59279,2.73734 -6.06738,3.70069 -6.13961,3.7161 l -6.14138,1.58804 4.40945,-5.85953 0.14099,-0.1877 -0.0255,-0.23389 -1.39205,-12.53618 -0.0171,-0.15335 -0.0888,-0.12494 -6.4546,-9.06344 -0.0911,-0.12849 -0.14333,-0.0657 -3.87657,-1.78463 c 2.09668,-0.54 5.64815,-1.45304 6.96856,-1.7858 1.05455,-0.26586 1.89239,-0.39494 2.56267,-0.39494" />
              <path
                style="fill:#ffffff;fill-opacity:1;fill-rule:nonzero;stroke:none;stroke-width:0.59211105"
                d="m 126.7106,138.2748 -2.91556,-3.94701 c 0,0 1.57029,-3.04937 6.36934,-2.69056 4.79908,0.35882 8.20725,4.88847 8.70048,5.51611 0.49384,0.62823 2.82557,3.76761 3.7226,9.14988 0.89764,5.3823 0.045,9.86755 -1.70409,12.87192 -1.7491,3.00556 -4.21583,3.94702 -6.50316,3.99202 -2.28791,0.045 -5.87551,-1.16587 -8.11843,-3.81203 -2.24232,-2.64673 -2.69056,-3.85759 -2.69056,-3.85759 l 3.04997,-2.15292 c 0,0 1.39028,2.96055 3.22878,3.90261 1.83909,0.94145 2.51173,1.03144 3.18438,1.07586 0.67264,0.045 2.46674,-0.0894 3.58819,-1.52469 1.12146,-1.43527 1.79411,-3.09496 1.92851,-4.61965 0.13495,-1.52528 0.71762,-6.36875 -1.43529,-10.40516 -2.1523,-4.03702 -4.88846,-5.33729 -6.45814,-5.3823 -1.56969,-0.045 -2.73615,0.045 -3.94702,1.88351" />
            </g>
            <g class="letter-k hacks">
              <path
                style="fill:#891b2f;fill-opacity:0;fill-rule:nonzero;stroke:none;stroke-width:0.59211105"
                d="m 123.5691,176.58273 -0.53942,-0.74014 9.2778,-2.32759 4.47398,1.25113 0.11362,0.19243 -9.53357,2.37792 0.005,0.24751 z" />
              <path
                style="fill:#ffffff;fill-opacity:1;fill-rule:nonzero;stroke:none;stroke-width:0.59211105"
                d="m 132.31139,173.20875 -9.77931,2.45371 0.85974,1.1795 4.27742,1.12855 -0.009,-0.40381 9.68989,-2.417 -0.3754,-0.63652 z m -0.009,0.61226 3.73798,1.04566 -8.52284,2.12568 -0.45771,0.11362 0.002,0.0918 -3.31581,-0.87454 -0.2185,-0.30021 z" />
              <path
                style="fill:#891b2f;fill-opacity:0;fill-rule:nonzero;stroke:none;stroke-width:0.59211105"
                d="m 127.21626,177.48161 9.62003,-2.62365 8.89764,15.08759 -10.84509,3.1672 z" />
              <path
                style="fill:#ffffff;fill-opacity:1;fill-rule:nonzero;stroke:none;stroke-width:0.59211105"
                d="m 136.97603,174.51294 -10.18312,2.7776 7.93961,16.17647 11.44965,-3.34424 z m -0.28008,0.69041 8.58977,14.56475 -10.24115,2.99075 -7.40435,-15.08581 z" />
              <path
                style="fill:#891b2f;fill-opacity:1;fill-rule:nonzero;stroke:none;stroke-width:0.59211105"
                d="m 140.71053,181.57263 v -0.70225 l 9.15464,-2.50464 v 28.66232 l -9.27898,2.50819 z" />
              <path
                style="fill:#ffffff;fill-opacity:1;fill-rule:nonzero;stroke:none;stroke-width:0.59211105"
                d="m 150.16146,177.97804 -9.74674,2.66686 v 0.92607 l -0.12672,28.35265 9.87343,-2.66924 z m -0.59212,0.77624 v 28.04713 l -8.68566,2.34832 0.12319,-27.57876 v -0.47429 z" />
              <path
                style="fill:#891b2f;fill-opacity:0;fill-rule:nonzero;stroke:none;stroke-width:0.59211105"
                d="m 136.96301,193.59146 0.53764,9.73965 -9.44359,2.43771 z" />
              <path
                style="fill:#ffffff;fill-opacity:1;fill-rule:nonzero;stroke:none;stroke-width:0.59211105"
                d="m 137.21252,192.74843 -9.88293,13.51434 10.47978,-2.70535 z m -0.49975,1.68633 0.47903,8.67028 -8.4068,2.17009 z" />
              <path
                style="fill:#891b2f;fill-opacity:1;fill-rule:nonzero;stroke:none;stroke-width:0.59211105"
                d="m 136.90836,180.07211 -0.002,-0.39613 9.50218,-2.38976 3.45675,0.91954 v 0.52402 l -9.17595,2.2885 v 0.12018 z" />
              <path
                style="fill:#ffffff;fill-opacity:1;fill-rule:nonzero;stroke:none;stroke-width:0.59211105"
                d="m 146.41073,176.98056 -9.80122,2.46437 0.003,0.85146 4.37215,1.23337 v -0.28007 l 9.17596,-2.2885 v -0.98292 z m -0.003,0.61165 3.16245,0.84081 v 0.0658 l -8.72712,2.17659 -0.37481,0.093 -3.15416,-0.88935 z" />
              <path
                style="fill:#ffffff;fill-opacity:1;fill-rule:nonzero;stroke:none;stroke-width:0.59211105"
                d="m 122.07118,204.86012 10.31161,-12.99802 -9.85036,-16.20016 5.4178,1.46251 8.66557,15.2433 v -12.9252 l 4.36977,1.34291 -0.67974,29.04839 -3.69003,-1.08533 v -15.02956 l -9.28609,12.54385 z" />
            </g>
            <g class="letter-a-2 hacks">
              <path
                style="fill:#891b2f;fill-opacity:1;fill-rule:nonzero;stroke:none;stroke-width:0.59211105"
                d="m 129.57516,87.114983 8.7828,-2.207982 2.99017,0.794615 0.0445,0.316779 -8.64128,2.234627 z" />
              <path
                style="fill:#ffffff;fill-opacity:1;fill-rule:nonzero;stroke:none;stroke-width:0.59211105"
                d="m 138.35973,84.600822 -9.8012,2.464366 4.17852,1.496858 8.98587,-2.322852 -0.10893,-0.773296 z m -0.003,0.61165 2.45134,0.651914 -8.04204,2.078901 -2.17365,-0.778625 z" />
              <path
                style="fill:#891b2f;fill-opacity:1;fill-rule:nonzero;stroke:none;stroke-width:0.59211105"
                d="m 132.25299,88.149164 9.18364,-2.391536 10.2838,30.836552 -10.33531,2.77108 z" />
              <path
                style="fill:#ffffff;fill-opacity:1;fill-rule:nonzero;stroke:none;stroke-width:0.59211105"
                d="m 141.6299,85.401709 -9.74673,2.53779 9.29909,31.786291 10.91854,-2.9274 z m -0.38663,0.712309 10.09666,30.275232 -9.75207,2.61477 -8.96516,-30.645306 z" />
              <path
                style="fill:#891b2f;fill-opacity:1;fill-rule:nonzero;stroke:none;stroke-width:0.59211105"
                d="m 123.16001,114.62476 2.36252,-6.7477 10.15234,2.69351 v 1.27955 l -11.65748,3.00911 z" />
              <path
                style="fill:#ffffff;fill-opacity:1;fill-rule:nonzero;stroke:none;stroke-width:0.59211105"
                d="m 125.33359,107.52055 -2.55793,7.30606 1.23929,0.33928 11.9559,-3.08668 v -1.73667 z m 0.37776,0.7129 9.66741,2.56503 v 0.82244 l -11.35966,2.93213 -0.47488,-0.12967 z" />
              <path
                style="fill:#ffffff;fill-opacity:1;fill-rule:nonzero;stroke:none;stroke-width:0.59211105"
                d="m 127.21224,104.804 3.14174,-11.068325 3.39989,12.844665 z m -7.44462,9.19964 4.24721,1.16231 1.92259,-6.21421 9.12029,2.41404 1.92199,7.24211 4.20221,1.1179 -9.2985,-31.786291 -3.30872,-0.938495 z" />
              <path
                style="fill:#ffffff;fill-opacity:1;fill-rule:nonzero;stroke:none;stroke-width:0.59211105"
                d="m 129.66654,90.862219 -4.07196,14.358691 8.09298,-2.27489 z m 0.045,2.01081 3.21811,9.670951 -6.4771,1.82014 z" />
            </g>
            <g class="letter-s hacks">
              <path
                style="fill:#414ca8;fill-opacity:1;fill-rule:nonzero;stroke:#ffffff;stroke-width:0.59211105;stroke-linecap:butt;stroke-linejoin:bevel;stroke-miterlimit:10;stroke-dasharray:none;stroke-opacity:1"
                d="m 129.46646,222.91251 7.66429,-1.87698" />
              <path
                style="fill:#891b2f;fill-opacity:1;fill-rule:nonzero;stroke:none;stroke-width:0.59211105"
                d="m 150.16293,235.28734 -2.52653,0.6306 -3.51892,0.17526 c 0,0 -1.13804,-1.68811 -3.38154,-2.91554 -0.70106,-0.3831 -0.20074,-1.28252 -0.20074,-1.28252 l 2.98543,-0.71291 z" />
              <path
                style="fill:#891b2f;fill-opacity:1;fill-rule:nonzero;stroke:none;stroke-width:0.59211105"
                d="m 143.8408,252.03929 c -2.3264,0 -4.52908,-1.1185 -6.54817,-3.32411 l -0.12487,-0.13495 c -0.31737,-0.32981 -2.12509,-2.87826 -2.4916,-6.19822 -0.0752,-0.67974 -0.38961,-4.15248 0.77862,-5.76835 1.13508,-1.56909 1.65969,-1.87166 3.14233,-2.24233 0.69869,-0.17467 1.52113,-0.3375 2.24766,-0.48138 1.00302,-0.19836 1.58153,-0.31679 1.81008,-0.42395 0.89644,-0.42098 1.10665,-0.68212 1.24579,-0.85442 l 0.0462,-0.055 c 0.14032,-0.15274 0.66613,-0.95627 0.68153,-2.09134 0.0271,-2.01674 -0.76204,-3.64978 -2.2826,-4.72268 -0.87334,-0.61639 -1.76032,-0.92903 -2.63429,-0.92903 -0.54237,0 -0.93553,0.11968 -1.14693,0.18416 l -0.077,0.0225 c -0.60514,0.16397 -1.1706,0.55539 -1.68396,1.16527 l -2.13574,-3.80788 c 0.39019,-0.39907 1.67745,-1.50631 3.96715,-1.53533 l 0.0782,-4.4e-4 c 1.73369,0 3.48692,0.71822 5.20997,2.13573 l 0.10961,0.0888 c 0.66316,0.51574 2.8812,2.46851 3.56866,5.94066 0.85855,4.33544 -0.43106,6.51086 -1.02555,7.24507 -0.87751,1.08356 -1.74969,1.44415 -3.15181,1.7645 -0.26762,0.0615 -0.58795,0.11732 -0.93493,0.17704 -1.47258,0.25638 -3.30517,0.57553 -4.01275,1.68692 -0.86269,1.35593 -0.91244,2.65917 -0.18296,4.80854 0.72594,2.13751 2.98188,3.19561 4.02814,3.2868 0.11597,0.01 0.23803,0.0151 0.36237,0.0151 0.8852,0 1.89534,-0.24217 2.34949,-0.5637 0.40442,-0.28598 0.9989,-0.70638 1.43351,-1.3056 l 2.36193,3.69241 c -0.2706,0.48139 -1.42166,2.09667 -4.72091,2.22043 -0.0894,0.003 -0.17881,0.005 -0.26704,0.005" />
              <path
                style="fill:#ffffff;fill-opacity:1;fill-rule:nonzero;stroke:none;stroke-width:0.59211105"
                d="m 138.71275,220.54526 c -0.0273,0 -0.0546,4.3e-4 -0.0817,4.3e-4 -2.97239,0.0379 -4.32537,1.79115 -4.32537,1.79115 l 2.45785,4.3828 c 0.80291,-1.12323 1.53713,-1.34231 1.8024,-1.41396 0.1628,-0.0443 0.56426,-0.19659 1.14572,-0.19659 0.63239,0 1.4791,0.18002 2.46319,0.87515 2.00903,1.41752 2.17067,3.48635 2.15765,4.47695 -0.0135,0.99061 -0.4648,1.74318 -0.60396,1.89476 -0.13847,0.15156 -0.22677,0.38488 -1.19961,0.84198 -0.38666,0.18177 -2.48389,0.50625 -4.00387,0.88581 -1.51934,0.38013 -2.11618,0.7058 -3.31049,2.35659 -1.19369,1.65082 -0.93552,5.04065 -0.83249,5.97441 0.35881,3.25186 2.11501,5.89446 2.57213,6.37051 0.44703,0.46541 2.98483,3.54972 6.88625,3.54972 0.0918,0 0.18474,-0.001 0.27829,-0.005 4.05892,-0.15273 5.05012,-2.53482 5.05012,-2.53482 l -2.70596,-4.23004 c -0.40027,0.78099 -1.14336,1.29554 -1.60046,1.61942 -0.40146,0.28422 -1.35831,0.50982 -2.17839,0.50982 -0.11599,0 -0.22914,-0.005 -0.3369,-0.0135 -0.87693,-0.0764 -3.06774,-1.01013 -3.77293,-3.08726 -0.70521,-2.07713 -0.64837,-3.29629 0.15224,-4.55393 0.80051,-1.25765 3.43009,-1.42876 4.76351,-1.73429 1.33403,-0.30495 2.34418,-0.66671 3.31584,-1.86692 0.97224,-1.20081 1.84856,-3.63971 1.08592,-7.48903 -0.76204,-3.8493 -3.33418,-5.85006 -3.67701,-6.1165 -0.34045,-0.26408 -2.56916,-2.28732 -5.5019,-2.28732 m 0,0.59211 c 1.66265,0 3.35195,0.69571 5.02111,2.06765 0.0497,0.0414 0.0888,0.0733 0.11665,0.0947 0.64363,0.50032 2.79357,2.39389 3.4603,5.7648 0.83429,4.21167 -0.39672,6.29887 -0.96515,7.00111 -0.82303,1.01607 -1.65138,1.35713 -2.9872,1.66264 -0.25637,0.058 -0.57789,0.1143 -0.91836,0.1729 -1.5306,0.26704 -3.43543,0.59743 -4.21346,1.82015 -0.90653,1.42462 -0.96633,2.8439 -0.21317,5.06255 0.81476,2.40042 3.28208,3.39932 4.28215,3.48636 0.12488,0.0117 0.25461,0.0168 0.38842,0.0168 0.8183,0 1.94746,-0.21317 2.52003,-0.61817 l 0.0314,-0.0225 c 0.32328,-0.22856 0.79165,-0.56015 1.20316,-1.01961 l 2.03982,3.18911 c -0.37066,0.55185 -1.52527,1.8154 -4.3816,1.92258 -0.0865,0.003 -0.17172,0.005 -0.2564,0.005 -2.23997,0 -4.36918,-1.08594 -6.32908,-3.22759 -0.0539,-0.058 -0.0971,-0.10536 -0.13024,-0.13982 -0.43462,-0.45356 -2.07712,-3.00614 -2.41049,-6.0265 -0.20192,-1.82549 -0.13259,-4.37688 0.72357,-5.56169 1.1031,-1.52529 1.57797,-1.77989 2.97476,-2.12924 0.69099,-0.1729 1.51048,-0.33454 2.23286,-0.47783 1.05573,-0.20903 1.61882,-0.32388 1.87934,-0.44646 0.88344,-0.41566 1.15107,-0.6904 1.34944,-0.93612 0.0118,-0.0151 0.0225,-0.0283 0.0344,-0.0415 0.24099,-0.26289 0.74369,-1.16822 0.75909,-2.28672 0.0297,-2.11857 -0.8035,-3.83747 -2.40754,-4.9696 -0.92427,-0.65192 -1.86811,-0.9829 -2.80484,-0.9829 -0.58499,0 -1.02197,0.13327 -1.23218,0.19659 l -0.0693,0.0206 c -0.55362,0.15038 -1.07231,0.46836 -1.54895,0.94917 l -1.8249,-3.25426 c 0.48257,-0.44054 1.64725,-1.26594 3.60241,-1.29139 l 0.074,-4.4e-4" />
              <path
                style="fill:#891b2f;fill-opacity:1;fill-rule:nonzero;stroke:none;stroke-width:0.59211105"
                d="m 140.05975,235.03113 c 0,0 0.13209,-0.81356 0.0864,-1.65375 -0.0456,-0.84023 2.27368,-2.21984 2.27368,-2.21984 l 2.45847,-2.14641 0.93553,4.69664 z" />
              <path
                style="fill:#891b2f;fill-opacity:1;fill-rule:nonzero;stroke:#ffffff;stroke-width:0.59211105;stroke-linecap:butt;stroke-linejoin:miter;stroke-miterlimit:10;stroke-dasharray:none;stroke-opacity:1"
                d="m 139.35514,251.05113 -1.98891,2.6337 8.79285,-1.97292" />
              <path
                style="fill:#891b2f;fill-opacity:1;fill-rule:nonzero;stroke:#ffffff;stroke-width:0.59211105;stroke-linecap:butt;stroke-linejoin:miter;stroke-miterlimit:10;stroke-dasharray:none;stroke-opacity:1"
                d="m 148.29115,248.97991 -9.11614,2.30213" />
              <path
                style="fill:#891b2f;fill-opacity:1;fill-rule:nonzero;stroke:none;stroke-width:0.59211105"
                d="m 138.90443,247.66673 7.42209,-1.76449 2.36844,3.70188 -7.42209,1.76508 z" />
              <path
                style="fill:#ffffff;fill-opacity:1;fill-rule:nonzero;stroke:none;stroke-width:0.59211105"
                d="m 146.46277,245.56544 -8.03198,1.91015 2.70536,4.23005 8.03257,-1.90956 z m -0.27178,0.67324 2.02977,3.17371 -6.81224,1.62002 -2.02976,-3.17371 z" />
              <path
                style="fill:#891b2f;fill-opacity:1;fill-rule:nonzero;stroke:none;stroke-width:0.59211105"
                d="m 129.87443,225.12661 4.84583,1.98475 -5.59249,1.13626 z" />
              <path
                style="fill:#ffffff;fill-opacity:1;fill-rule:nonzero;stroke:none;stroke-width:0.59211105"
                d="m 129.66683,224.72184 -0.93554,3.90851 7.00469,-1.42343 z m 0.41507,0.8094 3.62313,1.48443 -4.18148,0.84967 z" />
              <path
                style="fill:#ffffff;fill-opacity:1;fill-rule:nonzero;stroke:none;stroke-width:0.59211105"
                d="m 128.73155,228.63011 -2.45847,-4.3828 c 0,0 1.35299,-1.75264 4.32598,-1.79113 2.97239,-0.0379 5.23959,2.01968 5.58301,2.28674 0.34284,0.26704 2.91556,2.26777 3.6776,6.1165 0.76206,3.84932 -0.1143,6.28822 -1.08652,7.48843 -0.97165,1.2002 -1.98121,1.56316 -3.31523,1.86751 -1.33403,0.30493 -3.96359,0.47665 -4.76413,1.7343 -0.79994,1.25764 -0.85737,2.4774 -0.15223,4.55451 0.7052,2.07655 2.8966,3.01031 3.77293,3.08608 0.87632,0.0764 2.05817,-0.17111 2.51528,-0.49499 0.45711,-0.32389 1.2008,-0.83904 1.60049,-1.62002 l 2.70593,4.23064 c 0,0 -0.99119,2.38147 -5.04952,2.53423 -4.05892,0.15274 -6.70743,-3.06833 -7.16454,-3.54379 -0.45771,-0.47665 -2.2139,-3.11984 -2.57272,-6.3717 -0.10312,-0.93317 -0.36118,-4.323 0.8331,-5.97441 1.19369,-1.65079 1.79054,-1.97646 3.31049,-2.35601 1.51936,-0.38012 3.61721,-0.704 4.00385,-0.8858 0.97226,-0.4571 1.06048,-0.69099 1.19962,-0.84198 0.13847,-0.15156 0.58974,-0.90474 0.60336,-1.89534 0.0135,-0.99001 -0.14803,-3.05944 -2.15706,-4.47695 -1.88884,-1.33284 -3.26904,-0.77094 -3.60951,-0.67856 -0.26467,0.0722 -0.99888,0.2919 -1.80179,1.41454" />
              <path
                style="fill:#891b2f;fill-opacity:1;fill-rule:nonzero;stroke:none;stroke-width:0.59211105"
                d="m 134.22793,240.44457 1.2298,-0.22914 2.43418,8.00474 c 0,0 -0.34817,0.44291 -1.27246,0.99594 -0.96632,0.57789 -2.92502,-3.17017 -2.92502,-3.17017 z" />
              <path
                style="fill:#414ca8;fill-opacity:1;fill-rule:nonzero;stroke:none;stroke-width:0.59211105"
                d="m 136.66985,228.39765 9.77871,-2.38088" />
              <path
                style="fill:#891b2f;fill-opacity:1;fill-rule:nonzero;stroke:none;stroke-width:0.59211105"
                d="m 137.65862,226.2021 c 0,0 -0.89942,-1.15284 -2.401,-2.16712 -1.36423,-0.9225 -2.00135,-1.75028 -2.00135,-1.75028 l 4.30464,-1.02732 6.20593,4.4367 1.49566,4.36266 -1.74199,1.12561 z" />
            </g>
          </svg>
